CommonSerif-MediumItalic.ufo
<glyph name="exclam" format="2">
  <advance width="240"/>
  <unicode hex="0021"/>
  <outline>
    <contour>
      <point x="253.333" y="665" type="curve" smooth="yes"/>
      <point x="208" y="665"/>
      <point x="179.667" y="632.333"/>
      <point x="175.667" y="585" type="curve" smooth="yes"/>
      <point x="167.333" y="477.667"/>
      <point x="173.667" y="377.333"/>
      <point x="150.667" y="211" type="curve"/>
      <point x="150.667" y="208" type="line" smooth="yes"/>
      <point x="150.667" y="198.667"/>
      <point x="156.333" y="194"/>
      <point x="165.667" y="194" type="curve" smooth="yes"/>
      <point x="179.667" y="194"/>
      <point x="186.667" y="208"/>
      <point x="189.333" y="221.333" type="curve" smooth="yes"/>
      <point x="215" y="362.333"/>
      <point x="301.667" y="548.667"/>
      <point x="301.667" y="608.333" type="curve" smooth="yes"/>
      <point x="301.667" y="642"/>
      <point x="283.333" y="665"/>
    </contour>
    <contour>
      <point x="78.667" y="40" type="curve" smooth="yes"/>
      <point x="78.667" y="10.333"/>
      <point x="103" y="-12"/>
      <point x="132.667" y="-12" type="curve" smooth="yes"/>
      <point x="168" y="-12"/>
      <point x="200" y="18"/>
      <point x="200" y="52.667" type="curve" smooth="yes"/>
      <point x="200" y="82.333"/>
      <point x="176.333" y="105"/>
      <point x="146" y="105" type="curve" smooth="yes"/>
      <point x="111.334" y="105"/>
      <point x="78.667" y="74.333"/>
    </contour>
  </outline>
</glyph>
<glyph name="percent" format="2">
  <advance width="637"/>
  <unicode hex="0025"/>
  <outline>
    <contour>
      <point x="195.667" y="322" type="curve"/>
      <point x="250.333" y="308.333"/>
      <point x="287" y="369"/>
      <point x="306" y="415" type="curve"/>
      <point x="334.667" y="420.333"/>
      <point x="361" y="456.667"/>
      <point x="359.667" y="491" type="curve"/>
      <point x="372.333" y="485.667"/>
      <point x="397.667" y="481"/>
      <point x="413.333" y="483" type="curve"/>
      <point x="438" y="479.667"/>
      <point x="470" y="478.667"/>
      <point x="502.667" y="489.333" type="curve"/>
      <point x="475.383" y="446.386"/>
      <point x="295.673" y="223.08"/>
      <point x="252.667" y="162.333" type="curve" smooth="yes"/>
      <point x="127.333" y="-10.6667" type="line"/>
      <point x="463.333" y="360" type="line"/>
      <point x="610" y="562" type="line"/>
      <point x="580.232" y="533.945"/>
      <point x="526.367" y="532.107"/>
      <point x="496.667" y="533" type="curve"/>
      <point x="468.667" y="518.333"/>
      <point x="424" y="516.333"/>
      <point x="375" y="533" type="curve"/>
      <point x="356" y="543.667"/>
      <point x="320.667" y="553.667"/>
      <point x="299.333" y="558.667" type="curve"/>
      <point x="240" y="564"/>
      <point x="200.333" y="507.333"/>
      <point x="193.333" y="457.333" type="curve"/>
      <point x="161" y="420"/>
      <point x="154.333" y="352.667"/>
    </contour>
    <contour>
      <point x="473.333" y="188.333" type="curve"/>
      <point x="424" y="171.667"/>
      <point x="392" y="104.667"/>
      <point x="408" y="54" type="curve"/>
      <point x="441.667" y="18"/>
      <point x="487" y="22.3333"/>
      <point x="526.333" y="52.6667" type="curve"/>
      <point x="581.667" y="65.6667"/>
      <point x="602" y="143"/>
      <point x="590.667" y="189" type="curve"/>
      <point x="557" y="224.333"/>
      <point x="512" y="221.667"/>
    </contour>
    <contour>
      <point x="446.667" y="67.3333" type="curve" smooth="yes"/>
      <point x="446.667" y="111.667"/>
      <point x="483.333" y="217"/>
      <point x="538.667" y="217" type="curve" smooth="yes"/>
      <point x="566.667" y="217"/>
      <point x="577" y="187.667"/>
      <point x="577" y="162.667" type="curve" smooth="yes"/>
      <point x="577" y="118.667"/>
      <point x="538.333" y="13.3333"/>
      <point x="483.333" y="13.3333" type="curve" smooth="yes"/>
      <point x="456.667" y="13.3333"/>
      <point x="446.667" y="43.3333"/>
    </contour>
    <contour>
      <point x="197" y="382.667" type="curve" smooth="yes"/>
      <point x="197" y="426.333"/>
      <point x="233.667" y="532.333"/>
      <point x="289" y="532.333" type="curve" smooth="yes"/>
      <point x="317.667" y="532.333"/>
      <point x="327.333" y="503.667"/>
      <point x="327.333" y="478.667" type="curve" smooth="yes"/>
      <point x="327.333" y="434.667"/>
      <point x="288.667" y="329.333"/>
      <point x="234.333" y="329.333" type="curve" smooth="yes"/>
      <point x="207" y="329.333"/>
      <point x="197" y="357.333"/>
    </contour>
  </outline>
</glyph>
<glyph name="quotesingle" format="2">
  <advance width="198"/>
  <unicode hex="0027"/>
  <outline>
    <contour>
      <point x="146.667" y="423" type="line"/>
      <point x="190.667" y="489.333" type="line"/>
      <point x="199.77" y="518.302"/>
      <point x="226.597" y="597.227"/>
      <point x="229" y="622.333" type="curve"/>
      <point x="215.667" y="636.333"/>
      <point x="203.333" y="634"/>
      <point x="185.667" y="626.333" type="curve"/>
      <point x="165.88" y="616.355"/>
      <point x="145.425" y="561.681"/>
      <point x="143" y="534.333" type="curve"/>
    </contour>
  </outline>
</glyph>
<glyph name="plus" format="2">
  <advance width="530"/>
  <unicode hex="002B"/>
  <outline>
    <contour>
      <point x="345.667" y="260.333" type="line"/>
      <point x="377" y="431" type="line"/>
      <point x="318.667" y="431" type="line"/>
      <point x="287" y="260.333" type="line"/>
      <point x="118.666" y="260.333" type="line"/>
      <point x="108.333" y="203" type="line"/>
      <point x="275.666" y="203" type="line"/>
      <point x="243.666" y="33.333" type="line"/>
      <point x="302" y="33.333" type="line"/>
      <point x="334.333" y="203" type="line"/>
      <point x="502" y="203" type="line"/>
      <point x="513" y="260.333" type="line"/>
    </contour>
  </outline>
</glyph>
<glyph name="comma" format="2">
  <advance width="227"/>
  <unicode hex="002C"/>
  <outline>
    <contour>
      <point x="126.667" y="105.666" type="curve" smooth="yes"/>
      <point x="93.334" y="105.666"/>
      <point x="67.667" y="83.333"/>
      <point x="67.667" y="49.333" type="curve" smooth="yes"/>
      <point x="67.667" y="-8.667"/>
      <point x="125.667" y="8.666"/>
      <point x="125.667" y="-22" type="curve" smooth="yes"/>
      <point x="125.667" y="-52.667"/>
      <point x="63.334" y="-107.334"/>
      <point x="17.334" y="-118" type="curve"/>
      <point x="12.667" y="-128.334"/>
      <point x="14" y="-137"/>
      <point x="22.667" y="-143.667" type="curve"/>
      <point x="111" y="-128.334"/>
      <point x="185.667" y="-54.667"/>
      <point x="185.667" y="38.333" type="curve" smooth="yes"/>
      <point x="185.667" y="81.333"/>
      <point x="160.667" y="105.666"/>
    </contour>
  </outline>
</glyph>
<glyph name="hyphen" format="2">
  <advance width="341"/>
  <unicode hex="002D"/>
  <outline>
    <contour>
      <point x="318.333" y="220.333" type="line" smooth="yes"/>
      <point x="336" y="220.333"/>
      <point x="357.333" y="257.333"/>
      <point x="357.333" y="271.666" type="curve" smooth="yes"/>
      <point x="357.333" y="279.999"/>
      <point x="352.666" y="286.666"/>
      <point x="338" y="286.666" type="curve" smooth="yes"/>
      <point x="118.667" y="286.666" type="line" smooth="yes"/>
      <point x="105" y="286.666"/>
      <point x="82" y="255.666"/>
      <point x="82" y="238.666" type="curve" smooth="yes"/>
      <point x="82" y="229.666"/>
      <point x="88.333" y="220.333"/>
      <point x="101" y="220.333" type="curve" smooth="yes"/>
    </contour>
  </outline>
</glyph>
<glyph name="period" format="2">
  <advance width="221"/>
  <unicode hex="002E"/>
  <outline>
    <contour>
      <point x="54.333" y="38" type="curve" smooth="yes"/>
      <point x="54.333" y="10.333"/>
      <point x="75.666" y="-10.667"/>
      <point x="104.666" y="-10.667" type="curve" smooth="yes"/>
      <point x="142.667" y="-10.667"/>
      <point x="176" y="23.333"/>
      <point x="176" y="58.666" type="curve" smooth="yes"/>
      <point x="176" y="86"/>
      <point x="154.667" y="106.333"/>
      <point x="125.667" y="106.333" type="curve" smooth="yes"/>
      <point x="87.333" y="106.333"/>
      <point x="54.333" y="71"/>
    </contour>
  </outline>
</glyph>
<glyph name="zero" format="2">
  <advance width="467"/>
  <unicode hex="0030"/>
  <outline>
    <contour>
      <point x="234.999" y="-10" type="curve" smooth="yes"/>
      <point x="417.238" y="-10"/>
      <point x="505" y="271.757"/>
      <point x="505" y="414.667" type="curve" smooth="yes"/>
      <point x="505" y="530.334"/>
      <point x="456.333" y="610"/>
      <point x="364" y="610" type="curve" smooth="yes"/>
      <point x="186.914" y="610"/>
      <point x="95.333" y="331.881"/>
      <point x="95.333" y="193" type="curve" smooth="yes"/>
      <point x="95.333" y="86"/>
      <point x="135.333" y="-10"/>
    </contour>
    <contour>
      <point x="243" y="25.667" type="curve" smooth="yes"/>
      <point x="190.152" y="25.667"/>
      <point x="181.666" y="86.56"/>
      <point x="181.666" y="133.334" type="curve" smooth="yes"/>
      <point x="181.666" y="219.441"/>
      <point x="238.313" y="573.667"/>
      <point x="356.666" y="573.667" type="curve" smooth="yes"/>
      <point x="411.056" y="573.667"/>
      <point x="417" y="500.884"/>
      <point x="417" y="461" type="curve" smooth="yes"/>
      <point x="417" y="377.518"/>
      <point x="366.883" y="25.667"/>
    </contour>
  </outline>
</glyph>
<glyph name="one" format="2">
  <advance width="467"/>
  <unicode hex="0031"/>
  <outline>
    <contour>
      <point x="330.666" y="92" type="curve" smooth="yes"/>
      <point x="410.999" y="486.333" type="line"/>
      <point x="419.333" y="530.667"/>
      <point x="431.333" y="575.667"/>
      <point x="436.666" y="601.667" type="curve"/>
      <point x="437.666" y="607.333"/>
      <point x="433.999" y="610"/>
      <point x="429.333" y="610" type="curve" smooth="yes"/>
      <point x="427.999" y="610"/>
      <point x="426.333" y="610"/>
      <point x="424.666" y="609" type="curve"/>
      <point x="416.999" y="605.333"/>
      <point x="408.999" y="601.333"/>
      <point x="399.666" y="596.667" type="curve"/>
      <point x="395.999" y="594.667"/>
      <point x="391.999" y="593.333"/>
      <point x="387.999" y="591" type="curve"/>
      <point x="338.999" y="566.333"/>
      <point x="278.333" y="541"/>
      <point x="197.333" y="513" type="curve"/>
      <point x="196.333" y="500"/>
      <point x="199.333" y="488.667"/>
      <point x="206.333" y="479.333" type="curve"/>
      <point x="243" y="493"/>
      <point x="277" y="497"/>
      <point x="295.999" y="498.333" type="curve"/>
      <point x="297.999" y="498.333"/>
      <point x="299.999" y="498.333"/>
      <point x="301.999" y="498.333" type="curve" smooth="yes"/>
      <point x="311.666" y="498.333"/>
      <point x="316.999" y="491.667"/>
      <point x="315.999" y="473.667" type="curve" smooth="yes"/>
      <point x="315.666" y="465"/>
      <point x="313.999" y="457.333"/>
      <point x="311.666" y="444.333" type="curve" smooth="yes"/>
      <point x="245.333" y="111.333" type="line"/>
      <point x="241.333" y="92" type="line" smooth="yes"/>
      <point x="233.666" y="54"/>
      <point x="211" y="37"/>
      <point x="169.666" y="32.333" type="curve" smooth="yes"/>
      <point x="157" y="30.667"/>
      <point x="144" y="30.333"/>
      <point x="130.666" y="29.333" type="curve"/>
      <point x="124.333" y="24.667"/>
      <point x="121.666" y="6.667"/>
      <point x="127" y="-1.333" type="curve"/>
      <point x="179.333" y="-0.333"/>
      <point x="222" y="0"/>
      <point x="270.666" y="0" type="curve" smooth="yes"/>
      <point x="315.333" y="0"/>
      <point x="352.666" y="-0.333"/>
      <point x="405.666" y="-1.333" type="curve"/>
      <point x="411.999" y="3.333"/>
      <point x="414.666" y="24"/>
      <point x="409.999" y="29.333" type="curve"/>
      <point x="396.999" y="30.333"/>
      <point x="384.333" y="30.667"/>
      <point x="372.333" y="32.667" type="curve"/>
      <point x="335.333" y="37.333"/>
      <point x="323.333" y="55.667"/>
    </contour>
  </outline>
</glyph>
<glyph name="four" format="2">
  <advance width="468"/>
  <unicode hex="0034"/>
  <outline>
    <contour>
      <point x="480" y="211.667" type="curve" smooth="yes"/>
      <point x="397.333" y="211.667" type="line"/>
      <point x="457.667" y="511.334" type="line" smooth="yes"/>
      <point x="466.667" y="557.334"/>
      <point x="473.667" y="592.667"/>
      <point x="478" y="610" type="curve"/>
      <point x="448" y="610" type="line" smooth="yes"/>
      <point x="435" y="610"/>
      <point x="416.667" y="602"/>
      <point x="408.333" y="598.667" type="curve"/>
      <point x="301.333" y="455"/>
      <point x="195.667" y="337"/>
      <point x="84.333" y="221" type="curve" smooth="yes"/>
      <point x="80.667" y="217"/>
      <point x="76.333" y="213"/>
      <point x="73.667" y="209" type="curve"/>
      <point x="71.667" y="197"/>
      <point x="81" y="179.667"/>
      <point x="91.333" y="172.333" type="curve"/>
      <point x="95" y="169.333"/>
      <point x="99.333" y="168"/>
      <point x="111" y="168" type="curve" smooth="yes"/>
      <point x="306" y="168" type="line"/>
      <point x="293" y="102.667" type="line"/>
      <point x="291" y="92" type="line" smooth="yes"/>
      <point x="283.333" y="54"/>
      <point x="261" y="38.333"/>
      <point x="233.333" y="33" type="curve"/>
      <point x="222" y="30.333"/>
      <point x="210.667" y="29.667"/>
      <point x="197.667" y="28.667" type="curve"/>
      <point x="191.333" y="24"/>
      <point x="188.667" y="5.333"/>
      <point x="194" y="-2" type="curve"/>
      <point x="237" y="-1"/>
      <point x="266" y="0"/>
      <point x="301.333" y="0" type="curve" smooth="yes"/>
      <point x="307.333" y="0"/>
      <point x="314" y="0"/>
      <point x="321" y="0" type="curve" smooth="yes"/>
      <point x="356.667" y="0"/>
      <point x="389.667" y="-1"/>
      <point x="429.667" y="-2" type="curve"/>
      <point x="435.333" y="2.667"/>
      <point x="438.667" y="23.333"/>
      <point x="434" y="28.667" type="curve"/>
      <point x="425" y="29.667"/>
      <point x="415.333" y="29.667"/>
      <point x="407" y="31" type="curve"/>
      <point x="382.333" y="33.667"/>
      <point x="369.333" y="45.667"/>
      <point x="372.333" y="77.333" type="curve"/>
      <point x="374.333" y="91.667"/>
      <point x="376.667" y="106.667"/>
      <point x="380" y="123.333" type="curve" smooth="yes"/>
      <point x="388.667" y="168" type="line"/>
      <point x="458.333" y="168" type="line" smooth="yes"/>
      <point x="472.667" y="168"/>
      <point x="492.667" y="187"/>
      <point x="492.667" y="201.667" type="curve" smooth="yes"/>
      <point x="492.667" y="208.334"/>
      <point x="488" y="211.667"/>
    </contour>
    <contour>
      <point x="373.333" y="503" type="curve"/>
      <point x="314.667" y="211.667" type="line"/>
      <point x="121.667" y="211.667" type="line"/>
      <point x="204" y="300.334"/>
      <point x="294.333" y="398.334"/>
    </contour>
  </outline>
</glyph>
<glyph name="eight" format="2">
  <advance width="467"/>
  <unicode hex="0038"/>
  <outline>
    <contour>
      <point x="449.333" y="397.667" type="curve" smooth="yes"/>
      <point x="483" y="427"/>
      <point x="502.667" y="454.333"/>
      <point x="502.667" y="498.667" type="curve" smooth="yes"/>
      <point x="502.667" y="555.333"/>
      <point x="455" y="605.334"/>
      <point x="374" y="609.334" type="curve"/>
      <point x="367.666" y="610"/>
      <point x="361" y="610"/>
      <point x="354.666" y="609.667" type="curve"/>
      <point x="300.999" y="608.667"/>
      <point x="254.666" y="587.667"/>
      <point x="220.666" y="557" type="curve" smooth="yes"/>
      <point x="186.333" y="527"/>
      <point x="164" y="487.667"/>
      <point x="162.333" y="444.667" type="curve"/>
      <point x="162" y="440"/>
      <point x="162" y="434.667"/>
      <point x="162.666" y="430" type="curve"/>
      <point x="165.333" y="394.667"/>
      <point x="188.333" y="365.333"/>
      <point x="230.666" y="334" type="curve" smooth="yes"/>
      <point x="249.999" y="319.667" type="line"/>
      <point x="209.999" y="297.334"/>
      <point x="170.333" y="274.334"/>
      <point x="138.666" y="244" type="curve" smooth="yes"/>
      <point x="104" y="211.334"/>
      <point x="77" y="170.334"/>
      <point x="77" y="117" type="curve" smooth="yes"/>
      <point x="77" y="30"/>
      <point x="150.666" y="-10"/>
      <point x="238.666" y="-10" type="curve" smooth="yes"/>
      <point x="300.666" y="-10"/>
      <point x="352.666" y="11"/>
      <point x="391.333" y="43.667" type="curve" smooth="yes"/>
      <point x="438" y="83.667"/>
      <point x="463.666" y="136"/>
      <point x="463.666" y="201.334" type="curve" smooth="yes"/>
      <point x="463.666" y="240.667"/>
      <point x="450.333" y="279.334"/>
      <point x="416.334" y="306" type="curve"/>
      <point x="412.333" y="309.667"/>
      <point x="408.333" y="312.667"/>
      <point x="404" y="315.333" type="curve"/>
      <point x="365" y="341.667" type="line"/>
      <point x="397.667" y="360"/>
      <point x="426.667" y="378"/>
    </contour>
    <contour>
      <point x="247.999" y="22.667" type="curve" smooth="yes"/>
      <point x="209.999" y="22.667"/>
      <point x="163.333" y="49.667"/>
      <point x="156.666" y="105.334" type="curve" smooth="yes"/>
      <point x="156" y="110.667"/>
      <point x="155.333" y="117"/>
      <point x="155.333" y="123.667" type="curve"/>
      <point x="156" y="194.334"/>
      <point x="207.666" y="250.667"/>
      <point x="280.333" y="297.334" type="curve"/>
      <point x="316" y="271.667" type="line" smooth="yes"/>
      <point x="355.333" y="243"/>
      <point x="373.666" y="215.334"/>
      <point x="377" y="182.667" type="curve"/>
      <point x="377.666" y="178.334"/>
      <point x="377.666" y="173.334"/>
      <point x="377.333" y="168.334" type="curve"/>
      <point x="376.333" y="122"/>
      <point x="359.666" y="81.334"/>
      <point x="334" y="56.667" type="curve"/>
      <point x="310.333" y="32.334"/>
      <point x="280.666" y="22.667"/>
    </contour>
    <contour>
      <point x="349.333" y="577" type="curve" smooth="yes"/>
      <point x="393.667" y="577"/>
      <point x="422.667" y="540.333"/>
      <point x="426" y="502.667" type="curve"/>
      <point x="426.667" y="500.667"/>
      <point x="426.667" y="498"/>
      <point x="426.667" y="496" type="curve" smooth="yes"/>
      <point x="426.667" y="458.667"/>
      <point x="410" y="421.333"/>
      <point x="333.333" y="363.667" type="curve"/>
      <point x="306.666" y="381.333" type="line"/>
      <point x="301.999" y="384.667"/>
      <point x="297.666" y="387.667"/>
      <point x="293.333" y="391" type="curve" smooth="yes"/>
      <point x="257.999" y="417.333"/>
      <point x="247.999" y="441"/>
      <point x="246.666" y="463.333" type="curve"/>
      <point x="246.666" y="465.333"/>
      <point x="246.666" y="467.333"/>
      <point x="246.666" y="469.333" type="curve" smooth="yes"/>
      <point x="246.666" y="496"/>
      <point x="257.333" y="524.333"/>
      <point x="275.999" y="545" type="curve" smooth="yes"/>
      <point x="294.333" y="564.333"/>
      <point x="319.333" y="577"/>
    </contour>
  </outline>
</glyph>
<glyph name="greater" format="2">
  <advance width="495"/>
  <unicode hex="003E"/>
  <outline>
    <contour>
      <point x="406.667" y="236.666" type="line"/>
      <point x="74.334" y="121.333" type="line"/>
      <point x="64.667" y="67.333" type="line"/>
      <point x="486.667" y="213" type="line"/>
      <point x="495.334" y="259.666" type="line"/>
      <point x="128.667" y="406.666" type="line"/>
      <point x="118.334" y="352.666" type="line"/>
    </contour>
  </outline>
</glyph>
<glyph name="question" format="2">
  <advance width="413"/>
  <unicode hex="003F"/>
  <outline>
    <contour>
      <point x="225.334" y="565.333" type="curve"/>
      <point x="227" y="593.666"/>
      <point x="260.666" y="625"/>
      <point x="318.333" y="626.333" type="curve"/>
      <point x="322.666" y="626.666"/>
      <point x="326.666" y="626.666"/>
      <point x="331" y="626" type="curve"/>
      <point x="378" y="621.333"/>
      <point x="401" y="576"/>
      <point x="397" y="524" type="curve"/>
      <point x="393.333" y="450.666"/>
      <point x="349.666" y="423"/>
      <point x="304" y="381.333" type="curve" smooth="yes"/>
      <point x="259.666" y="342.333"/>
      <point x="233.667" y="298"/>
      <point x="221.334" y="235.666" type="curve"/>
      <point x="220.334" y="231.333"/>
      <point x="220" y="226.666"/>
      <point x="219" y="223" type="curve"/>
      <point x="215" y="202.666" type="line"/>
      <point x="214" y="198.333"/>
      <point x="213.667" y="194"/>
      <point x="213" y="189.666" type="curve"/>
      <point x="212.334" y="183.666"/>
      <point x="216" y="180.666"/>
      <point x="221.334" y="179.666" type="curve" smooth="yes"/>
      <point x="227" y="178.666"/>
      <point x="232" y="180"/>
      <point x="233.667" y="184" type="curve"/>
      <point x="235" y="183.666"/>
      <point x="236.667" y="183.333"/>
      <point x="238.667" y="183.333" type="curve"/>
      <point x="248.333" y="188"/>
      <point x="251" y="196.333"/>
      <point x="254.333" y="209.333" type="curve"/>
      <point x="257" y="228.333" type="line"/>
      <point x="262.666" y="254.333"/>
      <point x="271.999" y="277.666"/>
      <point x="287.999" y="300" type="curve" smooth="yes"/>
      <point x="300.333" y="318"/>
      <point x="320.666" y="332"/>
      <point x="342.666" y="346.666" type="curve" smooth="yes"/>
      <point x="396.333" y="383"/>
      <point x="467.334" y="427.666"/>
      <point x="482.334" y="506.333" type="curve" smooth="yes"/>
      <point x="484.334" y="516.333"/>
      <point x="485.334" y="526.666"/>
      <point x="485.667" y="537" type="curve" smooth="yes"/>
      <point x="487" y="608.333"/>
      <point x="435.333" y="654.666"/>
      <point x="349.333" y="658.666" type="curve"/>
      <point x="343.666" y="658.666"/>
      <point x="339" y="658.666"/>
      <point x="334" y="658.666" type="curve"/>
      <point x="282.333" y="657.999"/>
      <point x="240.333" y="643.333"/>
      <point x="210.334" y="622.333" type="curve" smooth="yes"/>
      <point x="172.333" y="595.666"/>
      <point x="150" y="564.666"/>
      <point x="143.667" y="535" type="curve"/>
      <point x="142.667" y="529.333"/>
      <point x="141.667" y="524.333"/>
      <point x="142" y="519.333" type="curve"/>
      <point x="142" y="492"/>
      <point x="162.666" y="483"/>
      <point x="178.667" y="483" type="curve" smooth="yes"/>
      <point x="208.667" y="483"/>
      <point x="227.667" y="505"/>
      <point x="229.667" y="526.666" type="curve"/>
      <point x="230.667" y="534.666"/>
      <point x="229.667" y="541"/>
      <point x="228" y="546.333" type="curve"/>
      <point x="226" y="552"/>
      <point x="224.334" y="558"/>
    </contour>
    <contour>
      <point x="148.333" y="42.666" type="curve" smooth="yes"/>
      <point x="145.666" y="12.666"/>
      <point x="166.666" y="-10.667"/>
      <point x="196.667" y="-10.667" type="curve" smooth="yes"/>
      <point x="230.667" y="-10.667"/>
      <point x="260" y="17.333"/>
      <point x="265.333" y="48.666" type="curve"/>
      <point x="266.333" y="52"/>
      <point x="266.666" y="55"/>
      <point x="266.666" y="58.333" type="curve"/>
      <point x="266.999" y="85.666"/>
      <point x="246.333" y="106.333"/>
      <point x="217.667" y="106.333" type="curve" smooth="yes"/>
      <point x="181.333" y="106.333"/>
      <point x="151" y="73.666"/>
    </contour>
  </outline>
</glyph>
<glyph name="at" format="2">
  <advance width="882"/>
  <unicode hex="0040"/>
  <outline>
    <contour>
      <point x="588.667" y="76" type="curve" smooth="yes"/>
      <point x="590.667" y="85.667"/>
      <point x="603.667" y="116"/>
      <point x="614.667" y="142.667" type="curve" smooth="yes"/>
      <point x="724.667" y="398.999" type="line"/>
      <point x="709" y="405.999" type="line"/>
      <point x="660.334" y="386.333" type="line"/>
      <point x="654.334" y="388"/>
      <point x="644" y="388.333"/>
      <point x="626.667" y="383" type="curve"/>
      <point x="624" y="400.333"/>
      <point x="605.334" y="411.666"/>
      <point x="585.334" y="411.666" type="curve" smooth="yes"/>
      <point x="483.334" y="411.666"/>
      <point x="334.334" y="292.666"/>
      <point x="305.334" y="154.667" type="curve" smooth="yes"/>
      <point x="299.667" y="124.667"/>
      <point x="299" y="79.667"/>
      <point x="325" y="52.666" type="curve" smooth="yes"/>
      <point x="340" y="37"/>
      <point x="362.667" y="28"/>
      <point x="397.667" y="28" type="curve" smooth="yes"/>
      <point x="426.667" y="28"/>
      <point x="480.334" y="53.333"/>
      <point x="531.667" y="116.667" type="curve"/>
      <point x="533" y="116" type="line"/>
      <point x="523.667" y="96.333"/>
      <point x="516.334" y="78"/>
      <point x="514.667" y="65.666" type="curve"/>
      <point x="512.334" y="52.333"/>
      <point x="515" y="33.333"/>
      <point x="534" y="31" type="curve"/>
      <point x="546.667" y="27"/>
      <point x="566" y="26.667"/>
      <point x="585.334" y="27.333" type="curve"/>
      <point x="742.667" y="39.333"/>
      <point x="844.334" y="166.333"/>
      <point x="869.667" y="283.666" type="curve" smooth="yes"/>
      <point x="909.667" y="471.333"/>
      <point x="796.667" y="614.333"/>
      <point x="592.667" y="614.333" type="curve" smooth="yes"/>
      <point x="373.334" y="614.333"/>
      <point x="167.667" y="434.666"/>
      <point x="123" y="222.333" type="curve" smooth="yes"/>
      <point x="76" y="4.333"/>
      <point x="193.667" y="-158.667"/>
      <point x="415" y="-158.667" type="curve" smooth="yes"/>
      <point x="523.667" y="-158.667"/>
      <point x="588.667" y="-123.334"/>
      <point x="656" y="-76.334" type="curve"/>
      <point x="645.667" y="-54.667" type="line"/>
      <point x="583.334" y="-100.334"/>
      <point x="517.334" y="-123.667"/>
      <point x="440.667" y="-123.667" type="curve" smooth="yes"/>
      <point x="213.334" y="-123.667"/>
      <point x="175.667" y="70.667"/>
      <point x="201.667" y="218.667" type="curve" smooth="yes"/>
      <point x="203.334" y="229"/>
      <point x="205.667" y="239"/>
      <point x="208" y="249.333" type="curve" smooth="yes"/>
      <point x="262" y="476.333"/>
      <point x="436.667" y="582"/>
      <point x="576.334" y="582" type="curve" smooth="yes"/>
      <point x="691" y="582"/>
      <point x="837" y="485.333"/>
      <point x="792" y="274.333" type="curve" smooth="yes"/>
      <point x="758.667" y="115.667"/>
      <point x="673.667" y="63.333"/>
      <point x="598" y="63.333" type="curve" smooth="yes"/>
      <point x="593.334" y="63.333"/>
      <point x="586.334" y="65"/>
    </contour>
    <contour>
      <point x="614.667" y="317.333" type="curve" smooth="yes"/>
      <point x="608" y="287.333"/>
      <point x="581.667" y="234"/>
      <point x="562.667" y="201.333" type="curve"/>
      <point x="559.334" y="196"/>
      <point x="556.667" y="190.667"/>
      <point x="553.334" y="185.667" type="curve"/>
      <point x="512" y="116.667"/>
      <point x="466.334" y="72.667"/>
      <point x="438" y="71" type="curve"/>
      <point x="437.334" y="70.667"/>
      <point x="436.334" y="70.667"/>
      <point x="435.667" y="70.667" type="curve"/>
      <point x="382" y="70.667"/>
      <point x="379.334" y="115"/>
      <point x="389.334" y="162.667" type="curve" smooth="yes"/>
      <point x="402" y="223.667"/>
      <point x="430.334" y="287"/>
      <point x="485" y="336.666" type="curve"/>
      <point x="489.667" y="340.666"/>
      <point x="494" y="344.666"/>
      <point x="498.667" y="348.333" type="curve" smooth="yes"/>
      <point x="529" y="371.333"/>
      <point x="558.334" y="378.666"/>
      <point x="573" y="379.333" type="curve" smooth="yes"/>
      <point x="579" y="379.666"/>
      <point x="584" y="379"/>
      <point x="588.667" y="378.333" type="curve"/>
      <point x="612.667" y="373.666"/>
      <point x="622" y="350.333"/>
    </contour>
  </outline>
</glyph>
<glyph name="A" format="2">
  <advance width="681"/>
  <unicode hex="0041"/>
  <anchor x="338.667" y="730" name="t.gr"/>
  <anchor x="478" y="740" name="t.uni0302"/>
  <anchor x="306" y="-60" name="b.minus-60"/>
  <anchor x="606.333" y="10" name="b.ogonek"/>
  <outline>
    <contour>
      <point x="8" y="-2" type="curve"/>
      <point x="44" y="-1"/>
      <point x="57.3333" y="0"/>
      <point x="94.3333" y="0" type="curve" smooth="yes"/>
      <point x="133.333" y="0"/>
      <point x="185" y="-1"/>
      <point x="220" y="-2" type="curve"/>
      <point x="227" y="6.66667"/>
      <point x="229.333" y="22"/>
      <point x="225" y="30.6667" type="curve"/>
      <point x="196" y="33.6667" type="line" smooth="yes"/>
      <point x="172" y="36"/>
      <point x="159.667" y="43.3333"/>
      <point x="159.667" y="57.6667" type="curve" smooth="yes"/>
      <point x="159.667" y="63.6667"/>
      <point x="161.333" y="70.3333"/>
      <point x="165.333" y="77" type="curve" smooth="yes"/>
      <point x="247.333" y="222" type="line" smooth="yes"/>
      <point x="254.333" y="235"/>
      <point x="261.333" y="239"/>
      <point x="284.333" y="239" type="curve" smooth="yes"/>
      <point x="478.333" y="239" type="line"/>
      <point x="499.333" y="89" type="line" smooth="yes"/>
      <point x="502.333" y="70"/>
      <point x="503" y="64.3333"/>
      <point x="503" y="60.6667" type="curve" smooth="yes"/>
      <point x="503" y="43.3333"/>
      <point x="487.333" y="37"/>
      <point x="456.667" y="33.6667" type="curve" smooth="yes"/>
      <point x="425.333" y="30.6667" type="line"/>
      <point x="417.333" y="23.3333"/>
      <point x="417" y="3.66667"/>
      <point x="420" y="-2" type="curve"/>
      <point x="460" y="-1"/>
      <point x="516.333" y="0"/>
      <point x="557" y="0" type="curve" smooth="yes"/>
      <point x="597" y="0"/>
      <point x="637" y="-1"/>
      <point x="674.667" y="-2" type="curve"/>
      <point x="681.333" y="6.33333"/>
      <point x="684.333" y="21.3333"/>
      <point x="681" y="30.6667" type="curve"/>
      <point x="661.667" y="33.6667" type="line" smooth="yes"/>
      <point x="627" y="39.3333"/>
      <point x="608" y="51.6667"/>
      <point x="602.333" y="84.6667" type="curve" smooth="yes"/>
      <point x="508.667" y="658" type="line"/>
      <point x="504.333" y="658" type="line"/>
      <point x="495.333" y="651.667"/>
      <point x="454" y="634.667"/>
      <point x="444" y="634.667" type="curve"/>
      <point x="122" y="101" type="line"/>
      <point x="88.3333" y="43.6667"/>
      <point x="60" y="32"/>
      <point x="14.3333" y="30.6667" type="curve"/>
      <point x="7.66667" y="22"/>
      <point x="4.33333" y="7.33333"/>
    </contour>
    <contour>
      <point x="310.333" y="283" type="line" smooth="yes"/>
      <point x="294.333" y="283"/>
      <point x="287" y="285"/>
      <point x="287" y="290" type="curve" smooth="yes"/>
      <point x="287" y="292"/>
      <point x="288" y="294"/>
      <point x="289" y="296" type="curve"/>
      <point x="428.667" y="540" type="line"/>
      <point x="432" y="540" type="line"/>
      <point x="470.333" y="283" type="line"/>
    </contour>
  </outline>
  <guideline angle="99.6337" x="588" y="86"/>
  <guideline angle="238.794" x="437" y="622"/>
  <guideline angle="278.415" x="482" y="241"/>
  <guideline angle="78" x="317" y="3"/>
  <guideline angle="0" x="0" y="740"/>
  <guideline angle="0" x="0" y="724"/>
</glyph>
<glyph name="B" format="2">
  <advance width="572"/>
  <unicode hex="0042"/>
  <anchor x="404.333" y="740" name="t.uni0302"/>
  <anchor x="249.667" y="-60" name="b.minus-60"/>
  <outline>
    <contour>
      <point x="259.667" y="645" type="curve"/>
      <point x="134.333" y="0" type="line"/>
      <point x="153.333" y="0" type="line" smooth="yes"/>
      <point x="190.667" y="0"/>
      <point x="221" y="-2"/>
      <point x="289" y="-2" type="curve" smooth="yes"/>
      <point x="433.333" y="-2"/>
      <point x="576.667" y="61.667"/>
      <point x="576.667" y="223.334" type="curve" smooth="yes"/>
      <point x="576.667" y="293.667"/>
      <point x="533" y="337.334"/>
      <point x="461.667" y="359.667" type="curve"/>
      <point x="462" y="361.667" type="line"/>
      <point x="530.333" y="393.001"/>
      <point x="580.667" y="453.334"/>
      <point x="580.667" y="531.667" type="curve" smooth="yes"/>
      <point x="580.667" y="589.666"/>
      <point x="542.667" y="647"/>
      <point x="394" y="647" type="curve" smooth="yes"/>
      <point x="355.333" y="647"/>
      <point x="297" y="645"/>
    </contour>
    <contour>
      <point x="303" y="567.333" type="line" smooth="yes"/>
      <point x="309" y="599"/>
      <point x="313.667" y="610.333"/>
      <point x="390.333" y="610.333" type="curve" smooth="yes"/>
      <point x="434" y="610.333"/>
      <point x="485.333" y="590.666"/>
      <point x="485.333" y="520" type="curve" smooth="yes"/>
      <point x="485.333" y="425.334"/>
      <point x="426" y="369.334"/>
      <point x="330.333" y="369.334" type="curve" smooth="yes"/>
      <point x="250" y="369.334" type="line"/>
      <point x="243.333" y="332.667" type="line"/>
      <point x="319.333" y="332.667" type="line" smooth="yes"/>
      <point x="398.667" y="332.667"/>
      <point x="471.333" y="302.667"/>
      <point x="471.333" y="213.334" type="curve" smooth="yes"/>
      <point x="471.333" y="91.334"/>
      <point x="394.333" y="34.667"/>
      <point x="274.333" y="34.667" type="curve" smooth="yes"/>
      <point x="222" y="34.667"/>
      <point x="206.667" y="43.667"/>
      <point x="206.667" y="65" type="curve" smooth="yes"/>
      <point x="206.667" y="69.334"/>
      <point x="207" y="74.667"/>
      <point x="208" y="80" type="curve" smooth="yes"/>
    </contour>
    <contour>
      <point x="192" y="0" type="line"/>
      <point x="298.333" y="548" type="line"/>
      <point x="259.667" y="645" type="line"/>
      <point x="210.333" y="645"/>
      <point x="170" y="646"/>
      <point x="136.333" y="647" type="curve"/>
      <point x="133.333" y="644"/>
      <point x="128.333" y="626.666"/>
      <point x="132.333" y="616.333" type="curve"/>
      <point x="184" y="613.666"/>
      <point x="203" y="603.333"/>
      <point x="203" y="578.666" type="curve" smooth="yes"/>
      <point x="203" y="563"/>
      <point x="201.667" y="547.333"/>
      <point x="196.667" y="521.333" type="curve" smooth="yes"/>
      <point x="119.667" y="122" type="line" smooth="yes"/>
      <point x="106.667" y="55.667"/>
      <point x="85.333" y="36"/>
      <point x="16.667" y="28.667" type="curve"/>
      <point x="10.667" y="20"/>
      <point x="6.667" y="5"/>
      <point x="11.667" y="-2" type="curve"/>
      <point x="54" y="-1"/>
      <point x="103.667" y="0"/>
      <point x="138.333" y="0" type="curve" smooth="yes"/>
    </contour>
  </outline>
</glyph>
<glyph name="E" format="2">
  <advance width="543"/>
  <unicode hex="0045"/>
  <anchor x="393" y="740" name="t.uni0302"/>
  <anchor x="239" y="-60" name="b.minus-60"/>
  <anchor x="282.333" y="10" name="b.cedilla"/>
  <anchor x="325" y="10" name="b.ogonek"/>
  <outline>
    <contour>
      <point x="138.334" y="0" type="line"/>
      <point x="355.334" y="0" type="line" smooth="yes"/>
      <point x="401.334" y="0"/>
      <point x="472.334" y="-2"/>
      <point x="480.667" y="-2" type="curve"/>
      <point x="499.334" y="50"/>
      <point x="523" y="111.333"/>
      <point x="545.334" y="165" type="curve"/>
      <point x="539" y="169"/>
      <point x="523" y="171"/>
      <point x="512" y="170" type="curve"/>
      <point x="480" y="100"/>
      <point x="431" y="40"/>
      <point x="361" y="40" type="curve" smooth="yes"/>
      <point x="236.334" y="40" type="line" smooth="yes"/>
      <point x="217.334" y="40"/>
      <point x="206" y="49"/>
      <point x="206" y="67.667" type="curve" smooth="yes"/>
      <point x="206" y="71"/>
      <point x="206" y="74"/>
      <point x="207" y="78" type="curve"/>
    </contour>
    <contour>
      <point x="298.334" y="548" type="line"/>
      <point x="302.334" y="565.333" type="line" smooth="yes"/>
      <point x="308.667" y="592.333"/>
      <point x="322" y="604.333"/>
      <point x="346" y="604.333" type="curve" smooth="yes"/>
      <point x="440" y="604.333" type="line" smooth="yes"/>
      <point x="512" y="604.333"/>
      <point x="522.667" y="565"/>
      <point x="530.667" y="496" type="curve"/>
      <point x="540.667" y="495.333"/>
      <point x="556.001" y="497.333"/>
      <point x="563.334" y="501" type="curve"/>
      <point x="564.334" y="544"/>
      <point x="572.667" y="635.667"/>
      <point x="574.334" y="645" type="curve"/>
      <point x="574.334" y="647"/>
      <point x="573.334" y="649"/>
      <point x="570.334" y="649" type="curve"/>
      <point x="553.334" y="646"/>
      <point x="541" y="645"/>
      <point x="524" y="645" type="curve" smooth="yes"/>
      <point x="259.667" y="645" type="line"/>
      <point x="259.667" y="548" type="line"/>
    </contour>
    <contour>
      <point x="192" y="0" type="line"/>
      <point x="298.334" y="548" type="line"/>
      <point x="259.667" y="645" type="line"/>
      <point x="210.334" y="645"/>
      <point x="170" y="646"/>
      <point x="136.334" y="647" type="curve"/>
      <point x="133.334" y="644"/>
      <point x="128.334" y="626.666"/>
      <point x="132.334" y="616.333" type="curve"/>
      <point x="184" y="613.666"/>
      <point x="203" y="603.333"/>
      <point x="203" y="578.666" type="curve" smooth="yes"/>
      <point x="203" y="563"/>
      <point x="201.667" y="547.333"/>
      <point x="196.667" y="521.333" type="curve" smooth="yes"/>
      <point x="119.667" y="122" type="line" smooth="yes"/>
      <point x="106.667" y="55.667"/>
      <point x="85.334" y="36"/>
      <point x="16.667" y="28.667" type="curve"/>
      <point x="10.667" y="20"/>
      <point x="6.667" y="5"/>
      <point x="11.667" y="-2" type="curve"/>
      <point x="54" y="-1"/>
      <point x="103.667" y="0"/>
      <point x="138.334" y="0" type="curve" smooth="yes"/>
    </contour>
    <contour>
      <point x="370.334" y="363" type="curve" smooth="yes"/>
      <point x="248" y="363" type="line"/>
      <point x="239.334" y="321" type="line"/>
      <point x="361.667" y="321" type="line" smooth="yes"/>
      <point x="397.667" y="321"/>
      <point x="413" y="301.333"/>
      <point x="413" y="264.333" type="curve" smooth="yes"/>
      <point x="413" y="254.333" type="line"/>
      <point x="422.334" y="250.333"/>
      <point x="439.667" y="251.667"/>
      <point x="447.667" y="257" type="curve"/>
      <point x="455" y="316.333"/>
      <point x="466.667" y="375.667"/>
      <point x="481.667" y="433.667" type="curve"/>
      <point x="475" y="437.667"/>
      <point x="452.667" y="437.667"/>
      <point x="446" y="433.667" type="curve"/>
      <point x="431" y="377.333"/>
      <point x="418.334" y="363"/>
    </contour>
  </outline>
</glyph>
<glyph name="F" format="2">
  <advance width="477"/>
  <unicode hex="0046"/>
  <anchor x="393.333" y="740" name="t.uni0302"/>
  <anchor x="239" y="-60" name="b.minus-60"/>
  <outline>
    <contour>
      <point x="159" y="120" type="line"/>
      <point x="215" y="120" type="line"/>
      <point x="301.667" y="565.333" type="line" smooth="yes"/>
      <point x="306.333" y="587.667"/>
      <point x="320.333" y="601"/>
      <point x="341.667" y="603.333" type="curve"/>
      <point x="447.333" y="604" type="line"/>
      <point x="514" y="601.667"/>
      <point x="524.333" y="561.333"/>
      <point x="532" y="494.333" type="curve"/>
      <point x="542" y="495"/>
      <point x="555.333" y="496.333"/>
      <point x="564.667" y="499.333" type="curve"/>
      <point x="567.667" y="540.333"/>
      <point x="576" y="638"/>
      <point x="576" y="646" type="curve" smooth="yes"/>
      <point x="576" y="648"/>
      <point x="575.333" y="649"/>
      <point x="573" y="649" type="curve"/>
      <point x="555.333" y="646"/>
      <point x="549.333" y="645"/>
      <point x="526.333" y="645" type="curve" smooth="yes"/>
      <point x="259.667" y="645" type="line"/>
    </contour>
    <contour>
      <point x="192" y="0" type="line"/>
      <point x="298.333" y="548" type="line"/>
      <point x="259.667" y="645" type="line"/>
      <point x="210.333" y="645"/>
      <point x="170" y="646"/>
      <point x="136.333" y="647" type="curve"/>
      <point x="133.333" y="644"/>
      <point x="128.333" y="626.667"/>
      <point x="132.333" y="616.333" type="curve" name=".hr01"/>
      <point x="184" y="613.667"/>
      <point x="203" y="603.333" name=".hr02"/>
      <point x="203" y="578.667" type="curve" smooth="yes"/>
      <point x="203" y="563"/>
      <point x="201.667" y="547.333"/>
      <point x="196.667" y="521.333" type="curve" smooth="yes"/>
      <point x="119.667" y="122" type="line" smooth="yes"/>
      <point x="106.667" y="55.6667"/>
      <point x="85.3333" y="36"/>
      <point x="16.6667" y="28.6667" type="curve"/>
      <point x="10.6667" y="20"/>
      <point x="6.66667" y="5"/>
      <point x="11.6667" y="-2" type="curve"/>
      <point x="54" y="-1"/>
      <point x="103.667" y="0"/>
      <point x="138.333" y="0" type="curve" smooth="yes"/>
    </contour>
    <contour>
      <point x="136" y="0" type="line"/>
      <point x="152.333" y="0" type="line" smooth="yes"/>
      <point x="188.333" y="0"/>
      <point x="238" y="-1"/>
      <point x="277.333" y="-2" type="curve"/>
      <point x="282.667" y="1.66667"/>
      <point x="288.333" y="25.3333"/>
      <point x="283" y="27.3333" type="curve"/>
      <point x="228" y="30.6667"/>
      <point x="209" y="43"/>
      <point x="209" y="76.6667" type="curve" smooth="yes"/>
      <point x="209" y="87.6667"/>
      <point x="211.667" y="102.667"/>
      <point x="215" y="120" type="curve"/>
      <point x="159" y="120" type="line"/>
    </contour>
    <contour>
      <point x="370.333" y="363" type="curve" smooth="yes"/>
      <point x="248" y="363" type="line"/>
      <point x="239.333" y="321" type="line"/>
      <point x="361.667" y="321" type="line" smooth="yes"/>
      <point x="397.667" y="321"/>
      <point x="413" y="301.333"/>
      <point x="413" y="264.333" type="curve" smooth="yes"/>
      <point x="413" y="254.333" type="line"/>
      <point x="422.333" y="250.333"/>
      <point x="439.667" y="251.667"/>
      <point x="447.667" y="257" type="curve"/>
      <point x="455" y="316.333"/>
      <point x="466.667" y="375.667"/>
      <point x="481.667" y="433.667" type="curve"/>
      <point x="475" y="437.667"/>
      <point x="452.667" y="437.667"/>
      <point x="446" y="433.667" type="curve"/>
      <point x="431" y="377.333"/>
      <point x="418.333" y="363"/>
    </contour>
  </outline>
  <guideline angle="0" x="0" y="120"/>
  <guideline angle="0" x="0" y="740"/>
  <guideline angle="259.216" x="251" y="645"/>
  <guideline angle="259.077" x="343" y="521"/>
</glyph>
<glyph name="H" format="2">
  <advance width="681"/>
  <unicode hex="0048"/>
  <anchor x="481.667" y="740" name="t.uni0302"/>
  <anchor x="325" y="-60" name="b.minus-60"/>
  <anchor x="153" y="10" name="b.cedilla"/>
  <outline>
    <contour>
      <point x="593.333" y="562.666" type="curve" smooth="yes"/>
      <point x="554.666" y="364.333" type="line"/>
      <point x="263" y="364.333" type="line"/>
      <point x="301.333" y="562.666" type="line" smooth="yes"/>
      <point x="308.666" y="600"/>
      <point x="337.666" y="612"/>
      <point x="393.666" y="616.333" type="curve"/>
      <point x="400" y="621"/>
      <point x="402.666" y="639"/>
      <point x="397.333" y="647" type="curve"/>
      <point x="358.333" y="646"/>
      <point x="314" y="645"/>
      <point x="280" y="645" type="curve" smooth="yes"/>
      <point x="257.333" y="645" type="line"/>
      <point x="132.666" y="0" type="line"/>
      <point x="138" y="0"/>
      <point x="149.666" y="0"/>
      <point x="155.333" y="0" type="curve" smooth="yes"/>
      <point x="190.666" y="0"/>
      <point x="239.333" y="-1"/>
      <point x="277.333" y="-2" type="curve"/>
      <point x="283" y="2.666"/>
      <point x="286" y="23.333"/>
      <point x="281.333" y="28.666" type="curve"/>
      <point x="235.333" y="32.666"/>
      <point x="201" y="47.333"/>
      <point x="211.333" y="100.666" type="curve" smooth="yes"/>
      <point x="253.666" y="320.333" type="line"/>
      <point x="545.333" y="320.333" type="line"/>
      <point x="502" y="100.666" type="line" smooth="yes"/>
      <point x="493" y="54"/>
      <point x="483.333" y="36"/>
      <point x="406.333" y="28.666" type="curve"/>
      <point x="400" y="24"/>
      <point x="397.333" y="6"/>
      <point x="402.666" y="-2" type="curve"/>
      <point x="441.666" y="-1"/>
      <point x="486.666" y="0"/>
      <point x="520.666" y="0" type="curve" smooth="yes"/>
      <point x="537.333" y="0" type="line" smooth="yes"/>
      <point x="575.666" y="0"/>
      <point x="625" y="-1"/>
      <point x="665.333" y="-2" type="curve"/>
      <point x="671" y="2.666"/>
      <point x="674" y="23.333"/>
      <point x="669.333" y="28.666" type="curve"/>
      <point x="618" y="32.666"/>
      <point x="588.333" y="48"/>
      <point x="598.666" y="100.666" type="curve" smooth="yes"/>
      <point x="689.333" y="562" type="line" smooth="yes"/>
      <point x="696.666" y="600"/>
      <point x="720.666" y="612"/>
      <point x="780.666" y="616.333" type="curve"/>
      <point x="787" y="621"/>
      <point x="789.666" y="639"/>
      <point x="784.333" y="647" type="curve"/>
      <point x="743" y="646"/>
      <point x="701" y="645"/>
      <point x="662" y="645" type="curve" smooth="yes"/>
      <point x="645.333" y="645" type="line" smooth="yes"/>
      <point x="610" y="645"/>
      <point x="560.666" y="646"/>
      <point x="522.666" y="647" type="curve"/>
      <point x="517" y="642.333"/>
      <point x="513.666" y="621.666"/>
      <point x="518.333" y="616.333" type="curve"/>
      <point x="574.666" y="611.666"/>
      <point x="599.666" y="594.666"/>
    </contour>
    <contour>
      <point x="192" y="0" type="line"/>
      <point x="298.333" y="548" type="line"/>
      <point x="259.667" y="645" type="line"/>
      <point x="210.333" y="645"/>
      <point x="170" y="646"/>
      <point x="136.333" y="647" type="curve"/>
      <point x="133.333" y="644"/>
      <point x="128.333" y="626.666"/>
      <point x="132.333" y="616.333" type="curve"/>
      <point x="184" y="613.666"/>
      <point x="203" y="603.333"/>
      <point x="203" y="578.666" type="curve" smooth="yes"/>
      <point x="203" y="563"/>
      <point x="201.667" y="547.333"/>
      <point x="196.667" y="521.333" type="curve" smooth="yes"/>
      <point x="119.667" y="122" type="line" smooth="yes"/>
      <point x="106.667" y="55.666"/>
      <point x="85.333" y="36"/>
      <point x="16.667" y="28.666" type="curve"/>
      <point x="10.667" y="20"/>
      <point x="6.667" y="5"/>
      <point x="11.667" y="-2" type="curve"/>
      <point x="54" y="-1"/>
      <point x="103.667" y="0"/>
      <point x="138.333" y="0" type="curve" smooth="yes"/>
    </contour>
  </outline>
</glyph>
<glyph name="I" format="2">
  <advance width="294"/>
  <unicode hex="0049"/>
  <anchor x="294" y="740" name="t.uni0302"/>
  <anchor x="202.667" y="10" name="b.ogonek"/>
  <anchor x="136" y="-60" name="b.minus-60"/>
  <outline>
    <contour>
      <point x="135" y="0" type="line"/>
      <point x="170.333" y="0"/>
      <point x="241" y="-1"/>
      <point x="279" y="-2" type="curve"/>
      <point x="284.667" y="2.66667"/>
      <point x="287.667" y="23.3333"/>
      <point x="283" y="28.6667" type="curve"/>
      <point x="219.667" y="34.3333"/>
      <point x="200.667" y="42.6667"/>
      <point x="217" y="126.667" type="curve" smooth="yes"/>
      <point x="295" y="530.333" type="line" smooth="yes"/>
      <point x="306.667" y="590.333"/>
      <point x="319" y="609"/>
      <point x="394" y="616.333" type="curve"/>
      <point x="400.333" y="621"/>
      <point x="403" y="639"/>
      <point x="397.667" y="647" type="curve"/>
      <point x="356.333" y="646"/>
      <point x="315.333" y="645"/>
      <point x="276.333" y="645" type="curve" smooth="yes"/>
      <point x="259.667" y="645" type="line"/>
    </contour>
    <contour>
      <point x="192" y="0" type="line"/>
      <point x="298.333" y="548" type="line"/>
      <point x="259.667" y="645" type="line"/>
      <point x="210.333" y="645"/>
      <point x="170" y="646"/>
      <point x="136.333" y="647" type="curve"/>
      <point x="133.333" y="644"/>
      <point x="128.333" y="626.667"/>
      <point x="132.333" y="616.333" type="curve"/>
      <point x="184" y="613.667"/>
      <point x="203" y="603.333"/>
      <point x="203" y="578.667" type="curve" smooth="yes"/>
      <point x="203" y="563"/>
      <point x="201.667" y="547.333"/>
      <point x="196.667" y="521.333" type="curve" smooth="yes"/>
      <point x="119.667" y="122" type="line" smooth="yes"/>
      <point x="106.667" y="55.6667"/>
      <point x="85.3333" y="36"/>
      <point x="16.6667" y="28.6667" type="curve"/>
      <point x="10.6667" y="20"/>
      <point x="6.66667" y="5"/>
      <point x="11.6667" y="-2" type="curve"/>
      <point x="54" y="-1"/>
      <point x="103.667" y="0"/>
      <point x="138.333" y="0" type="curve" smooth="yes"/>
    </contour>
  </outline>
  <guideline angle="258.69" x="251" y="645"/>
</glyph>
<glyph name="K" format="2">
  <advance width="639"/>
  <unicode hex="004B"/>
  <anchor x="461.333" y="740" name="t.uni0302"/>
  <anchor x="305.667" y="-60" name="b.minus-60"/>
  <outline>
    <contour>
      <point x="133.666" y="0" type="line"/>
      <point x="153" y="0" type="line" smooth="yes"/>
      <point x="189" y="0"/>
      <point x="239" y="-1"/>
      <point x="277.666" y="-2" type="curve"/>
      <point x="283.333" y="2.666"/>
      <point x="286.333" y="23.333"/>
      <point x="281.666" y="28.666" type="curve"/>
      <point x="231.333" y="33"/>
      <point x="206.666" y="41.333"/>
      <point x="206.666" y="69.666" type="curve" smooth="yes"/>
      <point x="206.666" y="76"/>
      <point x="207.333" y="83"/>
      <point x="209" y="91.333" type="curve" smooth="yes"/>
      <point x="299.666" y="553.666" type="line" smooth="yes"/>
      <point x="308.666" y="598"/>
      <point x="334" y="612.333"/>
      <point x="394" y="616.333" type="curve"/>
      <point x="400.333" y="621"/>
      <point x="403" y="639"/>
      <point x="397.666" y="647" type="curve"/>
      <point x="358" y="646"/>
      <point x="313" y="645"/>
      <point x="277.666" y="645" type="curve" smooth="yes"/>
      <point x="258.333" y="645" type="line"/>
    </contour>
    <contour>
      <point x="234" y="308" type="line"/>
      <point x="276.666" y="311.666"/>
      <point x="300.333" y="302.333"/>
      <point x="318.333" y="271" type="curve" smooth="yes"/>
      <point x="432.666" y="73.333" type="line" smooth="yes"/>
      <point x="444.333" y="53.333"/>
      <point x="453.666" y="24"/>
      <point x="453.666" y="6.666" type="curve" smooth="yes"/>
      <point x="453.666" y="3.666"/>
      <point x="456.333" y="-0.667"/>
      <point x="461" y="-2" type="curve"/>
      <point x="475.666" y="-1"/>
      <point x="493" y="0"/>
      <point x="517" y="0" type="curve" smooth="yes"/>
      <point x="544.333" y="0" type="line" smooth="yes"/>
      <point x="570" y="0"/>
      <point x="594" y="-0.667"/>
      <point x="627" y="-2" type="curve"/>
      <point x="632.333" y="3"/>
      <point x="637" y="19.333"/>
      <point x="632.333" y="27.333" type="curve"/>
      <point x="593.666" y="33.666"/>
      <point x="579" y="42"/>
      <point x="559" y="73.333" type="curve" smooth="yes"/>
      <point x="399" y="333" type="line" smooth="yes"/>
      <point x="393.333" y="342"/>
      <point x="387.666" y="353.333"/>
      <point x="387.666" y="360.666" type="curve" smooth="yes"/>
      <point x="387.666" y="370.666"/>
      <point x="395.333" y="382"/>
      <point x="412.666" y="397" type="curve" smooth="yes"/>
      <point x="591" y="553.666" type="line" smooth="yes"/>
      <point x="641.666" y="598"/>
      <point x="680" y="610.666"/>
      <point x="724.666" y="616.333" type="curve"/>
      <point x="734" y="620.666"/>
      <point x="738" y="639.333"/>
      <point x="735.333" y="647" type="curve"/>
      <point x="694.333" y="646"/>
      <point x="683" y="645"/>
      <point x="652.333" y="645" type="curve" smooth="yes"/>
      <point x="637.666" y="645" type="line" smooth="yes"/>
      <point x="600.666" y="645"/>
      <point x="572" y="645.333"/>
      <point x="529" y="647" type="curve"/>
      <point x="524.666" y="643.667"/>
      <point x="520.333" y="625"/>
      <point x="523.333" y="617.666" type="curve"/>
      <point x="556.333" y="615"/>
      <point x="569.666" y="609"/>
      <point x="569.666" y="598.333" type="curve" smooth="yes"/>
      <point x="569.666" y="587.666"/>
      <point x="558" y="572.333"/>
      <point x="531.333" y="549.666" type="curve" smooth="yes"/>
      <point x="336.333" y="382.666" type="line" smooth="yes"/>
      <point x="309.333" y="359.666"/>
      <point x="283.666" y="346.666"/>
      <point x="245" y="348" type="curve"/>
    </contour>
    <contour>
      <point x="192" y="0" type="line"/>
      <point x="298.333" y="548" type="line"/>
      <point x="259.667" y="645" type="line"/>
      <point x="210.333" y="645"/>
      <point x="170" y="646"/>
      <point x="136.333" y="647" type="curve"/>
      <point x="133.333" y="644"/>
      <point x="128.333" y="626.666"/>
      <point x="132.333" y="616.333" type="curve"/>
      <point x="184" y="613.666"/>
      <point x="203" y="603.333"/>
      <point x="203" y="578.666" type="curve" smooth="yes"/>
      <point x="203" y="563"/>
      <point x="201.667" y="547.333"/>
      <point x="196.667" y="521.333" type="curve" smooth="yes"/>
      <point x="119.667" y="122" type="line" smooth="yes"/>
      <point x="106.667" y="55.666"/>
      <point x="85.333" y="36"/>
      <point x="16.667" y="28.666" type="curve"/>
      <point x="10.667" y="20"/>
      <point x="6.667" y="5"/>
      <point x="11.667" y="-2" type="curve"/>
      <point x="54" y="-1"/>
      <point x="103.667" y="0"/>
      <point x="138.333" y="0" type="curve" smooth="yes"/>
    </contour>
  </outline>
</glyph>
<glyph name="L" format="2">
  <advance width="530"/>
  <unicode hex="004C"/>
  <anchor x="423.333" y="740" name="t.uni0302"/>
  <anchor x="240" y="-60" name="b.minus-60"/>
  <outline>
    <contour>
      <point x="334.333" y="40" type="curve" smooth="yes"/>
      <point x="251.333" y="40" type="line" smooth="yes"/>
      <point x="219.667" y="40"/>
      <point x="205" y="65"/>
      <point x="211.667" y="99.667" type="curve" smooth="yes"/>
      <point x="295" y="528.333" type="line" smooth="yes"/>
      <point x="308.333" y="596.333"/>
      <point x="322.667" y="609.333"/>
      <point x="394.667" y="616.333" type="curve"/>
      <point x="401" y="621"/>
      <point x="403.667" y="639"/>
      <point x="398.333" y="647" type="curve"/>
      <point x="346" y="646"/>
      <point x="315" y="645"/>
      <point x="281" y="645" type="curve" smooth="yes"/>
      <point x="256.667" y="645" type="line"/>
      <point x="132.667" y="0" type="line"/>
      <point x="139" y="0"/>
      <point x="152" y="0"/>
      <point x="157.667" y="0" type="curve" smooth="yes"/>
      <point x="346" y="0" type="line" smooth="yes"/>
      <point x="378.333" y="0"/>
      <point x="445.667" y="-1.667"/>
      <point x="466.667" y="-2" type="curve"/>
      <point x="482" y="54"/>
      <point x="503" y="111.667"/>
      <point x="524.333" y="163.667" type="curve"/>
      <point x="517.667" y="169.333"/>
      <point x="503" y="172"/>
      <point x="492.333" y="170" type="curve"/>
      <point x="462.667" y="105.334"/>
      <point x="416.667" y="40"/>
    </contour>
    <contour>
      <point x="192" y="0" type="line"/>
      <point x="298.333" y="548" type="line"/>
      <point x="259.667" y="645" type="line"/>
      <point x="210.333" y="645"/>
      <point x="170" y="646"/>
      <point x="136.333" y="647" type="curve"/>
      <point x="133.333" y="644"/>
      <point x="128.333" y="626.667"/>
      <point x="132.333" y="616.333" type="curve"/>
      <point x="184" y="613.667"/>
      <point x="203" y="603.333"/>
      <point x="203" y="578.667" type="curve" smooth="yes"/>
      <point x="203" y="563"/>
      <point x="201.667" y="547.333"/>
      <point x="196.667" y="521.333" type="curve" smooth="yes"/>
      <point x="119.667" y="122" type="line" smooth="yes"/>
      <point x="106.667" y="55.667"/>
      <point x="85.333" y="36"/>
      <point x="16.667" y="28.667" type="curve"/>
      <point x="10.667" y="20"/>
      <point x="6.667" y="5"/>
      <point x="11.667" y="-2" type="curve"/>
      <point x="54" y="-1"/>
      <point x="103.667" y="0"/>
      <point x="138.333" y="0" type="curve" smooth="yes"/>
    </contour>
  </outline>
</glyph>
<glyph name="M" format="2">
  <advance width="823"/>
  <unicode hex="004D"/>
  <anchor x="540.333" y="740" name="t.uni0302"/>
  <anchor x="372.333" y="-60" name="b.minus-60"/>
  <outline>
    <contour>
      <point x="656.334" y="96.667" type="line" smooth="yes"/>
      <point x="652.001" y="63"/>
      <point x="642.001" y="36.667"/>
      <point x="619.001" y="32.667" type="curve"/>
      <point x="609.334" y="30"/>
      <point x="598.667" y="29.667"/>
      <point x="584.334" y="28.667" type="curve"/>
      <point x="580.667" y="27.667"/>
      <point x="576.334" y="23.334"/>
      <point x="575.334" y="17.667" type="curve"/>
      <point x="574.001" y="11.333"/>
      <point x="574.334" y="4.333"/>
      <point x="574.334" y="-0.667" type="curve"/>
      <point x="575.667" y="-2" type="line"/>
      <point x="619.001" y="-1"/>
      <point x="660.001" y="0"/>
      <point x="691.334" y="0" type="curve" smooth="yes"/>
      <point x="694.001" y="0"/>
      <point x="696.001" y="0"/>
      <point x="697.667" y="0" type="curve" smooth="yes"/>
      <point x="726.667" y="0"/>
      <point x="764.001" y="-1"/>
      <point x="804.667" y="-2" type="curve"/>
      <point x="806.667" y="-0.333"/>
      <point x="807.334" y="2"/>
      <point x="808.667" y="5" type="curve"/>
      <point x="810.001" y="17.667" type="line"/>
      <point x="811.001" y="22"/>
      <point x="810.334" y="25.667"/>
      <point x="808.001" y="27.334" type="curve"/>
      <point x="803.001" y="28.334"/>
      <point x="797.667" y="29"/>
      <point x="792.667" y="29.334" type="curve" smooth="yes"/>
      <point x="775.334" y="30.667" type="line"/>
      <point x="753.667" y="33"/>
      <point x="747.001" y="43.334"/>
      <point x="746.001" y="61.667" type="curve" smooth="yes"/>
      <point x="745.667" y="68.334"/>
      <point x="746.334" y="75.667"/>
      <point x="747.001" y="84.667" type="curve"/>
      <point x="748.001" y="94.334"/>
      <point x="749.334" y="104.667"/>
      <point x="750.667" y="116.334" type="curve" smooth="yes"/>
      <point x="805.001" y="545.333" type="line" smooth="yes"/>
      <point x="806.001" y="555"/>
      <point x="807.001" y="564"/>
      <point x="808.334" y="572.666" type="curve" smooth="yes"/>
      <point x="812.334" y="597.666"/>
      <point x="824.334" y="610.666"/>
      <point x="852.667" y="613.666" type="curve"/>
      <point x="870.001" y="615" type="line"/>
      <point x="875.001" y="615.666"/>
      <point x="880.001" y="616"/>
      <point x="886.334" y="617" type="curve"/>
      <point x="889.001" y="618.666"/>
      <point x="891.001" y="622.333"/>
      <point x="891.667" y="626.666" type="curve" smooth="yes"/>
      <point x="892.667" y="633.667"/>
      <point x="892.667" y="640"/>
      <point x="892.334" y="645.667" type="curve"/>
      <point x="891.001" y="647" type="line"/>
      <point x="742.667" y="646.333" type="line"/>
      <point x="455.667" y="166.667" type="line" smooth="yes"/>
      <point x="450" y="157.667"/>
      <point x="446.667" y="152.334"/>
      <point x="443.667" y="149.667" type="curve"/>
      <point x="441" y="149.667"/>
      <point x="440" y="152.334"/>
      <point x="438.667" y="158.334" type="curve"/>
      <point x="345" y="645.667" type="line"/>
      <point x="183.334" y="647" type="line"/>
      <point x="181.667" y="645.333"/>
      <point x="180.667" y="643"/>
      <point x="179.667" y="640" type="curve"/>
      <point x="178.334" y="626.666" type="line"/>
      <point x="177.667" y="623"/>
      <point x="178" y="619.333"/>
      <point x="179.334" y="617.666" type="curve"/>
      <point x="185" y="616.666"/>
      <point x="190" y="616"/>
      <point x="194.667" y="615.333" type="curve"/>
      <point x="212.667" y="614" type="line" smooth="yes"/>
      <point x="233.667" y="612"/>
      <point x="242.334" y="606.666"/>
      <point x="243.334" y="593.333" type="curve" smooth="yes"/>
      <point x="243.667" y="587.666"/>
      <point x="242.667" y="581"/>
      <point x="240.667" y="572.666" type="curve" smooth="yes"/>
      <point x="238.667" y="563.333"/>
      <point x="235.667" y="554"/>
      <point x="233" y="543" type="curve"/>
      <point x="109" y="115" type="line"/>
      <point x="106.667" y="105"/>
      <point x="103.334" y="96"/>
      <point x="101" y="87" type="curve"/>
      <point x="92.667" y="59.667"/>
      <point x="79.334" y="35.667"/>
      <point x="51" y="31.667" type="curve"/>
      <point x="33.667" y="30.334" type="line"/>
      <point x="29" y="29.667"/>
      <point x="24.334" y="28.334"/>
      <point x="19.334" y="27.334" type="curve"/>
      <point x="17.667" y="25.667"/>
      <point x="16" y="22"/>
      <point x="14.667" y="17.667" type="curve"/>
      <point x="13.667" y="11.333"/>
      <point x="13.667" y="4.333"/>
      <point x="13.667" y="-0.667" type="curve"/>
      <point x="15" y="-2" type="line"/>
      <point x="39.334" y="-1"/>
      <point x="65.667" y="-0.667"/>
      <point x="86.667" y="0" type="curve"/>
      <point x="91.334" y="0"/>
      <point x="95.334" y="0"/>
      <point x="99.334" y="0" type="curve" smooth="yes"/>
      <point x="122.334" y="0"/>
      <point x="166" y="-1"/>
      <point x="194.334" y="-2" type="curve"/>
      <point x="196.334" y="-0.667" type="line"/>
      <point x="197.667" y="4.333"/>
      <point x="199.334" y="11.333"/>
      <point x="199.667" y="17.667" type="curve"/>
      <point x="200.334" y="22"/>
      <point x="199.667" y="25.667"/>
      <point x="198" y="27.334" type="curve"/>
      <point x="193.334" y="28.334"/>
      <point x="188.667" y="29.667"/>
      <point x="184" y="30.667" type="curve"/>
      <point x="168" y="32" type="line"/>
      <point x="150" y="34.667"/>
      <point x="143" y="46.667"/>
      <point x="142.334" y="62.667" type="curve" smooth="yes"/>
      <point x="142" y="72.667"/>
      <point x="144" y="85"/>
      <point x="148" y="98.334" type="curve" smooth="yes"/>
      <point x="264.667" y="515.333" type="line"/>
      <point x="267.334" y="515.333" type="line"/>
      <point x="363" y="5" type="line"/>
      <point x="364.667" y="-2"/>
      <point x="371.334" y="-6.667"/>
      <point x="377.334" y="-6.667" type="curve" smooth="yes"/>
      <point x="382.667" y="-6.667"/>
      <point x="389" y="-3.333"/>
      <point x="394" y="5" type="curve" smooth="yes"/>
      <point x="713.001" y="534" type="line"/>
      <point x="715.001" y="534" type="line"/>
    </contour>
  </outline>
</glyph>
<glyph name="N" format="2">
  <advance width="680"/>
  <unicode hex="004E"/>
  <anchor x="463.333" y="740" name="t.uni0302"/>
  <anchor x="313" y="-60" name="b.minus-60"/>
  <outline>
    <contour>
      <point x="593.334" y="14" type="curve"/>
      <point x="596.667" y="32"/>
      <point x="603.667" y="74.334"/>
      <point x="609.001" y="102.667" type="curve" smooth="yes"/>
      <point x="689.001" y="514.666" type="line" smooth="yes"/>
      <point x="692.334" y="531.333"/>
      <point x="695.334" y="545.666"/>
      <point x="699.001" y="559.333" type="curve" smooth="yes"/>
      <point x="706.334" y="588.333"/>
      <point x="723.334" y="609"/>
      <point x="756.334" y="613" type="curve"/>
      <point x="766.334" y="614.666"/>
      <point x="777.001" y="615"/>
      <point x="788.667" y="616.333" type="curve"/>
      <point x="792.001" y="617.333"/>
      <point x="797.001" y="621.666"/>
      <point x="797.334" y="627.333" type="curve"/>
      <point x="798.667" y="633.667"/>
      <point x="798.667" y="640.667"/>
      <point x="798.334" y="645.667" type="curve"/>
      <point x="797.001" y="647" type="line"/>
      <point x="751.334" y="646"/>
      <point x="721.001" y="645"/>
      <point x="691.667" y="645" type="curve" smooth="yes"/>
      <point x="660.667" y="645"/>
      <point x="625.667" y="646"/>
      <point x="579.667" y="647" type="curve"/>
      <point x="578.001" y="645.333"/>
      <point x="577.001" y="643"/>
      <point x="575.667" y="640" type="curve"/>
      <point x="574.667" y="633.667"/>
      <point x="574.001" y="626.666"/>
      <point x="574.001" y="621.666" type="curve"/>
      <point x="576.001" y="618.666"/>
      <point x="584.001" y="615.666"/>
      <point x="589.334" y="615.333" type="curve"/>
      <point x="597.001" y="614.333"/>
      <point x="604.334" y="614"/>
      <point x="611.334" y="613" type="curve"/>
      <point x="639.667" y="610"/>
      <point x="650.334" y="593.333"/>
      <point x="650.334" y="569.666" type="curve" smooth="yes"/>
      <point x="650.334" y="566.333"/>
      <point x="649.667" y="563"/>
      <point x="649.001" y="559.666" type="curve"/>
      <point x="647.001" y="546.666"/>
      <point x="645.001" y="531.666"/>
      <point x="641.334" y="515.333" type="curve"/>
      <point x="584.667" y="222.333" type="line"/>
      <point x="579.334" y="195.667" type="line" smooth="yes"/>
      <point x="576.001" y="180"/>
      <point x="574.001" y="171"/>
      <point x="569.001" y="170.334" type="curve"/>
      <point x="564.334" y="169"/>
      <point x="559.334" y="174.334"/>
      <point x="553.001" y="184" type="curve" smooth="yes"/>
      <point x="549.001" y="190"/>
      <point x="544.334" y="199.333"/>
      <point x="537.001" y="211.333" type="curve"/>
      <point x="356" y="528.666" type="line"/>
      <point x="288.667" y="646.333" type="line"/>
      <point x="146" y="647" type="line"/>
      <point x="144" y="645.667" type="line"/>
      <point x="141" y="639.667"/>
      <point x="139.334" y="627.666"/>
      <point x="140.334" y="621.666" type="curve"/>
      <point x="143" y="618"/>
      <point x="150.334" y="616.333"/>
      <point x="157" y="614.666" type="curve"/>
      <point x="186.667" y="609"/>
      <point x="205.334" y="574.333"/>
      <point x="206.334" y="550" type="curve"/>
      <point x="124.667" y="129.667" type="line" smooth="yes"/>
      <point x="121.334" y="113.667"/>
      <point x="118.334" y="98.667"/>
      <point x="114.667" y="85.667" type="curve" smooth="yes"/>
      <point x="107.334" y="58.667"/>
      <point x="90.667" y="36"/>
      <point x="56.334" y="32" type="curve"/>
      <point x="47" y="30.334"/>
      <point x="36.334" y="30"/>
      <point x="25.334" y="28.667" type="curve"/>
      <point x="18.334" y="27"/>
      <point x="14.667" y="22.667"/>
      <point x="13.667" y="17" type="curve"/>
      <point x="12.334" y="10.667"/>
      <point x="12.667" y="4.333"/>
      <point x="12.667" y="-0.667" type="curve"/>
      <point x="14" y="-2" type="line"/>
      <point x="55" y="-1"/>
      <point x="84" y="0"/>
      <point x="114.667" y="0" type="curve" smooth="yes"/>
      <point x="123.334" y="0" type="line" smooth="yes"/>
      <point x="154.334" y="0"/>
      <point x="185" y="-1"/>
      <point x="231" y="-2" type="curve"/>
      <point x="233" y="-0.333"/>
      <point x="234" y="2"/>
      <point x="235" y="5" type="curve"/>
      <point x="236.334" y="17.667" type="line"/>
      <point x="237.667" y="22"/>
      <point x="237" y="25.667"/>
      <point x="235.334" y="27.334" type="curve"/>
      <point x="232" y="29"/>
      <point x="228.667" y="29.334"/>
      <point x="224.667" y="29.667" type="curve"/>
      <point x="217" y="30.667"/>
      <point x="209" y="31"/>
      <point x="202" y="32" type="curve"/>
      <point x="175" y="35"/>
      <point x="163" y="51"/>
      <point x="163" y="75.334" type="curve" smooth="yes"/>
      <point x="163" y="78.667"/>
      <point x="163.667" y="82"/>
      <point x="164.334" y="85.334" type="curve"/>
      <point x="166.334" y="98.334"/>
      <point x="168.667" y="112.667"/>
      <point x="172" y="129" type="curve" smooth="yes"/>
      <point x="231.334" y="436" type="line" smooth="yes"/>
      <point x="236.667" y="462"/>
      <point x="241.334" y="475.333"/>
      <point x="248" y="475.333" type="curve" smooth="yes"/>
      <point x="252" y="475.333"/>
      <point x="257.334" y="469.666"/>
      <point x="264.667" y="458.667" type="curve"/>
      <point x="266.667" y="455.333"/>
      <point x="269.334" y="451.333"/>
      <point x="272" y="446.667" type="curve" smooth="yes"/>
      <point x="513.001" y="32" type="line" smooth="yes"/>
      <point x="516.667" y="25.334"/>
      <point x="521.001" y="18.667"/>
      <point x="524.334" y="12.333" type="curve" smooth="yes"/>
      <point x="532.001" y="-2"/>
      <point x="541.667" y="-10.667"/>
      <point x="552.334" y="-10.667" type="curve" smooth="yes"/>
      <point x="572.334" y="-10.667"/>
      <point x="584.334" y="-1.667"/>
    </contour>
  </outline>
</glyph>
<glyph name="P" format="2">
  <advance width="523"/>
  <unicode hex="0050"/>
  <anchor x="362.333" y="740" name="t.uni0302"/>
  <anchor x="138.333" y="-60" name="b.minus-60"/>
  <outline>
    <contour>
      <point x="405.667" y="655.333" type="curve" smooth="yes"/>
      <point x="370" y="655.333"/>
      <point x="309.667" y="645" name=".hr01"/>
      <point x="264.667" y="645" type="curve" smooth="yes"/>
      <point x="255.333" y="645" type="line"/>
      <point x="128" y="0" type="line"/>
      <point x="166" y="0"/>
      <point x="237.667" y="-1"/>
      <point x="280.333" y="-2" type="curve"/>
      <point x="284.667" y="0.666667"/>
      <point x="290.333" y="20"/>
      <point x="284.333" y="28.6667" type="curve"/>
      <point x="229.667" y="35.3333"/>
      <point x="201" y="46.6667"/>
      <point x="208.333" y="85" type="curve" smooth="yes"/>
      <point x="293.667" y="522.667" type="line" smooth="yes"/>
      <point x="308.667" y="598.667"/>
      <point x="325.667" y="619" name=".hr02"/>
      <point x="383.333" y="619" type="curve" smooth="yes"/>
      <point x="437" y="619"/>
      <point x="489.667" y="600"/>
      <point x="489.667" y="519" type="curve" smooth="yes"/>
      <point x="489.667" y="413"/>
      <point x="440" y="317"/>
      <point x="322.667" y="317" type="curve" smooth="yes"/>
      <point x="285.667" y="317"/>
      <point x="270" y="319.333"/>
      <point x="244.333" y="326.667" type="curve"/>
      <point x="242.333" y="313"/>
      <point x="245.333" y="301"/>
      <point x="253.333" y="291.333" type="curve"/>
      <point x="275.667" y="283.333"/>
      <point x="290" y="280.333"/>
      <point x="320.333" y="280.333" type="curve" smooth="yes"/>
      <point x="461" y="280.333"/>
      <point x="595" y="366"/>
      <point x="595" y="518" type="curve" smooth="yes"/>
      <point x="595" y="596.667"/>
      <point x="535.667" y="655.333"/>
    </contour>
    <contour>
      <point x="192" y="0" type="line"/>
      <point x="298.333" y="548" type="line"/>
      <point x="259.667" y="645" type="line"/>
      <point x="210.333" y="645" name=".hr03"/>
      <point x="170" y="646"/>
      <point x="136.333" y="647" type="curve"/>
      <point x="133.333" y="644"/>
      <point x="128.333" y="626.667"/>
      <point x="132.333" y="616.333" type="curve"/>
      <point x="184" y="613.667"/>
      <point x="203" y="603.333"/>
      <point x="203" y="578.667" type="curve" smooth="yes"/>
      <point x="203" y="563"/>
      <point x="201.667" y="547.333"/>
      <point x="196.667" y="521.333" type="curve" smooth="yes"/>
      <point x="119.667" y="122" type="line" smooth="yes"/>
      <point x="106.667" y="55.6667"/>
      <point x="85.3333" y="36"/>
      <point x="16.6667" y="28.6667" type="curve"/>
      <point x="10.6667" y="20"/>
      <point x="6.66667" y="5"/>
      <point x="11.6667" y="-2" type="curve"/>
      <point x="54" y="-1"/>
      <point x="103.667" y="0"/>
      <point x="138.333" y="0" type="curve" smooth="yes"/>
    </contour>
  </outline>
</glyph>
<glyph name="Q" format="2">
  <advance width="678"/>
  <unicode hex="0051"/>
  <anchor x="482.667" y="740" name="t.uni0302"/>
  <outline>
    <component base="O"/>
    <contour>
      <point x="127" y="-128.333" type="curve" smooth="yes"/>
      <point x="104" y="-153" type="line"/>
      <point x="136.333" y="-176.333" type="line"/>
      <point x="181.333" y="-130" type="line" smooth="yes"/>
      <point x="191.667" y="-119.333"/>
      <point x="211.333" y="-117.333"/>
      <point x="218.333" y="-117.333" type="curve" smooth="yes"/>
      <point x="306" y="-117.333"/>
      <point x="350" y="-215"/>
      <point x="472.333" y="-215" type="curve" smooth="yes"/>
      <point x="537.333" y="-215"/>
      <point x="583.667" y="-182.666"/>
      <point x="628.333" y="-130.333" type="curve"/>
      <point x="615" y="-115" type="line"/>
      <point x="592" y="-139.666"/>
      <point x="558.333" y="-152"/>
      <point x="524.667" y="-152" type="curve" smooth="yes"/>
      <point x="439.333" y="-152"/>
      <point x="380.667" y="-66.666"/>
      <point x="276" y="-66.666" type="curve" smooth="yes"/>
      <point x="271.667" y="-66.666"/>
      <point x="267.333" y="-66.666"/>
      <point x="262.333" y="-67.333" type="curve"/>
      <point x="261.667" y="-67.333" type="line"/>
      <point x="313.333" y="-33.999"/>
      <point x="360.333" y="-13.333"/>
      <point x="393" y="-3.999" type="curve"/>
      <point x="393" y="-0.333" type="line"/>
      <point x="310" y="-0.333" type="line"/>
      <point x="240.667" y="-30.999"/>
      <point x="171.667" y="-81.333"/>
    </contour>
  </outline>
</glyph>
<glyph name="R" format="2">
  <advance width="590"/>
  <unicode hex="0052"/>
  <anchor x="461.333" y="740" name="t.uni0302"/>
  <anchor x="296.333" y="-60" name="b.minus-60"/>
  <outline>
    <contour>
      <point x="402" y="654" type="curve" smooth="yes"/>
      <point x="380" y="654"/>
      <point x="319.667" y="645" name=".hr01"/>
      <point x="273" y="645" type="curve" smooth="yes"/>
      <point x="259.667" y="645" type="line"/>
      <point x="134" y="0" type="line"/>
      <point x="175" y="0"/>
      <point x="228" y="-1"/>
      <point x="274" y="-2" type="curve"/>
      <point x="278" y="3"/>
      <point x="282.667" y="21.3333"/>
      <point x="278.667" y="27.3333" type="curve"/>
      <point x="260.333" y="32.6667"/>
      <point x="206.667" y="29"/>
      <point x="206.667" y="64.3333" type="curve" smooth="yes"/>
      <point x="206.667" y="70"/>
      <point x="206.667" y="74"/>
      <point x="208.667" y="84.6667" type="curve" smooth="yes"/>
      <point x="247.667" y="288.333" type="line"/>
      <point x="312.667" y="288.333"/>
      <point x="339.667" y="277.333"/>
      <point x="351.667" y="248.667" type="curve" smooth="yes"/>
      <point x="418" y="87.6667" type="line" smooth="yes"/>
      <point x="449.667" y="11"/>
      <point x="472.667" y="-11"/>
      <point x="548.333" y="-9.33333" type="curve" smooth="yes" name=".hr02"/>
      <point x="565.333" y="-9"/>
      <point x="583" y="-7"/>
      <point x="592.333" y="-2.66667" type="curve" name=".hr03"/>
      <point x="596.667" y="4.33333"/>
      <point x="597.667" y="14.6667"/>
      <point x="596.333" y="24.6667" type="curve" name=".hr04"/>
      <point x="553.333" y="24.6667"/>
      <point x="535" y="55.3333"/>
      <point x="518.333" y="98" type="curve" smooth="yes"/>
      <point x="435" y="308" type="line"/>
      <point x="523.333" y="338"/>
      <point x="594.667" y="413.333"/>
      <point x="594.667" y="507" type="curve" smooth="yes"/>
      <point x="594.667" y="627.333"/>
      <point x="505.667" y="654"/>
    </contour>
    <contour>
      <point x="491.667" y="518.333" type="curve" smooth="yes"/>
      <point x="491.667" y="395.333"/>
      <point x="424.667" y="325"/>
      <point x="300.333" y="325" type="curve" smooth="yes"/>
      <point x="254.667" y="325" type="line"/>
      <point x="302.333" y="568" type="line" smooth="yes"/>
      <point x="309.333" y="602.333"/>
      <point x="325.667" y="618.333"/>
      <point x="385" y="618.333" type="curve" smooth="yes"/>
      <point x="435" y="618.333"/>
      <point x="491.667" y="599.667"/>
    </contour>
    <contour>
      <point x="192" y="0" type="line"/>
      <point x="298.333" y="548" type="line"/>
      <point x="259.667" y="645" type="line"/>
      <point x="210.333" y="645"/>
      <point x="170" y="646" name=".hr05"/>
      <point x="136.333" y="647" type="curve"/>
      <point x="133.333" y="644"/>
      <point x="128.333" y="626.667"/>
      <point x="132.333" y="616.333" type="curve"/>
      <point x="184" y="613.667"/>
      <point x="203" y="603.333"/>
      <point x="203" y="578.667" type="curve" smooth="yes"/>
      <point x="203" y="563"/>
      <point x="201.667" y="547.333"/>
      <point x="196.667" y="521.333" type="curve" smooth="yes"/>
      <point x="119.667" y="122" type="line" smooth="yes"/>
      <point x="106.667" y="55.6667"/>
      <point x="85.3333" y="36"/>
      <point x="16.6667" y="28.6667" type="curve"/>
      <point x="10.6667" y="20"/>
      <point x="6.66667" y="5"/>
      <point x="11.6667" y="-2" type="curve"/>
      <point x="54" y="-1"/>
      <point x="103.667" y="0"/>
      <point x="138.333" y="0" type="curve" smooth="yes"/>
    </contour>
  </outline>
  <guideline angle="78.8915" x="193" y="72"/>
</glyph>
<glyph name="S" format="2">
  <advance width="463"/>
  <unicode hex="0053"/>
  <anchor x="369" y="740" name="t.uni0302"/>
  <anchor x="228.333" y="0" name="b.cedilla"/>
  <anchor x="204.667" y="-60" name="b.minus-60"/>
  <outline>
    <contour>
      <point x="504" y="627.334" type="curve"/>
      <point x="447.666" y="639.334"/>
      <point x="415.666" y="658"/>
      <point x="355.333" y="658" type="curve" smooth="yes"/>
      <point x="241.001" y="658"/>
      <point x="137.667" y="574.667"/>
      <point x="137.667" y="456.334" type="curve" smooth="yes"/>
      <point x="137.667" y="378.667"/>
      <point x="192.001" y="331.667"/>
      <point x="256" y="294" type="curve" smooth="yes"/>
      <point x="284.667" y="277" type="line" smooth="yes"/>
      <point x="329" y="250.667"/>
      <point x="364.333" y="219.333"/>
      <point x="364.333" y="162.667" type="curve" smooth="yes"/>
      <point x="364.333" y="81"/>
      <point x="313" y="28"/>
      <point x="229.667" y="28" type="curve" smooth="yes"/>
      <point x="151.667" y="28"/>
      <point x="98.666" y="72.333"/>
      <point x="98.666" y="171.333" type="curve"/>
      <point x="94.999" y="172.667"/>
      <point x="90.666" y="173.667"/>
      <point x="85.333" y="173.667" type="curve" smooth="yes"/>
      <point x="78.333" y="173.667"/>
      <point x="69.333" y="171.667"/>
      <point x="62.333" y="168.333" type="curve"/>
      <point x="51.666" y="115"/>
      <point x="50.666" y="58.667"/>
      <point x="49.333" y="6.667" type="curve"/>
      <point x="106.333" y="6.667"/>
      <point x="122.333" y="-10"/>
      <point x="220.667" y="-10" type="curve" smooth="yes"/>
      <point x="334.667" y="-10"/>
      <point x="465" y="80"/>
      <point x="465" y="201.333" type="curve" smooth="yes"/>
      <point x="465" y="289"/>
      <point x="423.666" y="331.667"/>
      <point x="350" y="371" type="curve" smooth="yes"/>
      <point x="305.667" y="394.334" type="line" smooth="yes"/>
      <point x="269" y="414"/>
      <point x="229.334" y="453"/>
      <point x="229.334" y="504.667" type="curve" smooth="yes"/>
      <point x="229.334" y="572.667"/>
      <point x="287.334" y="620.667"/>
      <point x="349.333" y="620.667" type="curve" smooth="yes"/>
      <point x="437.666" y="620.667"/>
      <point x="450" y="556"/>
      <point x="455.333" y="490.334" type="curve"/>
      <point x="459.666" y="488.334"/>
      <point x="465.333" y="486.667"/>
      <point x="471.667" y="486.667" type="curve" smooth="yes"/>
      <point x="478.667" y="486.667"/>
      <point x="486" y="487.667"/>
      <point x="492.333" y="490.667" type="curve"/>
      <point x="499.666" y="541.667"/>
      <point x="502.333" y="574.667"/>
    </contour>
  </outline>
</glyph>
<glyph name="T" format="2">
  <advance width="571"/>
  <unicode hex="0054"/>
  <outline>
    <contour>
      <point x="165" y="-2" type="curve"/>
      <point x="210.667" y="-1"/>
      <point x="251.667" y="0"/>
      <point x="298" y="0" type="curve" smooth="yes"/>
      <point x="344.333" y="0"/>
      <point x="391" y="-1"/>
      <point x="436.333" y="-2" type="curve"/>
      <point x="440.667" y="2.66667"/>
      <point x="444.333" y="23.3333"/>
      <point x="440.667" y="28.6667" type="curve"/>
      <point x="370.667" y="34.3333"/>
      <point x="354.333" y="43.3333"/>
      <point x="363.667" y="91.6667" type="curve" smooth="yes"/>
      <point x="451.667" y="543.667" type="line" smooth="yes"/>
      <point x="457.667" y="573.333"/>
      <point x="476" y="605.667"/>
      <point x="508.667" y="605.667" type="curve" smooth="yes"/>
      <point x="552" y="605.667" type="line" smooth="yes"/>
      <point x="603.333" y="605.667"/>
      <point x="629" y="580"/>
      <point x="644" y="509.333" type="curve"/>
      <point x="654.333" y="509.333"/>
      <point x="666" y="509.667"/>
      <point x="677" y="514.333" type="curve"/>
      <point x="670.333" y="567.667"/>
      <point x="670.667" y="613.667"/>
      <point x="675.333" y="654.667" type="curve"/>
      <point x="673.333" y="657" type="line"/>
      <point x="645.667" y="649.333"/>
      <point x="596.333" y="645"/>
      <point x="547" y="645" type="curve" smooth="yes"/>
      <point x="279.333" y="645" type="line" smooth="yes"/>
      <point x="237.333" y="645"/>
      <point x="185.333" y="649.333"/>
      <point x="158.667" y="656.333" type="curve"/>
      <point x="155.667" y="655.333" type="line"/>
      <point x="143.333" y="607.667"/>
      <point x="131.667" y="571.333"/>
      <point x="107.667" y="520" type="curve"/>
      <point x="116" y="515.333"/>
      <point x="129.667" y="513.667"/>
      <point x="139.667" y="513.667" type="curve"/>
      <point x="172" y="583.333"/>
      <point x="203.667" y="605.667"/>
      <point x="258.667" y="605.667" type="curve" smooth="yes"/>
      <point x="320.333" y="605.667" type="line" smooth="yes"/>
      <point x="352.333" y="605.667"/>
      <point x="360.667" y="572.333"/>
      <point x="355.667" y="546.667" type="curve" smooth="yes"/>
      <point x="267.333" y="91.6667" type="line" smooth="yes"/>
      <point x="258" y="42.6667"/>
      <point x="236" y="32.3333"/>
      <point x="168.333" y="28.6667" type="curve"/>
      <point x="163.333" y="24"/>
      <point x="160.667" y="6"/>
    </contour>
  </outline>
</glyph>
<glyph name="V" format="2">
  <advance width="622"/>
  <unicode hex="0056"/>
  <anchor x="483" y="740" name="t.uni0302"/>
  <anchor x="296.667" y="-60" name="b.minus-60"/>
  <outline>
    <contour>
      <point x="636.667" y="549.667" type="line" smooth="yes"/>
      <point x="661" y="591.667"/>
      <point x="692.667" y="611.333"/>
      <point x="742.333" y="616.333" type="curve"/>
      <point x="748.667" y="622.333"/>
      <point x="750.333" y="641"/>
      <point x="744.667" y="647" type="curve"/>
      <point x="712.667" y="646"/>
      <point x="690" y="645"/>
      <point x="662.333" y="645" type="curve" smooth="yes"/>
      <point x="659" y="645"/>
      <point x="655" y="645"/>
      <point x="651.667" y="645" type="curve" smooth="yes"/>
      <point x="621.333" y="645"/>
      <point x="574.333" y="646"/>
      <point x="536" y="647" type="curve"/>
      <point x="529.667" y="641"/>
      <point x="528" y="622.333"/>
      <point x="533.667" y="616.333" type="curve"/>
      <point x="579" y="612.667"/>
      <point x="611.333" y="601.333"/>
      <point x="590.333" y="562.667" type="curve" smooth="yes"/>
      <point x="395" y="204.667" type="line"/>
      <point x="362.333" y="146" type="line"/>
      <point x="360" y="143.333"/>
      <point x="358" y="141"/>
      <point x="355" y="141.667" type="curve"/>
      <point x="345" y="213.333" type="line"/>
      <point x="294" y="572.333" type="line" smooth="yes"/>
      <point x="289" y="605.333"/>
      <point x="329" y="614"/>
      <point x="368" y="616.333" type="curve"/>
      <point x="374.333" y="622.333"/>
      <point x="376" y="641"/>
      <point x="370.333" y="647" type="curve"/>
      <point x="340.333" y="646"/>
      <point x="282.333" y="645"/>
      <point x="246.667" y="645" type="curve" smooth="yes"/>
      <point x="240" y="645"/>
      <point x="233.667" y="645"/>
      <point x="226.333" y="645" type="curve" smooth="yes"/>
      <point x="187.667" y="645"/>
      <point x="156" y="646"/>
      <point x="119.667" y="647" type="curve"/>
      <point x="113.333" y="641"/>
      <point x="112" y="622.333"/>
      <point x="117.667" y="616.333" type="curve"/>
      <point x="158" y="611.667"/>
      <point x="184" y="610"/>
      <point x="192.333" y="557" type="curve" smooth="yes"/>
      <point x="280.667" y="11" type="line" smooth="yes"/>
      <point x="283" y="-4"/>
      <point x="291.333" y="-12"/>
      <point x="301.667" y="-12" type="curve" smooth="yes"/>
      <point x="315.333" y="-12"/>
      <point x="327.333" y="6"/>
      <point x="335.333" y="19.6667" type="curve" smooth="yes"/>
    </contour>
  </outline>
</glyph>
<glyph name="X" format="2">
  <advance width="648"/>
  <unicode hex="0058"/>
  <anchor x="477.333" y="740" name="t.uni0302"/>
  <anchor x="289.667" y="-60" name="b.minus-60"/>
  <outline>
    <contour>
      <point x="446.001" y="78.333" type="line"/>
      <point x="453.001" y="64"/>
      <point x="457.334" y="54"/>
      <point x="457.001" y="47" type="curve" smooth="yes"/>
      <point x="456.667" y="37.333"/>
      <point x="448.001" y="33.333"/>
      <point x="427.334" y="31" type="curve" smooth="yes"/>
      <point x="414.001" y="29.666" type="line" smooth="yes"/>
      <point x="410.667" y="29.333"/>
      <point x="408.001" y="28.333"/>
      <point x="404.001" y="27.666" type="curve"/>
      <point x="402.667" y="26.333"/>
      <point x="402.001" y="23.666"/>
      <point x="400.667" y="21" type="curve"/>
      <point x="399.001" y="13.333"/>
      <point x="397.334" y="5.666"/>
      <point x="397.667" y="-0.334" type="curve"/>
      <point x="399.667" y="-1.667" type="line"/>
      <point x="439.334" y="-0.667"/>
      <point x="494.334" y="0.333"/>
      <point x="524.334" y="0.333" type="curve" smooth="yes"/>
      <point x="533.667" y="0.333" type="line" smooth="yes"/>
      <point x="561.334" y="0.333"/>
      <point x="607.667" y="-0.667"/>
      <point x="642.334" y="-1.667" type="curve"/>
      <point x="643.667" y="-0.334"/>
      <point x="644.334" y="1"/>
      <point x="645.667" y="3" type="curve"/>
      <point x="646.667" y="9.333"/>
      <point x="648.334" y="14.666"/>
      <point x="649.001" y="21" type="curve"/>
      <point x="649.001" y="23.666"/>
      <point x="649.001" y="25.666"/>
      <point x="647.667" y="27.666" type="curve"/>
      <point x="645.667" y="28.333"/>
      <point x="643.334" y="29.333"/>
      <point x="640.001" y="29.333" type="curve"/>
      <point x="604.667" y="33"/>
      <point x="581.001" y="54.333"/>
      <point x="561.667" y="92.333" type="curve"/>
      <point x="559.001" y="96.333"/>
      <point x="557.001" y="101"/>
      <point x="555.001" y="105.333" type="curve" smooth="yes"/>
      <point x="451.001" y="317" type="line" smooth="yes"/>
      <point x="446.001" y="326.666"/>
      <point x="443.334" y="334.333"/>
      <point x="442.667" y="341.333" type="curve" smooth="yes"/>
      <point x="442.334" y="344.333"/>
      <point x="442.001" y="346.333"/>
      <point x="442.001" y="349" type="curve"/>
      <point x="443.001" y="358.666"/>
      <point x="449.001" y="367.333"/>
      <point x="460.334" y="379.666" type="curve" smooth="yes"/>
      <point x="615.667" y="549.666" type="line" smooth="yes"/>
      <point x="622.334" y="556.666"/>
      <point x="628.334" y="563.333"/>
      <point x="634.334" y="569.666" type="curve" smooth="yes"/>
      <point x="661.334" y="597.666"/>
      <point x="688.667" y="613"/>
      <point x="731.667" y="615.666" type="curve" smooth="yes"/>
      <point x="735.667" y="616"/>
      <point x="739.334" y="617"/>
      <point x="741.667" y="617.666" type="curve"/>
      <point x="743.667" y="619.666"/>
      <point x="744.334" y="622.333"/>
      <point x="745.001" y="624.333" type="curve"/>
      <point x="746.667" y="632"/>
      <point x="748.001" y="639.667"/>
      <point x="747.667" y="645.667" type="curve"/>
      <point x="746.334" y="647" type="line"/>
      <point x="710.667" y="646"/>
      <point x="673.001" y="645"/>
      <point x="651.001" y="645" type="curve" smooth="yes"/>
      <point x="629.001" y="645"/>
      <point x="589.334" y="646"/>
      <point x="550.667" y="647" type="curve"/>
      <point x="549.334" y="645.667"/>
      <point x="548.667" y="644.333"/>
      <point x="547.334" y="642.333" type="curve"/>
      <point x="546.334" y="636"/>
      <point x="544.667" y="630.666"/>
      <point x="544.001" y="624.333" type="curve"/>
      <point x="544.001" y="621.666"/>
      <point x="544.001" y="619"/>
      <point x="545.334" y="617.666" type="curve"/>
      <point x="548.334" y="617"/>
      <point x="551.667" y="616"/>
      <point x="554.667" y="615.333" type="curve"/>
      <point x="562.667" y="614.333"/>
      <point x="570.667" y="614"/>
      <point x="577.667" y="612.666" type="curve" smooth="yes"/>
      <point x="588.667" y="610.666"/>
      <point x="593.334" y="606"/>
      <point x="593.334" y="599.666" type="curve" smooth="yes"/>
      <point x="593.334" y="592.666"/>
      <point x="587.001" y="582"/>
      <point x="576.001" y="569.333" type="curve" smooth="yes"/>
      <point x="531.001" y="516.666"/>
      <point x="484.667" y="462.333"/>
      <point x="435.001" y="409.666" type="curve" smooth="yes"/>
      <point x="429.001" y="403" type="line" smooth="yes"/>
      <point x="423.001" y="396.333"/>
      <point x="418.334" y="393"/>
      <point x="415.334" y="393" type="curve" smooth="yes"/>
      <point x="412.001" y="393"/>
      <point x="409.001" y="398"/>
      <point x="404.667" y="407" type="curve"/>
      <point x="342.334" y="550.333" type="line"/>
      <point x="335.001" y="567" type="line" smooth="yes"/>
      <point x="329.001" y="580.333"/>
      <point x="325.334" y="591"/>
      <point x="326.667" y="598.666" type="curve"/>
      <point x="327.334" y="606.333"/>
      <point x="333.001" y="611.333"/>
      <point x="347.001" y="613" type="curve"/>
      <point x="355.667" y="614.333"/>
      <point x="364.001" y="614.666"/>
      <point x="373.334" y="615.666" type="curve" smooth="yes"/>
      <point x="376.001" y="616"/>
      <point x="378.667" y="617"/>
      <point x="382.001" y="617.666" type="curve"/>
      <point x="384.001" y="619"/>
      <point x="385.334" y="621.666"/>
      <point x="386.001" y="624.333" type="curve"/>
      <point x="387.001" y="630"/>
      <point x="388.001" y="636"/>
      <point x="388.667" y="641.667" type="curve"/>
      <point x="388.001" y="643"/>
      <point x="388.001" y="646.333"/>
      <point x="387.334" y="647" type="curve"/>
      <point x="357.667" y="646"/>
      <point x="319.001" y="645.667"/>
      <point x="291.001" y="645.667" type="curve"/>
      <point x="275.334" y="645"/>
      <point x="258.001" y="645"/>
      <point x="244.334" y="645" type="curve"/>
      <point x="217.001" y="645.333"/>
      <point x="178" y="646"/>
      <point x="146.667" y="647" type="curve"/>
      <point x="145.334" y="645.667"/>
      <point x="144" y="643.667"/>
      <point x="142.667" y="641.667" type="curve"/>
      <point x="141.334" y="634.667"/>
      <point x="140" y="626.333"/>
      <point x="140.334" y="621" type="curve"/>
      <point x="141" y="618.333"/>
      <point x="146" y="617.333"/>
      <point x="152.334" y="616" type="curve"/>
      <point x="153.667" y="616" type="line"/>
      <point x="175" y="612.333"/>
      <point x="198.667" y="602.666"/>
      <point x="225.001" y="548.333" type="curve" smooth="yes"/>
      <point x="323.334" y="344" type="line"/>
      <point x="329.334" y="334.333"/>
      <point x="332.334" y="327"/>
      <point x="332.334" y="319.666" type="curve"/>
      <point x="332.667" y="317.333"/>
      <point x="331.667" y="315"/>
      <point x="331.334" y="313" type="curve"/>
      <point x="330.001" y="307"/>
      <point x="324.334" y="299"/>
      <point x="317.001" y="291" type="curve" smooth="yes"/>
      <point x="148.334" y="106.333" type="line" smooth="yes"/>
      <point x="140.667" y="97.666"/>
      <point x="131.334" y="88.333"/>
      <point x="122.334" y="78.333" type="curve"/>
      <point x="94.667" y="51.666"/>
      <point x="62.334" y="32.333"/>
      <point x="22.334" y="29.333" type="curve"/>
      <point x="19" y="29.333"/>
      <point x="15.334" y="29"/>
      <point x="12.667" y="27.666" type="curve"/>
      <point x="10.667" y="26.333"/>
      <point x="9.334" y="24.333"/>
      <point x="8" y="21" type="curve"/>
      <point x="6.667" y="14.666"/>
      <point x="5" y="9.333"/>
      <point x="4.334" y="3" type="curve"/>
      <point x="4.334" y="1"/>
      <point x="4.334" y="-0.334"/>
      <point x="5" y="-1.667" type="curve"/>
      <point x="31.667" y="-0.667"/>
      <point x="60" y="0.333"/>
      <point x="87.334" y="0.333" type="curve" smooth="yes"/>
      <point x="97" y="0.333"/>
      <point x="105" y="0.333"/>
      <point x="112.667" y="0.333" type="curve"/>
      <point x="136.667" y="-0.334"/>
      <point x="170.334" y="-0.667"/>
      <point x="205.667" y="-1.667" type="curve"/>
      <point x="207.667" y="-0.334" type="line"/>
      <point x="210.001" y="5.666"/>
      <point x="212.334" y="13.333"/>
      <point x="213.334" y="21" type="curve"/>
      <point x="213.334" y="23.666"/>
      <point x="213.334" y="25.666"/>
      <point x="212.001" y="27" type="curve"/>
      <point x="209.667" y="28.666"/>
      <point x="207" y="29.333"/>
      <point x="203.334" y="30" type="curve"/>
      <point x="191.334" y="31.333" type="line"/>
      <point x="174.667" y="33.666"/>
      <point x="167.334" y="39.333"/>
      <point x="167" y="48.333" type="curve"/>
      <point x="167" y="56.666"/>
      <point x="174" y="66.666"/>
      <point x="183" y="78.666" type="curve"/>
      <point x="234.334" y="138.333"/>
      <point x="285.334" y="198.666"/>
      <point x="338.667" y="258" type="curve"/>
      <point x="345.334" y="264.666"/>
      <point x="351.001" y="269.666"/>
      <point x="353.334" y="270" type="curve"/>
      <point x="358.001" y="270.333"/>
      <point x="362.001" y="266.333"/>
      <point x="366.667" y="256" type="curve" smooth="yes"/>
    </contour>
  </outline>
</glyph>
<glyph name="Z" format="2">
  <advance width="585"/>
  <unicode hex="005A"/>
  <anchor x="444.333" y="740" name="t.uni0302"/>
  <anchor x="268.333" y="-60" name="b.minus-60"/>
  <outline>
    <contour>
      <point x="34.667" y="11.667" type="curve" smooth="yes"/>
      <point x="34.667" y="4"/>
      <point x="39" y="0"/>
      <point x="50.334" y="0" type="curve" smooth="yes"/>
      <point x="321.334" y="0" type="line" smooth="yes"/>
      <point x="385.334" y="0"/>
      <point x="469.001" y="0"/>
      <point x="533.334" y="-4.667" type="curve"/>
      <point x="536.334" y="-2.333" type="line"/>
      <point x="550.001" y="44.334"/>
      <point x="574.334" y="112.667"/>
      <point x="594.334" y="167.334" type="curve"/>
      <point x="589.334" y="170.667"/>
      <point x="574.667" y="172.334"/>
      <point x="562.667" y="172.334" type="curve"/>
      <point x="529.001" y="97.667"/>
      <point x="484.334" y="40.667"/>
      <point x="414.667" y="40.667" type="curve" smooth="yes"/>
      <point x="201.334" y="40.667" type="line" smooth="yes"/>
      <point x="186.667" y="40.667"/>
      <point x="180" y="43.667"/>
      <point x="180" y="50" type="curve" smooth="yes"/>
      <point x="180" y="58.667"/>
      <point x="185.667" y="66"/>
      <point x="191.334" y="72" type="curve"/>
      <point x="645.667" y="591" type="line" smooth="yes"/>
      <point x="671.334" y="620.667"/>
      <point x="678.334" y="635"/>
      <point x="678.334" y="643.667" type="curve" smooth="yes"/>
      <point x="678.334" y="649.667"/>
      <point x="675.001" y="652.333"/>
      <point x="660.001" y="652.333" type="curve" smooth="yes"/>
      <point x="648.001" y="652.333"/>
      <point x="626.001" y="645"/>
      <point x="597.001" y="645" type="curve" smooth="yes"/>
      <point x="415.334" y="645" type="line" smooth="yes"/>
      <point x="308.667" y="645"/>
      <point x="266" y="648.667"/>
      <point x="204" y="657" type="curve"/>
      <point x="202.667" y="656.333"/>
      <point x="201.667" y="655.667"/>
      <point x="201" y="654.667" type="curve"/>
      <point x="187.334" y="604.333"/>
      <point x="163.667" y="531"/>
      <point x="146.334" y="487.667" type="curve"/>
      <point x="152.667" y="485"/>
      <point x="169.334" y="482.667"/>
      <point x="177.334" y="482.667" type="curve"/>
      <point x="210.667" y="549.667"/>
      <point x="240.667" y="604"/>
      <point x="315" y="604" type="curve" smooth="yes"/>
      <point x="520.667" y="604" type="line" smooth="yes"/>
      <point x="526.334" y="604"/>
      <point x="530.334" y="600"/>
      <point x="530.334" y="595.667" type="curve" smooth="yes"/>
      <point x="530.334" y="592.333"/>
      <point x="526.001" y="585"/>
      <point x="520.667" y="579" type="curve" smooth="yes"/>
      <point x="47.334" y="38" type="line"/>
      <point x="40.334" y="30.667"/>
      <point x="34.667" y="20.667"/>
    </contour>
  </outline>
</glyph>
<glyph name="bracketleft" format="2">
  <advance width="355"/>
  <unicode hex="005B"/>
  <outline>
    <contour>
      <point x="46" y="-197.667" type="line"/>
      <point x="271" y="-197.667" type="line"/>
      <point x="274" y="-191.667"/>
      <point x="278.666" y="-163.667"/>
      <point x="277.666" y="-158.334" type="curve"/>
      <point x="201.333" y="-154.667"/>
      <point x="151.333" y="-149.667"/>
      <point x="136.667" y="-120.667" type="curve"/>
      <point x="274" y="617.667" type="line"/>
      <point x="299" y="646.667"/>
      <point x="356" y="651.667"/>
      <point x="431.666" y="655" type="curve"/>
      <point x="434.666" y="661"/>
      <point x="437.333" y="688.334"/>
      <point x="436.333" y="693.667" type="curve"/>
      <point x="213.333" y="693.667" type="line"/>
    </contour>
  </outline>
</glyph>
<glyph name="bracketright" format="2">
  <advance width="355"/>
  <unicode hex="005D"/>
  <outline>
    <contour>
      <point x="403" y="693.667" type="line"/>
      <point x="178" y="693.667" type="line"/>
      <point x="175" y="687.667"/>
      <point x="170.334" y="660.333"/>
      <point x="171.334" y="655" type="curve"/>
      <point x="248.667" y="651.333"/>
      <point x="297.667" y="646.333"/>
      <point x="312.333" y="617.333" type="curve"/>
      <point x="175" y="-121.001" type="line"/>
      <point x="150.334" y="-150.001"/>
      <point x="93" y="-155.001"/>
      <point x="17.334" y="-158.334" type="curve"/>
      <point x="14.334" y="-164.334"/>
      <point x="11.667" y="-192.334"/>
      <point x="12.667" y="-197.667" type="curve"/>
      <point x="235" y="-197.667" type="line"/>
    </contour>
  </outline>
</glyph>
<glyph name="a" format="2">
  <advance width="497"/>
  <unicode hex="0061"/>
  <anchor x="383" y="500" name="t.uni0302"/>
  <anchor x="425" y="10" name="b.ogonek"/>
  <anchor x="209.333" y="-60" name="b.minus-60"/>
  <outline>
    <contour>
      <point x="470.333" y="439" type="curve" smooth="yes"/>
      <point x="465.666" y="439"/>
      <point x="457.666" y="437.667"/>
      <point x="450.666" y="435.667" type="curve"/>
      <point x="442.666" y="432.667"/>
      <point x="430.333" y="430"/>
      <point x="415.999" y="430" type="curve" smooth="yes"/>
      <point x="407.333" y="430"/>
      <point x="392.999" y="431"/>
      <point x="376.666" y="434" type="curve"/>
      <point x="361.666" y="437.333"/>
      <point x="344.333" y="439"/>
      <point x="331" y="439" type="curve" smooth="yes"/>
      <point x="190" y="439"/>
      <point x="67.333" y="253.666"/>
      <point x="67.333" y="122.666" type="curve" smooth="yes"/>
      <point x="67.333" y="57"/>
      <point x="89.333" y="-10"/>
      <point x="159.666" y="-10" type="curve" smooth="yes"/>
      <point x="220" y="-10"/>
      <point x="273.666" y="39.666"/>
      <point x="335.333" y="131.666" type="curve"/>
      <point x="338" y="129.666" type="line"/>
      <point x="331" y="109.666" type="line" smooth="yes"/>
      <point x="324.333" y="90.333"/>
      <point x="318.333" y="60"/>
      <point x="318.333" y="42" type="curve" smooth="yes"/>
      <point x="318.333" y="11.667"/>
      <point x="332.666" y="-10"/>
      <point x="365.333" y="-10" type="curve" smooth="yes"/>
      <point x="418.666" y="-10"/>
      <point x="477.333" y="30.666"/>
      <point x="507.999" y="85.333" type="curve"/>
      <point x="503.666" y="94.333"/>
      <point x="496.333" y="105.333"/>
      <point x="482.999" y="105.333" type="curve"/>
      <point x="456.333" y="70.666"/>
      <point x="432.333" y="54.333"/>
      <point x="422.333" y="54.333" type="curve" smooth="yes"/>
      <point x="417.666" y="54.333"/>
      <point x="410.666" y="58.333"/>
      <point x="410.666" y="72" type="curve" smooth="yes"/>
      <point x="410.666" y="77.666"/>
      <point x="411.999" y="86.333"/>
      <point x="419.666" y="121.333" type="curve" smooth="yes"/>
      <point x="462.333" y="315.333" type="line" smooth="yes"/>
      <point x="474.333" y="368"/>
      <point x="477.666" y="384.666"/>
      <point x="487.333" y="421.667" type="curve"/>
      <point x="487.333" y="432.333"/>
      <point x="481.333" y="439"/>
    </contour>
    <contour>
      <point x="352" y="221.333" type="curve"/>
      <point x="322.333" y="167.333"/>
      <point x="249" y="58.333"/>
      <point x="201" y="58.333" type="curve" smooth="yes"/>
      <point x="168" y="58.333"/>
      <point x="162.333" y="109.333"/>
      <point x="162.333" y="142" type="curve" smooth="yes"/>
      <point x="162.333" y="224.333"/>
      <point x="229" y="404.333"/>
      <point x="334.333" y="404.333" type="curve" smooth="yes"/>
      <point x="355" y="404.333"/>
      <point x="372.666" y="397.666"/>
      <point x="385.999" y="385.333" type="curve"/>
      <point x="384.666" y="360.666"/>
      <point x="376.999" y="285.333"/>
    </contour>
  </outline>
</glyph>
<glyph name="b" format="2">
  <advance width="492"/>
  <unicode hex="0062"/>
  <outline>
    <contour>
      <point x="206.667" y="177.333" type="curve"/>
      <point x="243.296" y="278.579"/>
      <point x="294.661" y="464.801"/>
      <point x="319" y="506" type="curve"/>
      <point x="334.333" y="529.333"/>
      <point x="340.667" y="540.333"/>
      <point x="348.667" y="558.333" type="curve"/>
      <point x="348.667" y="535.667"/>
      <point x="329" y="476"/>
      <point x="288.333" y="476" type="curve"/>
      <point x="265.333" y="470.667"/>
      <point x="202.333" y="464"/>
      <point x="180.333" y="472.667" type="curve"/>
      <point x="178.333" y="471"/>
      <point x="177.667" y="469.667"/>
      <point x="179.333" y="471" type="curve"/>
      <point x="218.348" y="513.815"/>
      <point x="246.944" y="593.28"/>
      <point x="252" y="601" type="curve"/>
      <point x="255" y="608.667"/>
      <point x="257" y="609"/>
      <point x="256.667" y="602" type="curve"/>
      <point x="244.766" y="552.3"/>
      <point x="205.479" y="385.922"/>
      <point x="185.667" y="318" type="curve"/>
      <point x="169" y="304.667"/>
      <point x="133.333" y="288"/>
      <point x="116.333" y="276" type="curve"/>
      <point x="115" y="240.333"/>
      <point x="135.333" y="210.333"/>
      <point x="184.667" y="206" type="curve"/>
      <point x="291.667" y="205.333"/>
      <point x="400.333" y="342"/>
      <point x="400.333" y="414.333" type="curve" smooth="yes"/>
      <point x="400.333" y="463.667"/>
      <point x="384.333" y="486"/>
      <point x="328.333" y="480.333" type="curve" name=".hr01"/>
      <point x="276.35" y="454.23"/>
      <point x="218.474" y="312.309"/>
      <point x="190.333" y="262.667" type="curve"/>
      <point x="187.137" y="259.333"/>
      <point x="174.224" y="255"/>
      <point x="171" y="250.667" type="curve"/>
      <point x="171" y="227.312"/>
      <point x="181" y="182.979"/>
      <point x="206.333" y="171.333" type="curve"/>
      <point x="315" y="236.667"/>
      <point x="394.333" y="310.333"/>
      <point x="420.333" y="368" type="curve"/>
      <point x="452.333" y="384.333"/>
      <point x="452.667" y="370.333"/>
      <point x="425.667" y="347" type="curve"/>
      <point x="401" y="251"/>
      <point x="297" y="145.333"/>
      <point x="234.667" y="129.667" type="curve"/>
      <point x="215.699" y="129.667"/>
      <point x="203.282" y="141"/>
      <point x="201.333" y="161.667" type="curve"/>
      <point x="201.333" y="169.197"/>
      <point x="203.333" y="167.089"/>
    </contour>
  </outline>
</glyph>
<glyph name="d" format="2">
  <advance width="513"/>
  <unicode hex="0064"/>
  <outline>
    <contour>
      <point x="378.667" y="265" type="curve"/>
      <point x="360.333" y="187" type="line" smooth="yes"/>
      <point x="356.261" y="171"/>
      <point x="353.371" y="158.333"/>
      <point x="353.333" y="149.667" type="curve"/>
      <point x="349.333" y="147.667"/>
      <point x="344.667" y="139.667"/>
      <point x="360.667" y="139.667" type="curve"/>
      <point x="344.333" y="139.667"/>
      <point x="333.333" y="108.333"/>
      <point x="350.667" y="99.6667" type="curve"/>
      <point x="347.333" y="81"/>
      <point x="354.667" y="65.3333"/>
      <point x="373" y="65.3333" type="curve"/>
      <point x="376.667" y="40.6667"/>
      <point x="379.667" y="43.3333"/>
      <point x="393" y="72.6667" type="curve"/>
      <point x="391.047" y="72.6432"/>
      <point x="385.479" y="73.7604"/>
      <point x="385.667" y="81.6667" type="curve"/>
      <point x="385.652" y="84.9269"/>
      <point x="386.114" y="92.571"/>
      <point x="392" y="117.333" type="curve" smooth="yes"/>
      <point x="408.052" y="186.306"/>
      <point x="453.311" y="380.239"/>
      <point x="459.667" y="404" type="curve"/>
      <point x="469.667" y="436.333"/>
      <point x="480.667" y="452.667"/>
      <point x="496.667" y="455.333" type="curve"/>
      <point x="516.667" y="460"/>
      <point x="535" y="475.333" name=".hr01"/>
      <point x="545.667" y="493.667" type="curve" name=".hr02"/>
      <point x="526.667" y="490"/>
      <point x="474.667" y="487.667"/>
      <point x="442.667" y="485.667" type="curve"/>
      <point x="430.667" y="469.667"/>
      <point x="418" y="457.333"/>
      <point x="416.667" y="450.667" type="curve"/>
      <point x="440" y="450.667"/>
      <point x="451.667" y="450"/>
      <point x="451.667" y="434.667" type="curve" smooth="yes"/>
      <point x="451.667" y="432"/>
      <point x="451.667" y="427.667"/>
      <point x="449.333" y="417.667" type="curve"/>
      <point x="460" y="449.667" type="line"/>
      <point x="462.551" y="460.667"/>
      <point x="465.707" y="477.667"/>
      <point x="467" y="481.333" type="curve"/>
      <point x="459" y="505"/>
      <point x="438.667" y="525.333"/>
      <point x="403.667" y="525.333" type="curve"/>
      <point x="324.333" y="520.667"/>
      <point x="198.667" y="417.333"/>
      <point x="183.667" y="310.667" type="curve"/>
      <point x="181.667" y="272.667"/>
      <point x="190.333" y="209"/>
      <point x="247.333" y="206" type="curve"/>
      <point x="300.333" y="206"/>
      <point x="338.667" y="231.333"/>
      <point x="378.667" y="279.333" type="curve"/>
      <point x="378.919" y="275.831"/>
      <point x="379.583" y="270.611"/>
    </contour>
    <contour>
      <point x="209" y="42.6667" type="curve" smooth="yes"/>
      <point x="176" y="42.6667"/>
      <point x="167.333" y="94"/>
      <point x="167.333" y="147.667" type="curve" smooth="yes"/>
      <point x="167.333" y="255"/>
      <point x="238.333" y="398.667"/>
      <point x="326.667" y="398.667" type="curve" smooth="yes"/>
      <point x="367.667" y="398.667"/>
      <point x="390.333" y="348.333"/>
      <point x="390.333" y="316" type="curve"/>
      <point x="385" y="245.333"/>
      <point x="275.667" y="42.6667"/>
    </contour>
  </outline>
</glyph>
<glyph name="e" format="2">
  <advance width="402"/>
  <unicode hex="0065"/>
  <anchor x="329.667" y="500" name="t.uni0302"/>
  <anchor x="275.333" y="10" name="b.ogonek"/>
  <anchor x="220.667" y="10" name="b.cedilla"/>
  <anchor x="187.333" y="-60" name="b.minus-60"/>
  <outline>
    <contour>
      <point x="169" y="199" type="curve"/>
      <point x="406.667" y="246.333"/>
      <point x="428" y="311"/>
      <point x="428" y="364.666" type="curve" smooth="yes"/>
      <point x="428" y="410.333"/>
      <point x="381" y="439"/>
      <point x="322.333" y="439" type="curve" smooth="yes"/>
      <point x="143.334" y="439"/>
      <point x="69.6667" y="268.666"/>
      <point x="69.6667" y="143.667" type="curve" smooth="yes"/>
      <point x="69.6667" y="57"/>
      <point x="105.001" y="-10"/>
      <point x="203" y="-10" type="curve" smooth="yes"/>
      <point x="267.333" y="-10"/>
      <point x="334" y="24.333"/>
      <point x="393" y="100.333" type="curve"/>
      <point x="388" y="111.333"/>
      <point x="379" y="119.333"/>
      <point x="367" y="119.333" type="curve"/>
      <point x="310" y="61.333"/>
      <point x="284.333" y="50"/>
      <point x="236.334" y="50" type="curve" smooth="yes"/>
      <point x="193.334" y="50"/>
      <point x="168" y="82"/>
      <point x="168" y="165" type="curve" smooth="yes"/>
      <point x="168" y="170"/>
      <point x="168" y="191"/>
    </contour>
    <contour>
      <point x="344.333" y="365.666" type="curve" smooth="yes"/>
      <point x="344.333" y="279.666"/>
      <point x="244.334" y="246.333"/>
      <point x="176" y="236.666" type="curve"/>
      <point x="210.667" y="378.333"/>
      <point x="260" y="404.333"/>
      <point x="305.667" y="404.333" type="curve" smooth="yes"/>
      <point x="332" y="404.333"/>
      <point x="344.333" y="395.666"/>
    </contour>
  </outline>
</glyph>
<glyph name="f" format="2">
  <advance width="342"/>
  <unicode hex="0066"/>
  <anchor x="420.333" y="740" name="t.uni0302"/>
  <outline>
    <contour>
      <point x="189" y="387.333" type="line"/>
      <point x="168.333" y="273.667"/>
      <point x="158" y="216"/>
      <point x="148" y="141" type="curve" smooth="yes"/>
      <point x="139.667" y="79.6667"/>
      <point x="122.667" y="-198.333"/>
      <point x="33.3333" y="-198.333" type="curve" smooth="yes"/>
      <point x="19.6667" y="-198.333"/>
      <point x="13.3333" y="-189.333"/>
      <point x="6.33333" y="-178" type="curve" smooth="yes"/>
      <point x="-4.33333" y="-161"/>
      <point x="-24" y="-144.667"/>
      <point x="-46.3333" y="-144.667" type="curve" smooth="yes"/>
      <point x="-76" y="-144.667"/>
      <point x="-86" y="-166"/>
      <point x="-86" y="-184" type="curve" smooth="yes"/>
      <point x="-86" y="-207.667"/>
      <point x="-59.3333" y="-236.333"/>
      <point x="13.3333" y="-236.333" type="curve" smooth="yes"/>
      <point x="173.667" y="-236.333"/>
      <point x="211.667" y="16.6667"/>
      <point x="235.667" y="130" type="curve" smooth="yes"/>
      <point x="252" y="208"/>
      <point x="267.333" y="283"/>
      <point x="282.333" y="368.333" type="curve" smooth="yes"/>
      <point x="285.667" y="387.333" type="line"/>
      <point x="378.667" y="387.333" type="line" smooth="yes"/>
      <point x="387.667" y="387.333"/>
      <point x="402.667" y="391.333"/>
      <point x="404.667" y="399.333" type="curve" name=".hr01"/>
      <point x="404.667" y="399.333"/>
      <point x="409.667" y="423"/>
      <point x="409.667" y="424" type="curve"/>
      <point x="409.667" y="427"/>
      <point x="407.667" y="429"/>
      <point x="402.667" y="429" type="curve" smooth="yes"/>
      <point x="292.667" y="429" type="line"/>
      <point x="303.667" y="486" type="line" smooth="yes"/>
      <point x="318.333" y="562.333"/>
      <point x="351" y="662"/>
      <point x="412" y="662" type="curve" smooth="yes"/>
      <point x="436" y="662"/>
      <point x="448.667" y="655"/>
      <point x="454" y="632" type="curve"/>
      <point x="458.333" y="608.333"/>
      <point x="467" y="578.333"/>
      <point x="503.333" y="578.333" type="curve" smooth="yes"/>
      <point x="536.333" y="578.333"/>
      <point x="546" y="605"/>
      <point x="546" y="619" type="curve" smooth="yes"/>
      <point x="546" y="668.333"/>
      <point x="478.333" y="698.667"/>
      <point x="413" y="698.667" type="curve" smooth="yes"/>
      <point x="272.333" y="698.667"/>
      <point x="222.333" y="542.667"/>
      <point x="199" y="429" type="curve"/>
      <point x="133" y="426" type="line" smooth="yes"/>
      <point x="114" y="425"/>
      <point x="107" y="417"/>
      <point x="105" y="409" type="curve"/>
      <point x="104" y="406"/>
      <point x="101" y="391.333"/>
      <point x="101" y="389.333" type="curve" smooth="yes"/>
      <point x="101" y="387.333" name=".hr02"/>
      <point x="104" y="387.333"/>
      <point x="107" y="387.333" type="curve" smooth="yes"/>
    </contour>
  </outline>
</glyph>
<glyph name="i" format="2">
  <advance width="298"/>
  <unicode hex="0069"/>
  <anchor x="218" y="10" name="b.ogonek"/>
  <anchor x="159" y="-60" name="b.minus-60"/>
  <outline>
    <contour>
      <point x="202.667" y="578.001" type="curve" smooth="yes"/>
      <point x="202.667" y="547"/>
      <point x="224.667" y="524.667"/>
      <point x="256.001" y="524.667" type="curve" smooth="yes"/>
      <point x="288.334" y="524.667"/>
      <point x="309.334" y="547"/>
      <point x="309.334" y="578.001" type="curve" smooth="yes"/>
      <point x="309.334" y="609.334"/>
      <point x="288.334" y="631.334"/>
      <point x="256.001" y="631.334" type="curve" smooth="yes"/>
      <point x="224.667" y="631.334"/>
      <point x="202.667" y="609.334"/>
    </contour>
    <contour>
      <point x="155.334" y="249.667" type="line"/>
      <point x="125" y="114.667" type="line" smooth="yes"/>
      <point x="112.334" y="59"/>
      <point x="110.334" y="46"/>
      <point x="110.334" y="34.667" type="curve" smooth="yes"/>
      <point x="110.334" y="8"/>
      <point x="121.334" y="-10.333"/>
      <point x="155" y="-10.333" type="curve" smooth="yes"/>
      <point x="210.334" y="-10.333"/>
      <point x="263.334" y="23.333"/>
      <point x="309.334" y="82.333" type="curve"/>
      <point x="306.334" y="91.333"/>
      <point x="298.334" y="103"/>
      <point x="284.334" y="103" type="curve"/>
      <point x="258.334" y="73"/>
      <point x="227.667" y="54"/>
      <point x="217" y="54" type="curve" smooth="yes"/>
      <point x="210.667" y="54"/>
      <point x="207.334" y="59.667"/>
      <point x="207.334" y="68.667" type="curve" smooth="yes"/>
      <point x="207.334" y="79.667"/>
      <point x="212" y="102"/>
      <point x="217" y="123.667" type="curve" smooth="yes"/>
      <point x="245.334" y="249.667" type="line"/>
    </contour>
    <contour>
      <point x="155.334" y="249.667" type="line"/>
      <point x="245.334" y="249.667" type="line"/>
      <point x="261.001" y="319.667" type="line" smooth="yes"/>
      <point x="273.334" y="375"/>
      <point x="284.667" y="405"/>
      <point x="284.667" y="420" type="curve" smooth="yes"/>
      <point x="284.667" y="430.667"/>
      <point x="279.334" y="436"/>
      <point x="271.001" y="436" type="curve"/>
      <point x="239.334" y="429.667"/>
      <point x="168.334" y="424.334"/>
      <point x="121" y="423" type="curve"/>
      <point x="114" y="415"/>
      <point x="115" y="400.334"/>
      <point x="121" y="391.334" type="curve"/>
      <point x="161" y="388.334" type="line" smooth="yes"/>
      <point x="173" y="387.334"/>
      <point x="179" y="378.334"/>
      <point x="179" y="367" type="curve" smooth="yes"/>
      <point x="179" y="359.334"/>
      <point x="176.334" y="345.667"/>
      <point x="171" y="320.667" type="curve" smooth="yes"/>
    </contour>
  </outline>
</glyph>
<glyph name="j" format="2">
  <advance width="274"/>
  <unicode hex="006A"/>
  <outline>
    <contour>
      <point x="205.333" y="578.667" type="curve" smooth="yes"/>
      <point x="205.333" y="550.333"/>
      <point x="228" y="524.667"/>
      <point x="258.667" y="524.667" type="curve" smooth="yes"/>
      <point x="291" y="524.667"/>
      <point x="314.333" y="551.333"/>
      <point x="314.333" y="577.333" type="curve" smooth="yes"/>
      <point x="314.333" y="604.667"/>
      <point x="292" y="631.333"/>
      <point x="260.667" y="631.333" type="curve" smooth="yes"/>
      <point x="227.667" y="631.333"/>
      <point x="205.333" y="606"/>
    </contour>
    <contour>
      <point x="117" y="86.6667" type="line" smooth="yes"/>
      <point x="85.3333" y="-58.3333"/>
      <point x="62.6667" y="-164"/>
      <point x="23.3333" y="-164" type="curve" smooth="yes"/>
      <point x="-7" y="-164"/>
      <point x="-3.33333" y="-111"/>
      <point x="-58" y="-111" type="curve" smooth="yes"/>
      <point x="-72.6667" y="-111"/>
      <point x="-90.3333" y="-122.667"/>
      <point x="-90.3333" y="-146.667" type="curve" smooth="yes"/>
      <point x="-90.3333" y="-183.667"/>
      <point x="-48" y="-199.667"/>
      <point x="1" y="-199.667" type="curve" smooth="yes"/>
      <point x="112" y="-199.667"/>
      <point x="161.333" y="-115.667"/>
      <point x="191" y="16" type="curve" smooth="yes"/>
      <point x="243.333" y="249.667" type="line"/>
      <point x="153.333" y="249.667" type="line"/>
    </contour>
    <contour>
      <point x="153.333" y="249.667" type="line"/>
      <point x="243.333" y="249.667" type="line"/>
      <point x="259" y="319.667" type="line" smooth="yes"/>
      <point x="271.333" y="375"/>
      <point x="282.667" y="405"/>
      <point x="282.667" y="420" type="curve" smooth="yes"/>
      <point x="282.667" y="430.667"/>
      <point x="277.333" y="436"/>
      <point x="269" y="436" type="curve"/>
      <point x="237.333" y="429.667"/>
      <point x="166.333" y="424.333"/>
      <point x="119" y="423" type="curve"/>
      <point x="112" y="415"/>
      <point x="113" y="400.333"/>
      <point x="119" y="391.333" type="curve"/>
      <point x="159" y="388.333" type="line" smooth="yes"/>
      <point x="171" y="387.333"/>
      <point x="177" y="378.333"/>
      <point x="177" y="367" type="curve" smooth="yes"/>
      <point x="177" y="359.333"/>
      <point x="174.333" y="345.667"/>
      <point x="169" y="320.667" type="curve" smooth="yes"/>
    </contour>
  </outline>
</glyph>
<glyph name="k" format="2">
  <advance width="511"/>
  <unicode hex="006B"/>
  <anchor x="417.333" y="740" name="t.uni0302"/>
  <anchor x="252.333" y="-60" name="b.minus-60"/>
  <outline>
    <contour>
      <point x="209.667" y="230.666" type="line"/>
      <point x="220" y="237"/>
      <point x="229" y="237"/>
      <point x="237.667" y="237" type="curve" smooth="yes"/>
      <point x="245.667" y="237"/>
      <point x="252.667" y="230"/>
      <point x="257.667" y="221" type="curve" smooth="yes"/>
      <point x="275.667" y="189"/>
      <point x="284.667" y="138"/>
      <point x="304.667" y="93" type="curve" smooth="yes"/>
      <point x="335.667" y="25"/>
      <point x="360" y="-6.667"/>
      <point x="397" y="-9.333" type="curve"/>
      <point x="400.333" y="-10"/>
      <point x="404.333" y="-10"/>
      <point x="407.667" y="-10" type="curve"/>
      <point x="446" y="-8.667"/>
      <point x="486" y="21"/>
      <point x="516.667" y="77" type="curve"/>
      <point x="509.667" y="85"/>
      <point x="503" y="91.333"/>
      <point x="492" y="91.333" type="curve"/>
      <point x="472" y="62.333"/>
      <point x="451.333" y="45.333"/>
      <point x="440.333" y="45.333" type="curve" smooth="yes"/>
      <point x="423.667" y="45.333"/>
      <point x="416.333" y="58.666"/>
      <point x="409.333" y="75.333" type="curve"/>
      <point x="408" y="78"/>
      <point x="406.667" y="80.666"/>
      <point x="405.333" y="83.333" type="curve"/>
      <point x="384" y="132"/>
      <point x="372.333" y="164"/>
      <point x="360.333" y="191.333" type="curve"/>
      <point x="356.667" y="197.666"/>
      <point x="354" y="204.333"/>
      <point x="350.333" y="210.333" type="curve"/>
      <point x="335.333" y="237"/>
      <point x="326.333" y="251.333"/>
      <point x="296.333" y="259.333" type="curve"/>
      <point x="296" y="263.333" type="line"/>
      <point x="341" y="303.333" type="line" smooth="yes"/>
      <point x="350.667" y="312"/>
      <point x="359.667" y="319.333"/>
      <point x="368" y="326.666" type="curve"/>
      <point x="399.333" y="352.666"/>
      <point x="420" y="362.333"/>
      <point x="437.333" y="362.333" type="curve" smooth="yes"/>
      <point x="448" y="362.333"/>
      <point x="454" y="359"/>
      <point x="459.667" y="354" type="curve"/>
      <point x="468" y="348"/>
      <point x="477.667" y="339.333"/>
      <point x="496.667" y="339.333" type="curve" smooth="yes"/>
      <point x="515.333" y="339.333"/>
      <point x="538.667" y="360"/>
      <point x="544" y="386.666" type="curve"/>
      <point x="544.667" y="390.666"/>
      <point x="545.333" y="395.333"/>
      <point x="545" y="399.666" type="curve" smooth="yes"/>
      <point x="543.333" y="426.333"/>
      <point x="521.667" y="439"/>
      <point x="491" y="439" type="curve" smooth="yes"/>
      <point x="459" y="439"/>
      <point x="394.667" y="401"/>
      <point x="322.667" y="337" type="curve"/>
      <point x="288" y="307.666" type="line"/>
      <point x="285" y="305.333"/>
      <point x="282.667" y="302.666"/>
      <point x="279.667" y="300.333" type="curve"/>
      <point x="260" y="284"/>
      <point x="235.667" y="266.333"/>
      <point x="212.667" y="274.666" type="curve"/>
    </contour>
    <contour>
      <point x="173.667" y="31.666" type="curve" smooth="yes"/>
      <point x="296.667" y="583" type="line" smooth="yes"/>
      <point x="307.667" y="633"/>
      <point x="313" y="656.667"/>
      <point x="321.667" y="685" type="curve"/>
      <point x="321.667" y="694"/>
      <point x="316.333" y="698"/>
      <point x="306" y="698" type="curve"/>
      <point x="263.333" y="684.333"/>
      <point x="196.667" y="675.667"/>
      <point x="151.667" y="672" type="curve"/>
      <point x="147.333" y="665"/>
      <point x="144.333" y="651.333"/>
      <point x="146.667" y="641.333" type="curve"/>
      <point x="190" y="637.667"/>
      <point x="208.667" y="627.333"/>
      <point x="208.667" y="606.333" type="curve" smooth="yes"/>
      <point x="208.667" y="599.333"/>
      <point x="206.667" y="583.333"/>
      <point x="202" y="563" type="curve" smooth="yes"/>
      <point x="81" y="24.333" type="line" smooth="yes"/>
      <point x="77.333" y="8"/>
      <point x="92.667" y="0"/>
      <point x="103.667" y="0" type="curve" smooth="yes"/>
      <point x="134.667" y="0" type="line" smooth="yes"/>
      <point x="154" y="0"/>
      <point x="169" y="9.667"/>
    </contour>
  </outline>
</glyph>
<glyph name="l" format="2">
  <advance width="285"/>
  <unicode hex="006C"/>
  <anchor x="276.333" y="740" name="t.uni0302"/>
  <anchor x="135.333" y="-60" name="b.minus-60"/>
  <outline>
    <contour>
      <point x="196" y="511.666" type="line"/>
      <point x="109" y="118.666" type="line" smooth="yes"/>
      <point x="103.333" y="93"/>
      <point x="96.333" y="56"/>
      <point x="96.333" y="38.333" type="curve" smooth="yes"/>
      <point x="96.333" y="14.667"/>
      <point x="104.333" y="-10"/>
      <point x="141.333" y="-10" type="curve" smooth="yes"/>
      <point x="194.666" y="-10"/>
      <point x="253.333" y="20.667"/>
      <point x="300" y="89" type="curve"/>
      <point x="296.333" y="98.666"/>
      <point x="289" y="109.666"/>
      <point x="275.666" y="109.666" type="curve"/>
      <point x="247" y="75.666"/>
      <point x="214.333" y="55.333"/>
      <point x="203" y="55.333" type="curve" smooth="yes"/>
      <point x="195" y="55.333"/>
      <point x="190.666" y="62"/>
      <point x="190.666" y="70.666" type="curve" smooth="yes"/>
      <point x="190.666" y="80.333"/>
      <point x="193" y="95.666"/>
      <point x="200" y="127" type="curve" smooth="yes"/>
      <point x="286" y="511.666" type="line"/>
    </contour>
    <contour>
      <point x="196" y="511.666" type="line"/>
      <point x="286" y="511.666" type="line"/>
      <point x="301.667" y="581.666" type="line" smooth="yes"/>
      <point x="314" y="637"/>
      <point x="325.333" y="667"/>
      <point x="325.333" y="682" type="curve" smooth="yes"/>
      <point x="325.333" y="692.666"/>
      <point x="320" y="698"/>
      <point x="311.667" y="698" type="curve"/>
      <point x="280" y="691.666"/>
      <point x="209" y="686.333"/>
      <point x="161.667" y="685" type="curve"/>
      <point x="154.667" y="677"/>
      <point x="155.667" y="662.333"/>
      <point x="161.667" y="653.333" type="curve"/>
      <point x="201.667" y="650.333" type="line" smooth="yes"/>
      <point x="213.667" y="649.333"/>
      <point x="219.667" y="640.333"/>
      <point x="219.667" y="629" type="curve" smooth="yes"/>
      <point x="219.667" y="621.333"/>
      <point x="217" y="607.666"/>
      <point x="211.667" y="582.666" type="curve" smooth="yes"/>
    </contour>
  </outline>
</glyph>
<glyph name="m" format="2">
  <advance width="794"/>
  <unicode hex="006D"/>
  <anchor x="493.333" y="520" name="t.uni0302"/>
  <anchor x="384.667" y="-60" name="b.minus-60"/>
  <outline>
    <contour>
      <point x="155" y="310" type="line"/>
      <point x="101.333" y="72" type="line" smooth="yes"/>
      <point x="92.0003" y="32"/>
      <point x="89.3333" y="20.333"/>
      <point x="89.3333" y="12.333" type="curve" smooth="yes"/>
      <point x="89.3333" y="-2"/>
      <point x="101.333" y="-10"/>
      <point x="136.333" y="-10" type="curve" smooth="yes"/>
      <point x="167.333" y="-10"/>
      <point x="172.666" y="-4.333"/>
      <point x="191.333" y="72" type="curve" smooth="yes"/>
      <point x="230.666" y="231.333" type="line"/>
      <point x="303.666" y="334"/>
      <point x="356.333" y="375.667"/>
      <point x="391" y="375.667" type="curve" smooth="yes"/>
      <point x="410.666" y="375.667"/>
      <point x="413.666" y="362.667"/>
      <point x="413.666" y="339.334" type="curve" smooth="yes"/>
      <point x="413.666" y="328"/>
      <point x="412.666" y="307"/>
      <point x="405.333" y="275" type="curve" smooth="yes"/>
      <point x="357.666" y="72" type="line" smooth="yes"/>
      <point x="348" y="30.666"/>
      <point x="346.333" y="20.667"/>
      <point x="346.333" y="15" type="curve" smooth="yes"/>
      <point x="346.333" y="1"/>
      <point x="354.666" y="-10"/>
      <point x="388.333" y="-10" type="curve" smooth="yes"/>
      <point x="425.333" y="-10"/>
      <point x="430.666" y="-4.333"/>
      <point x="448.333" y="72" type="curve" smooth="yes"/>
      <point x="487" y="238.667" type="line"/>
      <point x="525.333" y="292"/>
      <point x="585.666" y="375.667"/>
      <point x="638.666" y="375.667" type="curve" smooth="yes"/>
      <point x="653.666" y="375.667"/>
      <point x="665" y="369.334"/>
      <point x="665" y="336.667" type="curve" smooth="yes"/>
      <point x="665" y="327"/>
      <point x="664" y="304.334"/>
      <point x="656" y="272.333" type="curve" smooth="yes"/>
      <point x="617.666" y="114.333" type="line" smooth="yes"/>
      <point x="606.666" y="69.666"/>
      <point x="602.666" y="47"/>
      <point x="602.666" y="33.333" type="curve" smooth="yes"/>
      <point x="602.666" y="1.667"/>
      <point x="621.333" y="-10"/>
      <point x="650.333" y="-10" type="curve" smooth="yes"/>
      <point x="710" y="-10"/>
      <point x="766.666" y="24"/>
      <point x="802.666" y="94.666" type="curve"/>
      <point x="800.333" y="103.666"/>
      <point x="791.666" y="113.333"/>
      <point x="778.333" y="113.333" type="curve"/>
      <point x="753.666" y="78"/>
      <point x="723.666" y="54.333"/>
      <point x="710.333" y="54.333" type="curve" smooth="yes"/>
      <point x="703.333" y="54.333"/>
      <point x="699.666" y="60.333"/>
      <point x="699.666" y="69.666" type="curve" smooth="yes"/>
      <point x="699.666" y="74.666"/>
      <point x="700.666" y="86.333"/>
      <point x="706.333" y="108.666" type="curve" smooth="yes"/>
      <point x="749.666" y="280.333" type="line" smooth="yes"/>
      <point x="757.666" y="312.667"/>
      <point x="760.666" y="335.667"/>
      <point x="760.666" y="352.667" type="curve" smooth="yes"/>
      <point x="760.666" y="412"/>
      <point x="728" y="439"/>
      <point x="682.333" y="439" type="curve" smooth="yes"/>
      <point x="633.333" y="439"/>
      <point x="572" y="404.667"/>
      <point x="504.333" y="317" type="curve"/>
      <point x="506.666" y="329.667"/>
      <point x="507.333" y="343.334"/>
      <point x="507.333" y="352.334" type="curve" smooth="yes"/>
      <point x="507.333" y="418.667"/>
      <point x="474" y="439"/>
      <point x="432" y="439" type="curve" smooth="yes"/>
      <point x="367.666" y="439"/>
      <point x="307.666" y="386"/>
      <point x="245.666" y="310" type="curve"/>
    </contour>
    <contour>
      <point x="155" y="310" type="line"/>
      <point x="244" y="310" type="line"/>
      <point x="246" y="319.667" type="line" smooth="yes"/>
      <point x="257.666" y="375"/>
      <point x="271" y="405"/>
      <point x="271" y="420" type="curve" smooth="yes"/>
      <point x="271" y="430.667"/>
      <point x="265.666" y="436"/>
      <point x="257.333" y="436" type="curve"/>
      <point x="225.666" y="429.667"/>
      <point x="154.666" y="424.333"/>
      <point x="107.333" y="423" type="curve"/>
      <point x="100.333" y="415"/>
      <point x="101.333" y="400.334"/>
      <point x="107.333" y="391.334" type="curve"/>
      <point x="147.333" y="388.334" type="line" smooth="yes"/>
      <point x="159.333" y="387.334"/>
      <point x="165.666" y="378.334"/>
      <point x="165.666" y="367" type="curve" smooth="yes"/>
      <point x="165.666" y="359.334"/>
      <point x="162.666" y="342"/>
      <point x="157.333" y="320" type="curve" smooth="yes"/>
    </contour>
  </outline>
</glyph>
<glyph name="n" format="2">
  <advance width="550"/>
  <unicode hex="006E"/>
  <outline>
    <contour>
      <point x="152" y="295" type="curve" smooth="yes"/>
      <point x="102" y="72" type="line" smooth="yes"/>
      <point x="97" y="52"/>
      <point x="89" y="27"/>
      <point x="89" y="17" type="curve" smooth="yes"/>
      <point x="89" y="1"/>
      <point x="99.6667" y="-10"/>
      <point x="139.667" y="-10" type="curve" smooth="yes"/>
      <point x="183" y="-10"/>
      <point x="184" y="30.6667"/>
      <point x="192.333" y="67.6667" type="curve" smooth="yes"/>
      <point x="193.333" y="71.6667"/>
      <point x="194.333" y="76"/>
      <point x="195.333" y="80" type="curve" smooth="yes"/>
      <point x="231.333" y="234.667" type="line"/>
      <point x="269" y="284"/>
      <point x="340.667" y="375.667"/>
      <point x="384" y="375.667" type="curve" smooth="yes"/>
      <point x="406.333" y="375.667"/>
      <point x="419" y="369.333"/>
      <point x="419" y="339.667" type="curve" smooth="yes"/>
      <point x="419" y="327"/>
      <point x="414.667" y="305"/>
      <point x="407.333" y="275" type="curve" smooth="yes"/>
      <point x="369.667" y="115" type="line" smooth="yes"/>
      <point x="361.667" y="83"/>
      <point x="354" y="41.6667"/>
      <point x="356" y="23" type="curve"/>
      <point x="358.667" y="3.66667"/>
      <point x="369.667" y="-10"/>
      <point x="399.667" y="-10" type="curve" smooth="yes"/>
      <point x="455" y="-10"/>
      <point x="510" y="23.6667"/>
      <point x="556" y="82.6667" type="curve"/>
      <point x="553" y="91.6667"/>
      <point x="545" y="103.333"/>
      <point x="531" y="103.333" type="curve"/>
      <point x="505" y="73.3333"/>
      <point x="474.333" y="54.3333"/>
      <point x="464.333" y="54.3333" type="curve" smooth="yes"/>
      <point x="457.333" y="54.3333"/>
      <point x="454.333" y="59.6667"/>
      <point x="454.333" y="70.3333" type="curve"/>
      <point x="453.667" y="80.6667"/>
      <point x="458.333" y="101.333"/>
      <point x="463.667" y="124" type="curve" smooth="yes"/>
      <point x="501.667" y="283" type="line" smooth="yes"/>
      <point x="509.667" y="318"/>
      <point x="514.667" y="341"/>
      <point x="514.667" y="359" type="curve" smooth="yes"/>
      <point x="514.667" y="416.667"/>
      <point x="483.333" y="439"/>
      <point x="441" y="439" type="curve" smooth="yes"/>
      <point x="383.667" y="439"/>
      <point x="328.667" y="406.333"/>
      <point x="246.667" y="309.667" type="curve"/>
      <point x="245.333" y="311" type="line"/>
      <point x="246.333" y="314.667"/>
      <point x="247.333" y="318.667"/>
      <point x="248.333" y="322.333" type="curve" smooth="yes"/>
      <point x="259.333" y="359"/>
      <point x="266.333" y="399"/>
      <point x="266.333" y="414" type="curve" smooth="yes"/>
      <point x="266.333" y="428"/>
      <point x="257.333" y="436" name=".hr01"/>
      <point x="244.333" y="436" type="curve" smooth="yes"/>
      <point x="212.333" y="436"/>
      <point x="152" y="429.667"/>
      <point x="105" y="423" type="curve"/>
      <point x="98" y="415"/>
      <point x="99" y="400.667"/>
      <point x="105" y="391.667" type="curve"/>
      <point x="145" y="388.667" type="line" smooth="yes"/>
      <point x="157.667" y="387.667"/>
      <point x="163" y="376" name=".hr02"/>
      <point x="163" y="365.333" type="curve" smooth="yes"/>
      <point x="163" y="356.333"/>
      <point x="161" y="335.667"/>
    </contour>
  </outline>
</glyph>
<glyph name="o" format="2">
  <advance width="458"/>
  <unicode hex="006F"/>
  <anchor x="333.333" y="500" name="t.uni0302"/>
  <anchor x="299" y="10" name="b.ogonek"/>
  <anchor x="220.667" y="-60" name="b.minus-60"/>
  <outline>
    <contour>
      <point x="300.333" y="397" type="line"/>
      <point x="328.666" y="397"/>
      <point x="376.666" y="362.333"/>
      <point x="376.666" y="252.333" type="curve" smooth="yes"/>
      <point x="376.666" y="155"/>
      <point x="335.666" y="32"/>
      <point x="247.999" y="32" type="curve"/>
      <point x="221.333" y="-10" type="line"/>
      <point x="367.999" y="-10"/>
      <point x="475.666" y="124.667"/>
      <point x="475.666" y="267" type="curve" smooth="yes"/>
      <point x="475.666" y="323.667"/>
      <point x="453.999" y="439"/>
      <point x="326.999" y="439" type="curve"/>
    </contour>
    <contour>
      <point x="248" y="32" type="line"/>
      <point x="219.667" y="32"/>
      <point x="171.667" y="66.667"/>
      <point x="171.667" y="176.667" type="curve" smooth="yes"/>
      <point x="171.667" y="274"/>
      <point x="212.667" y="397"/>
      <point x="300.334" y="397" type="curve"/>
      <point x="327" y="439" type="line"/>
      <point x="180.334" y="439"/>
      <point x="72.667" y="304.333"/>
      <point x="72.667" y="162" type="curve" smooth="yes"/>
      <point x="72.667" y="105.333"/>
      <point x="94.334" y="-10"/>
      <point x="221.334" y="-10" type="curve"/>
    </contour>
  </outline>
</glyph>
<glyph name="p" format="2">
  <advance width="489"/>
  <unicode hex="0070"/>
  <anchor x="356.333" y="520" name="t.uni0302"/>
  <anchor x="256.333" y="-60" name="b.minus-60"/>
  <outline>
    <contour>
      <point x="244.334" y="321" type="line" smooth="yes"/>
      <point x="256" y="374.333"/>
      <point x="259" y="388.666"/>
      <point x="269.334" y="423" type="curve"/>
      <point x="269.334" y="432"/>
      <point x="264" y="436"/>
      <point x="253.667" y="436" type="curve"/>
      <point x="211" y="422.333"/>
      <point x="145" y="413.666"/>
      <point x="100" y="410" type="curve"/>
      <point x="95.667" y="403"/>
      <point x="92.667" y="389.333"/>
      <point x="95" y="379.333" type="curve"/>
      <point x="138.334" y="375.666"/>
      <point x="157" y="365.333"/>
      <point x="157" y="348" type="curve" smooth="yes"/>
      <point x="157" y="337.333"/>
      <point x="155" y="321.333"/>
      <point x="150.334" y="301" type="curve" smooth="yes"/>
      <point x="43.667" y="-157.667" type="line" smooth="yes"/>
      <point x="37" y="-185.667"/>
      <point x="22.667" y="-197.667"/>
      <point x="-9.333" y="-202.667" type="curve" smooth="yes"/>
      <point x="-28.333" y="-205.667" type="line"/>
      <point x="-33.333" y="-206.667"/>
      <point x="-38.333" y="-207.667"/>
      <point x="-38.333" y="-213.667" type="curve" smooth="yes"/>
      <point x="-38.333" y="-236" type="line"/>
      <point x="-36.333" y="-238" type="line"/>
      <point x="-36.333" y="-238"/>
      <point x="36" y="-233.667"/>
      <point x="75.667" y="-233.333" type="curve"/>
      <point x="84.23" y="-233"/>
      <point x="102.348" y="-233"/>
      <point x="107.334" y="-233" type="curve" smooth="yes"/>
      <point x="144.334" y="-233"/>
      <point x="192.334" y="-235"/>
      <point x="192.334" y="-235" type="curve"/>
      <point x="194.334" y="-233" type="line"/>
      <point x="194.334" y="-209.667" type="line" smooth="yes"/>
      <point x="194.334" y="-204.667"/>
      <point x="192.334" y="-202.667"/>
      <point x="188.334" y="-201.667" type="curve"/>
      <point x="169.334" y="-198.667" type="line" smooth="yes"/>
      <point x="156.334" y="-196.667"/>
      <point x="135.334" y="-193.667"/>
      <point x="135.334" y="-169.667" type="curve" smooth="yes"/>
      <point x="135.334" y="-166.667"/>
      <point x="135.334" y="-162.667"/>
      <point x="136.334" y="-157.667" type="curve" smooth="yes"/>
    </contour>
    <contour>
      <point x="232" y="342" type="line"/>
      <point x="264.667" y="366.333"/>
      <point x="303.334" y="391.333"/>
      <point x="345" y="391.333" type="curve" smooth="yes"/>
      <point x="403" y="391.333"/>
      <point x="413.667" y="325.333"/>
      <point x="413.667" y="273" type="curve" smooth="yes"/>
      <point x="413.667" y="198"/>
      <point x="356" y="27.333"/>
      <point x="261.667" y="27.333" type="curve" smooth="yes"/>
      <point x="231.667" y="27.333"/>
      <point x="199.667" y="45.666"/>
      <point x="177.667" y="85.666" type="curve"/>
      <point x="169.667" y="33.333" type="line"/>
      <point x="186.667" y="11"/>
      <point x="216" y="-10"/>
      <point x="251" y="-10" type="curve" smooth="yes"/>
      <point x="394.667" y="-10"/>
      <point x="511" y="156.333"/>
      <point x="511" y="289" type="curve" smooth="yes"/>
      <point x="511" y="389"/>
      <point x="472.333" y="439"/>
      <point x="386.334" y="439" type="curve" smooth="yes"/>
      <point x="343" y="439"/>
      <point x="280.667" y="414"/>
      <point x="241.334" y="382.333" type="curve"/>
    </contour>
  </outline>
</glyph>
<glyph name="q" format="2">
  <advance width="504"/>
  <unicode hex="0071"/>
  <anchor x="360.667" y="500" name="t.uni0302"/>
  <anchor x="175.667" y="-60" name="b.minus-60"/>
  <outline>
    <contour>
      <point x="75.333" y="147" type="curve" smooth="yes"/>
      <point x="75.333" y="72"/>
      <point x="105" y="-10"/>
      <point x="199" y="-10" type="curve" smooth="yes"/>
      <point x="248" y="-10"/>
      <point x="297" y="14"/>
      <point x="359" y="100" type="curve"/>
      <point x="362" y="99" type="line"/>
      <point x="296" y="-161" type="line" smooth="yes"/>
      <point x="288.333" y="-190.333"/>
      <point x="262.666" y="-204.333"/>
      <point x="214.666" y="-209.333" type="curve"/>
      <point x="211.666" y="-218"/>
      <point x="211.666" y="-228.667"/>
      <point x="214.666" y="-238" type="curve"/>
      <point x="221.666" y="-238"/>
      <point x="285" y="-233"/>
      <point x="321" y="-233" type="curve" smooth="yes"/>
      <point x="360" y="-233"/>
      <point x="436" y="-235"/>
      <point x="444.333" y="-235" type="curve"/>
      <point x="448.333" y="-226.333"/>
      <point x="449" y="-213.667"/>
      <point x="444.333" y="-206" type="curve"/>
      <point x="404.333" y="-206"/>
      <point x="384.666" y="-196.667"/>
      <point x="384.666" y="-174.333" type="curve" smooth="yes"/>
      <point x="384.666" y="-170.667"/>
      <point x="385.333" y="-166"/>
      <point x="386.333" y="-161" type="curve"/>
      <point x="518" y="408.667" type="line" smooth="yes"/>
      <point x="519.666" y="416.667"/>
      <point x="521.333" y="424"/>
      <point x="521.333" y="430.667" type="curve" smooth="yes"/>
      <point x="521.333" y="440.667"/>
      <point x="514" y="444.667"/>
      <point x="506.333" y="444.667" type="curve" smooth="yes"/>
      <point x="497.333" y="444.667"/>
      <point x="479.666" y="436.667"/>
      <point x="469" y="424.667" type="curve"/>
      <point x="437" y="386" type="line"/>
      <point x="413.666" y="418.334"/>
      <point x="380.333" y="439"/>
      <point x="341" y="439" type="curve" smooth="yes"/>
      <point x="219" y="439"/>
      <point x="75.333" y="312"/>
    </contour>
    <contour>
      <point x="174.333" y="148" type="curve" smooth="yes"/>
      <point x="174.333" y="277.667"/>
      <point x="242" y="399.667"/>
      <point x="344" y="399.667" type="curve" smooth="yes"/>
      <point x="380" y="399.667"/>
      <point x="405" y="367.667"/>
      <point x="405" y="326.667" type="curve" smooth="yes"/>
      <point x="405" y="310.667"/>
      <point x="387" y="236"/>
      <point x="368" y="180" type="curve" smooth="yes"/>
      <point x="345" y="115"/>
      <point x="262.333" y="36"/>
      <point x="225.333" y="36" type="curve" smooth="yes"/>
      <point x="191.333" y="36"/>
      <point x="174.333" y="92"/>
    </contour>
  </outline>
</glyph>
<glyph name="r" format="2">
  <advance width="380"/>
  <unicode hex="0072"/>
  <outline>
    <contour>
      <point x="91.6667" y="17" type="curve" smooth="yes"/>
      <point x="91.6667" y="-3.66667"/>
      <point x="108.333" y="-10.6667"/>
      <point x="135.667" y="-10.6667" type="curve" smooth="yes"/>
      <point x="183.333" y="-10.6667"/>
      <point x="183.667" y="37.6667"/>
      <point x="192.667" y="72" type="curve" smooth="yes"/>
      <point x="224.667" y="202" type="line"/>
      <point x="272.667" y="289"/>
      <point x="319.333" y="363"/>
      <point x="344" y="363" type="curve" smooth="yes"/>
      <point x="354.667" y="363"/>
      <point x="360" y="357.667"/>
      <point x="366.333" y="350" type="curve"/>
      <point x="374" y="341.333"/>
      <point x="387.667" y="327.333" name=".hr01"/>
      <point x="402.667" y="327.333" type="curve" smooth="yes"/>
      <point x="432.667" y="327.333"/>
      <point x="450.667" y="359.333"/>
      <point x="450.667" y="388" type="curve" smooth="yes"/>
      <point x="450.667" y="417.667"/>
      <point x="425.667" y="439"/>
      <point x="395.333" y="439" type="curve" smooth="yes"/>
      <point x="347" y="439"/>
      <point x="289.333" y="385.333"/>
      <point x="245.333" y="292.333" type="curve"/>
      <point x="241.667" y="293.667" type="line"/>
      <point x="248" y="321.667" type="line" smooth="yes"/>
      <point x="256.667" y="360"/>
      <point x="263.333" y="394.667" name=".hr02"/>
      <point x="263.333" y="411.333" type="curve" smooth="yes"/>
      <point x="263.333" y="426"/>
      <point x="253.667" y="436"/>
      <point x="240.667" y="436" type="curve"/>
      <point x="208" y="429"/>
      <point x="148.333" y="423.667"/>
      <point x="105.333" y="423" type="curve"/>
      <point x="98.3333" y="415"/>
      <point x="99.3333" y="400.667"/>
      <point x="105.333" y="391.667" type="curve"/>
      <point x="145.333" y="388.667" type="line" smooth="yes"/>
      <point x="160.667" y="387.667"/>
      <point x="163.333" y="374"/>
      <point x="163.333" y="361.333" type="curve" smooth="yes"/>
      <point x="163.333" y="346.333"/>
      <point x="150.667" y="281"/>
      <point x="142.333" y="242.333" type="curve" smooth="yes"/>
      <point x="104.667" y="72" type="line" smooth="yes"/>
      <point x="100" y="51.3333"/>
      <point x="91.6667" y="31" name=".hr03"/>
    </contour>
  </outline>
</glyph>
<glyph name="s" format="2">
  <advance width="374"/>
  <unicode hex="0073"/>
  <anchor x="282" y="500" name="t.uni0302"/>
  <anchor x="209.333" y="10" name="b.cedilla"/>
  <anchor x="196.667" y="-60" name="b.minus-60"/>
  <outline>
    <contour>
      <point x="61" y="71.3333" type="curve" smooth="yes"/>
      <point x="61" y="25"/>
      <point x="123.333" y="-10"/>
      <point x="201.667" y="-10" type="curve" smooth="yes"/>
      <point x="297.667" y="-10"/>
      <point x="365.667" y="43.3333"/>
      <point x="365.667" y="117.333" type="curve" smooth="yes"/>
      <point x="365.667" y="167.667"/>
      <point x="335.667" y="211.333"/>
      <point x="269.333" y="254" type="curve" smooth="yes"/>
      <point x="238" y="274.667" type="line" smooth="yes"/>
      <point x="210" y="293.333"/>
      <point x="196" y="313.667"/>
      <point x="196" y="339.667" type="curve" smooth="yes"/>
      <point x="196" y="376.333"/>
      <point x="222.333" y="403"/>
      <point x="258.667" y="403" type="curve" smooth="yes"/>
      <point x="324.333" y="403"/>
      <point x="291.667" y="316"/>
      <point x="354" y="316" type="curve" smooth="yes"/>
      <point x="376.333" y="316"/>
      <point x="393.333" y="332.667"/>
      <point x="393.333" y="355.667" type="curve" smooth="yes"/>
      <point x="393.333" y="398.667"/>
      <point x="333.667" y="439"/>
      <point x="270.333" y="439" type="curve" smooth="yes"/>
      <point x="185.333" y="439"/>
      <point x="122.667" y="384.333"/>
      <point x="122.667" y="311.667" type="curve" smooth="yes"/>
      <point x="122.667" y="273"/>
      <point x="147.667" y="233.333"/>
      <point x="192" y="203" type="curve" smooth="yes"/>
      <point x="218" y="185" type="line" smooth="yes"/>
      <point x="259.667" y="155.667"/>
      <point x="280" y="126"/>
      <point x="280" y="88.3333" type="curve" smooth="yes"/>
      <point x="280" y="51"/>
      <point x="250" y="26"/>
      <point x="203.667" y="26" type="curve" smooth="yes"/>
      <point x="130" y="26"/>
      <point x="165" y="114.667"/>
      <point x="101" y="114.667" type="curve" smooth="yes"/>
      <point x="78.3333" y="114.667"/>
      <point x="61" y="96.3333"/>
    </contour>
  </outline>
</glyph>
<glyph name="u" format="2">
  <advance width="553"/>
  <unicode hex="0075"/>
  <anchor x="381.667" y="500" name="t.uni0302"/>
  <anchor x="468" y="10" name="b.ogonek"/>
  <anchor x="261" y="-60" name="b.minus-60"/>
  <outline>
    <contour>
      <point x="419.333" y="253.666" type="line"/>
      <point x="368" y="160.333"/>
      <point x="295.667" y="58.666"/>
      <point x="245" y="58.666" type="curve" smooth="yes"/>
      <point x="224.666" y="58.666"/>
      <point x="213.333" y="72.333"/>
      <point x="213.333" y="101.666" type="curve" smooth="yes"/>
      <point x="213.333" y="113.333"/>
      <point x="215.333" y="131.333"/>
      <point x="221" y="153.333" type="curve" smooth="yes"/>
      <point x="272.333" y="356.667" type="line" smooth="yes"/>
      <point x="279.667" y="385.667"/>
      <point x="282.333" y="398"/>
      <point x="282.333" y="406.667" type="curve" smooth="yes"/>
      <point x="282.333" y="426.333"/>
      <point x="270.333" y="440.333"/>
      <point x="236.666" y="440.333" type="curve" smooth="yes"/>
      <point x="182.666" y="440.333"/>
      <point x="120.667" y="405.667"/>
      <point x="74.667" y="346.667" type="curve"/>
      <point x="77.667" y="337.667"/>
      <point x="86.667" y="327"/>
      <point x="100.667" y="327" type="curve"/>
      <point x="126.667" y="357"/>
      <point x="160" y="376"/>
      <point x="170.666" y="376" type="curve" smooth="yes"/>
      <point x="177.333" y="376"/>
      <point x="180.333" y="370"/>
      <point x="180.333" y="362.333" type="curve" smooth="yes"/>
      <point x="180.333" y="353"/>
      <point x="175" y="328"/>
      <point x="169.333" y="306.333" type="curve" smooth="yes"/>
      <point x="129.333" y="150" type="line" smooth="yes"/>
      <point x="123.333" y="124.333"/>
      <point x="118" y="98.999"/>
      <point x="118" y="72.666" type="curve" smooth="yes"/>
      <point x="118" y="15"/>
      <point x="154.667" y="-8.667"/>
      <point x="200" y="-8.667" type="curve" smooth="yes"/>
      <point x="275.333" y="-8.667"/>
      <point x="341" y="66.333"/>
      <point x="405.334" y="164.333" type="curve"/>
    </contour>
    <contour>
      <point x="394" y="143.333" type="line"/>
      <point x="382.667" y="110.999"/>
      <point x="371.667" y="72.666"/>
      <point x="371.667" y="36.999" type="curve" smooth="yes"/>
      <point x="371.667" y="8.666"/>
      <point x="380.334" y="-10"/>
      <point x="414" y="-10" type="curve" smooth="yes"/>
      <point x="469.333" y="-10"/>
      <point x="520" y="23.666"/>
      <point x="566" y="82.666" type="curve"/>
      <point x="563" y="91.666"/>
      <point x="555" y="103.333"/>
      <point x="541" y="103.333" type="curve"/>
      <point x="515" y="73.333"/>
      <point x="484.333" y="54.333"/>
      <point x="473.667" y="54.333" type="curve" smooth="yes"/>
      <point x="467" y="54.333"/>
      <point x="464" y="60.333"/>
      <point x="464" y="69.666" type="curve" smooth="yes"/>
      <point x="464" y="80.666"/>
      <point x="468" y="98.999"/>
      <point x="473.667" y="123.999" type="curve" smooth="yes"/>
      <point x="528.333" y="353" type="line" smooth="yes"/>
      <point x="532.667" y="371.667"/>
      <point x="540" y="402.667"/>
      <point x="540" y="413.666" type="curve" smooth="yes"/>
      <point x="540" y="431.333"/>
      <point x="526.333" y="440.333"/>
      <point x="499.333" y="440.333" type="curve" smooth="yes"/>
      <point x="462.667" y="440.333"/>
      <point x="448.333" y="402"/>
      <point x="440.333" y="369.333" type="curve" smooth="yes"/>
      <point x="383.667" y="147" type="line"/>
    </contour>
  </outline>
</glyph>
<glyph name="v" format="2">
  <advance width="484"/>
  <unicode hex="0076"/>
  <anchor x="364.667" y="500" name="t.uni0302"/>
  <anchor x="271.333" y="-60" name="b.minus-60"/>
  <outline>
    <contour>
      <point x="314" y="86.667" type="line"/>
      <point x="287" y="299" type="line" smooth="yes"/>
      <point x="286.333" y="304.334"/>
      <point x="286" y="309.667"/>
      <point x="285" y="315" type="curve"/>
      <point x="275.666" y="383.667"/>
      <point x="263.333" y="429"/>
      <point x="234.333" y="436.333" type="curve"/>
      <point x="229" y="438.333"/>
      <point x="222.666" y="438.667"/>
      <point x="215.666" y="438" type="curve" smooth="yes"/>
      <point x="179" y="434"/>
      <point x="119" y="379"/>
      <point x="81.333" y="326.667" type="curve"/>
      <point x="84.333" y="315.334"/>
      <point x="93" y="307.334"/>
      <point x="106" y="305.334" type="curve"/>
      <point x="133" y="334"/>
      <point x="158.333" y="353.667"/>
      <point x="173.666" y="353.667" type="curve" smooth="yes"/>
      <point x="182.333" y="353.667"/>
      <point x="187.666" y="339.667"/>
      <point x="195" y="296" type="curve" smooth="yes"/>
      <point x="233.333" y="54" type="line" smooth="yes"/>
      <point x="240.333" y="13"/>
      <point x="249.666" y="-12"/>
      <point x="268" y="-12" type="curve" smooth="yes"/>
      <point x="280.666" y="-12"/>
      <point x="297" y="3.334"/>
      <point x="317.666" y="23.667" type="curve" smooth="yes"/>
      <point x="352.333" y="58"/>
      <point x="392.666" y="107.334"/>
      <point x="408" y="128.334" type="curve" smooth="yes"/>
      <point x="429.333" y="157.667"/>
      <point x="475.666" y="219"/>
      <point x="503.666" y="285" type="curve" smooth="yes"/>
      <point x="518.666" y="320"/>
      <point x="530.666" y="356"/>
      <point x="530.666" y="392" type="curve" smooth="yes"/>
      <point x="530.666" y="420"/>
      <point x="513.999" y="439"/>
      <point x="476" y="439" type="curve" smooth="yes"/>
      <point x="445.666" y="439"/>
      <point x="425.333" y="427.667"/>
      <point x="425.333" y="402.333" type="curve" smooth="yes"/>
      <point x="425.333" y="396.667"/>
      <point x="427.333" y="386.334"/>
      <point x="430.333" y="382.334" type="curve"/>
      <point x="446.333" y="358"/>
      <point x="452" y="336"/>
      <point x="451.333" y="319.334" type="curve" smooth="yes"/>
      <point x="449.333" y="275"/>
      <point x="414.333" y="201"/>
      <point x="375" y="149.667" type="curve" smooth="yes"/>
      <point x="361.666" y="132.667"/>
      <point x="332.666" y="96.334"/>
      <point x="318" y="84.667" type="curve"/>
    </contour>
  </outline>
</glyph>
<glyph name="w" format="2">
  <advance width="702"/>
  <unicode hex="0077"/>
  <anchor x="464" y="500" name="t.uni0302"/>
  <anchor x="379.667" y="-60" name="b.minus-60"/>
  <outline>
    <contour>
      <point x="440.333" y="244.667" type="line"/>
      <point x="452.333" y="187.667"/>
      <point x="465" y="120.334"/>
      <point x="475" y="60.667" type="curve"/>
      <point x="475.333" y="54.667"/>
      <point x="476.333" y="49.334"/>
      <point x="477.666" y="44" type="curve"/>
      <point x="484.333" y="2.667"/>
      <point x="491.666" y="-12"/>
      <point x="505" y="-12" type="curve" smooth="yes"/>
      <point x="519" y="-12"/>
      <point x="536" y="1.334"/>
      <point x="557.333" y="25.334" type="curve" smooth="yes"/>
      <point x="589" y="60.667"/>
      <point x="622.666" y="107"/>
      <point x="637" y="127.667" type="curve" smooth="yes"/>
      <point x="658.666" y="157.667"/>
      <point x="693.667" y="219"/>
      <point x="721.667" y="285" type="curve" smooth="yes"/>
      <point x="736.667" y="320"/>
      <point x="748.666" y="356"/>
      <point x="748.666" y="392" type="curve" smooth="yes"/>
      <point x="748.666" y="418.334"/>
      <point x="734.334" y="436.667"/>
      <point x="699.667" y="438.334" type="curve"/>
      <point x="698" y="438.667"/>
      <point x="696" y="439"/>
      <point x="694" y="439" type="curve" smooth="yes"/>
      <point x="663.666" y="439"/>
      <point x="643.333" y="427.667"/>
      <point x="643.333" y="402.334" type="curve" smooth="yes"/>
      <point x="643.333" y="396.667"/>
      <point x="645.333" y="386.334"/>
      <point x="648.333" y="382.334" type="curve"/>
      <point x="663" y="359.667"/>
      <point x="669" y="339.334"/>
      <point x="669.333" y="323" type="curve"/>
      <point x="669.666" y="319"/>
      <point x="669.333" y="315.334"/>
      <point x="668.666" y="310.667" type="curve"/>
      <point x="664" y="265.667"/>
      <point x="641.666" y="198.667"/>
      <point x="608" y="151.334" type="curve" smooth="yes"/>
      <point x="593.666" y="130.667"/>
      <point x="578.333" y="111.667"/>
      <point x="563.666" y="98" type="curve"/>
      <point x="557.666" y="100" type="line"/>
      <point x="548.666" y="150"/>
      <point x="535.333" y="217.667"/>
      <point x="521.666" y="272.667" type="curve" smooth="yes"/>
      <point x="513" y="309.334"/>
      <point x="504" y="342"/>
      <point x="497" y="359.334" type="curve"/>
      <point x="480.666" y="359.334"/>
      <point x="462.333" y="355.334"/>
      <point x="442" y="346" type="curve"/>
      <point x="399.666" y="249.334"/>
      <point x="338.667" y="142.667"/>
      <point x="313.333" y="109" type="curve"/>
      <point x="310" y="110.334" type="line"/>
      <point x="284.333" y="309" type="line" smooth="yes"/>
      <point x="274.667" y="385"/>
      <point x="262" y="433.667"/>
      <point x="227.667" y="438.334" type="curve"/>
      <point x="223.667" y="439"/>
      <point x="219" y="438.667"/>
      <point x="213.667" y="437.667" type="curve"/>
      <point x="177" y="433.667"/>
      <point x="117.333" y="379"/>
      <point x="80" y="326.667" type="curve"/>
      <point x="83" y="315.334"/>
      <point x="91.667" y="307.334"/>
      <point x="104.667" y="305.334" type="curve"/>
      <point x="131.667" y="334"/>
      <point x="157" y="353.667"/>
      <point x="172.333" y="353.667" type="curve" smooth="yes"/>
      <point x="181" y="353.667"/>
      <point x="187" y="340.334"/>
      <point x="193.667" y="296" type="curve" smooth="yes"/>
      <point x="228.667" y="54" type="line"/>
      <point x="235.667" y="10.667"/>
      <point x="244" y="-8.333"/>
      <point x="256" y="-11" type="curve"/>
      <point x="258.333" y="-11.666"/>
      <point x="262" y="-11.333"/>
      <point x="265.333" y="-10" type="curve"/>
      <point x="276.667" y="-6.666"/>
      <point x="292" y="6.334"/>
      <point x="307.333" y="26.667" type="curve" smooth="yes"/>
      <point x="347" y="81.667"/>
      <point x="400.666" y="173"/>
      <point x="435.333" y="244.334" type="curve"/>
    </contour>
  </outline>
</glyph>
<glyph name="x" format="2">
  <advance width="489"/>
  <unicode hex="0078"/>
  <anchor x="356.667" y="500" name="t.uni0302"/>
  <anchor x="223.667" y="-60" name="b.minus-60"/>
  <outline>
    <contour>
      <point x="197.667" y="345.333" type="curve"/>
      <point x="200.334" y="340"/>
      <point x="206.667" y="325.666"/>
      <point x="213" y="308.333" type="curve" smooth="yes"/>
      <point x="225.334" y="276.333"/>
      <point x="240" y="239.333"/>
      <point x="252" y="206" type="curve"/>
      <point x="227.334" y="167.667"/>
      <point x="198.667" y="128.667"/>
      <point x="172.667" y="90.667" type="curve"/>
      <point x="167.667" y="84.333"/>
      <point x="163" y="78"/>
      <point x="158.667" y="72.667" type="curve" smooth="yes"/>
      <point x="153.667" y="66.666"/>
      <point x="149" y="62.666"/>
      <point x="144.667" y="60.666" type="curve"/>
      <point x="140" y="58.666"/>
      <point x="136" y="58.666"/>
      <point x="131.667" y="59.333" type="curve" smooth="yes"/>
      <point x="124" y="60.666"/>
      <point x="113.667" y="64"/>
      <point x="105" y="68" type="curve" smooth="yes"/>
      <point x="95.667" y="72.333"/>
      <point x="85" y="75"/>
      <point x="73.667" y="75" type="curve" smooth="yes"/>
      <point x="49.334" y="75"/>
      <point x="36.334" y="60.666"/>
      <point x="33" y="40" type="curve"/>
      <point x="32.334" y="36.667"/>
      <point x="32.334" y="33.333"/>
      <point x="32.667" y="29.667" type="curve" smooth="yes"/>
      <point x="34.667" y="4.333"/>
      <point x="67" y="-8.667"/>
      <point x="90.667" y="-9.667" type="curve"/>
      <point x="94" y="-10"/>
      <point x="96.334" y="-10"/>
      <point x="99.667" y="-10" type="curve"/>
      <point x="136" y="-8"/>
      <point x="156.667" y="6.333"/>
      <point x="202.334" y="65.666" type="curve"/>
      <point x="222" y="92.667"/>
      <point x="245.667" y="125.667"/>
      <point x="267" y="156.667" type="curve"/>
      <point x="292.667" y="76.667" type="line" smooth="yes"/>
      <point x="296.001" y="65.333"/>
      <point x="299.334" y="54.666"/>
      <point x="303.001" y="44.333" type="curve" smooth="yes"/>
      <point x="315.001" y="10.666"/>
      <point x="326.334" y="-7.334"/>
      <point x="353.334" y="-9.334" type="curve"/>
      <point x="357.001" y="-10"/>
      <point x="360.334" y="-10"/>
      <point x="364.001" y="-10" type="curve"/>
      <point x="400.667" y="-9.667"/>
      <point x="444.334" y="7.333"/>
      <point x="484.001" y="63" type="curve"/>
      <point x="478.667" y="72"/>
      <point x="470.001" y="80"/>
      <point x="460.001" y="84.333" type="curve"/>
      <point x="434.667" y="54.333"/>
      <point x="421.001" y="48"/>
      <point x="408.667" y="48" type="curve" smooth="yes"/>
      <point x="400.001" y="48"/>
      <point x="393.001" y="59.333"/>
      <point x="385.334" y="80.667" type="curve" smooth="yes"/>
      <point x="328.667" y="236" type="line"/>
      <point x="404.334" y="344.666" type="line" smooth="yes"/>
      <point x="413.334" y="357.667"/>
      <point x="423.667" y="362.667"/>
      <point x="431.001" y="365.334" type="curve" smooth="yes"/>
      <point x="438.334" y="368"/>
      <point x="448.001" y="367.334"/>
      <point x="452.667" y="365.667" type="curve"/>
      <point x="460.001" y="364.334"/>
      <point x="472.001" y="361"/>
      <point x="481.334" y="355.333" type="curve"/>
      <point x="486.334" y="352.667"/>
      <point x="492.001" y="351"/>
      <point x="498.001" y="349.666" type="curve"/>
      <point x="505.001" y="348.333"/>
      <point x="511.001" y="348.333"/>
      <point x="516.001" y="349.333" type="curve"/>
      <point x="529.667" y="352.667"/>
      <point x="542.667" y="369.334"/>
      <point x="546.001" y="388.667" type="curve"/>
      <point x="546.667" y="392"/>
      <point x="546.667" y="395.667"/>
      <point x="546.334" y="399.334" type="curve" smooth="yes"/>
      <point x="544.334" y="423.334"/>
      <point x="518.001" y="437.667"/>
      <point x="494.001" y="438.333" type="curve"/>
      <point x="490.667" y="438.667"/>
      <point x="487.667" y="438.667"/>
      <point x="484.334" y="438.667" type="curve"/>
      <point x="435.334" y="437.334"/>
      <point x="402.667" y="412.334"/>
      <point x="360.667" y="351.667" type="curve" smooth="yes"/>
      <point x="356.334" y="345.333"/>
      <point x="352.334" y="339.333"/>
      <point x="348.001" y="333" type="curve" smooth="yes"/>
      <point x="339.334" y="321"/>
      <point x="326.001" y="301.666"/>
      <point x="314.667" y="285.666" type="curve"/>
      <point x="287.334" y="368.667" type="line" smooth="yes"/>
      <point x="273.667" y="409"/>
      <point x="265.334" y="427.667"/>
      <point x="249" y="434.334" type="curve"/>
      <point x="243" y="437.667"/>
      <point x="235.667" y="438.667"/>
      <point x="227.334" y="437.667" type="curve" smooth="yes"/>
      <point x="197.667" y="434"/>
      <point x="125.667" y="395.334"/>
      <point x="92.334" y="372.334" type="curve"/>
      <point x="93.334" y="361.334"/>
      <point x="98.667" y="346.666"/>
      <point x="106.667" y="338.666" type="curve"/>
      <point x="117.334" y="344"/>
      <point x="142.334" y="356.333"/>
      <point x="162.667" y="358.334" type="curve"/>
      <point x="166.334" y="359"/>
      <point x="169.334" y="359"/>
      <point x="172.334" y="358.667" type="curve"/>
      <point x="184" y="358"/>
      <point x="193" y="354"/>
    </contour>
  </outline>
</glyph>
<glyph name="z" format="2">
  <advance width="443"/>
  <unicode hex="007A"/>
  <outline>
    <contour>
      <point x="48.6667" y="7.33333" type="curve"/>
      <point x="55" y="-3.33333"/>
      <point x="71.6667" y="-9.66667"/>
      <point x="87.3333" y="-12" type="curve"/>
      <point x="110" y="22.6667"/>
      <point x="131.333" y="37.3333" name=".hr01"/>
      <point x="141.333" y="37.3333" type="curve" smooth="yes"/>
      <point x="156" y="37.3333"/>
      <point x="183" y="32.3333"/>
      <point x="216" y="13.6667" type="curve" smooth="yes"/>
      <point x="241.333" y="-0.333333"/>
      <point x="276.667" y="-10" name=".hr02"/>
      <point x="306.667" y="-10" type="curve" smooth="yes"/>
      <point x="353.667" y="-10"/>
      <point x="399" y="17"/>
      <point x="447.333" y="124.667" type="curve"/>
      <point x="442.333" y="132.667"/>
      <point x="434" y="139.333"/>
      <point x="420.333" y="139.333" type="curve"/>
      <point x="386" y="84.3333"/>
      <point x="358.667" y="74.3333"/>
      <point x="335" y="74.3333" type="curve" smooth="yes"/>
      <point x="303.667" y="74.3333"/>
      <point x="245" y="108" name=".hr03"/>
      <point x="192.333" y="108" type="curve"/>
      <point x="476.333" y="426.667" type="line"/>
      <point x="471.333" y="434"/>
      <point x="456" y="444.667"/>
      <point x="444.667" y="446" type="curve"/>
      <point x="425.667" y="423.667"/>
      <point x="408.333" y="412.333"/>
      <point x="391.333" y="412.333" type="curve" smooth="yes"/>
      <point x="334.667" y="412.333"/>
      <point x="272.333" y="439" name=".hr04"/>
      <point x="210.333" y="439" type="curve" smooth="yes"/>
      <point x="171.667" y="439"/>
      <point x="117.333" y="367.333"/>
      <point x="99.3333" y="308.667" type="curve"/>
      <point x="106" y="301.333"/>
      <point x="115.667" y="299.667"/>
      <point x="127.667" y="299.667" type="curve"/>
      <point x="145.667" y="339.333"/>
      <point x="174.667" y="355.667"/>
      <point x="215" y="355.667" type="curve" smooth="yes"/>
      <point x="261.333" y="355.667"/>
      <point x="288.667" y="345" name=".hr05"/>
      <point x="318" y="345" type="curve" smooth="yes"/>
      <point x="332.333" y="345"/>
      <point x="340.333" y="345.667"/>
      <point x="352" y="347" type="curve"/>
      <point x="116.333" y="92.6667" type="line" smooth="yes"/>
      <point x="94.3333" y="69"/>
      <point x="52.6667" y="19.6667"/>
    </contour>
  </outline>
</glyph>
<glyph name="braceleft" format="2">
  <advance width="284"/>
  <unicode hex="007B"/>
  <outline>
    <contour>
      <point x="293.334" y="562" type="line" smooth="yes"/>
      <point x="301.334" y="604.666"/>
      <point x="312.334" y="634.333"/>
      <point x="327" y="652.333" type="curve" smooth="yes"/>
      <point x="344.667" y="675"/>
      <point x="365.334" y="686.333"/>
      <point x="386.334" y="692.333" type="curve"/>
      <point x="389.334" y="697.666"/>
      <point x="391" y="704.333"/>
      <point x="390" y="709.666" type="curve"/>
      <point x="338.667" y="708.999"/>
      <point x="293.667" y="696.666"/>
      <point x="265" y="670.666" type="curve" smooth="yes"/>
      <point x="239.667" y="647"/>
      <point x="221.334" y="609.333"/>
      <point x="212.334" y="557.333" type="curve" smooth="yes"/>
      <point x="180.334" y="382.666" type="line" smooth="yes"/>
      <point x="179.334" y="376.666"/>
      <point x="178" y="370.333"/>
      <point x="177" y="364.333" type="curve"/>
      <point x="166.334" y="316.333"/>
      <point x="142" y="266.333"/>
      <point x="81.667" y="253.666" type="curve"/>
      <point x="78" y="249.333"/>
      <point x="76.667" y="243.667"/>
      <point x="78.667" y="239.667" type="curve"/>
      <point x="118" y="231"/>
      <point x="133.334" y="206.667"/>
      <point x="135.667" y="172" type="curve" smooth="yes"/>
      <point x="137" y="156.667"/>
      <point x="135.334" y="140"/>
      <point x="131.334" y="121" type="curve" smooth="yes"/>
      <point x="97" y="-52.333" type="line" smooth="yes"/>
      <point x="91.667" y="-80.333"/>
      <point x="89" y="-103.333"/>
      <point x="90" y="-123.333" type="curve" smooth="yes"/>
      <point x="90.667" y="-144.667"/>
      <point x="94.667" y="-161.333"/>
      <point x="102" y="-174" type="curve" smooth="yes"/>
      <point x="118" y="-202.667"/>
      <point x="160.334" y="-214.666"/>
      <point x="215.667" y="-215.333" type="curve"/>
      <point x="218.667" y="-210"/>
      <point x="219.667" y="-203.333"/>
      <point x="218.667" y="-198" type="curve"/>
      <point x="206" y="-196"/>
      <point x="188" y="-189.333"/>
      <point x="175.667" y="-159" type="curve"/>
      <point x="172" y="-148.333"/>
      <point x="169.667" y="-134.333"/>
      <point x="169.667" y="-118" type="curve" smooth="yes"/>
      <point x="169.667" y="-102.667"/>
      <point x="172" y="-84.333"/>
      <point x="175.667" y="-64" type="curve" smooth="yes"/>
      <point x="208.334" y="95" type="line" smooth="yes"/>
      <point x="214.667" y="125.667"/>
      <point x="216.667" y="150.667"/>
      <point x="213.667" y="170.667" type="curve"/>
      <point x="210" y="206.667"/>
      <point x="193.334" y="229.667"/>
      <point x="158.667" y="246.333" type="curve"/>
      <point x="159" y="247.666" type="line"/>
      <point x="214.334" y="267.333"/>
      <point x="244.334" y="293.666"/>
      <point x="261.334" y="377.666" type="curve" smooth="yes"/>
      <point x="262.667" y="384.333"/>
      <point x="264" y="391"/>
      <point x="265" y="398" type="curve"/>
    </contour>
  </outline>
</glyph>
<glyph name="bar" format="2">
  <advance width="210"/>
  <unicode hex="007C"/>
  <outline>
    <contour>
      <point x="98" y="-233" type="line"/>
      <point x="245.667" y="667.333" type="line"/>
      <point x="197.333" y="667.333" type="line"/>
      <point x="49.6667" y="-233" type="line"/>
    </contour>
  </outline>
</glyph>
<glyph name="braceright" format="2">
  <advance width="284"/>
  <unicode hex="007D"/>
  <outline>
    <contour>
      <point x="84.667" y="-67.334" type="line" smooth="yes"/>
      <point x="76.667" y="-110"/>
      <point x="65" y="-139.667"/>
      <point x="51" y="-157.667" type="curve" smooth="yes"/>
      <point x="33.334" y="-180.334"/>
      <point x="12.667" y="-191.667"/>
      <point x="-8.333" y="-197.667" type="curve"/>
      <point x="-11.333" y="-203"/>
      <point x="-13" y="-209.667"/>
      <point x="-12" y="-215" type="curve"/>
      <point x="38.667" y="-214.333"/>
      <point x="83.667" y="-202"/>
      <point x="113" y="-176" type="curve"/>
      <point x="137.667" y="-152.334"/>
      <point x="156" y="-114.667"/>
      <point x="165.667" y="-62.667" type="curve" smooth="yes"/>
      <point x="197" y="112.667" type="line" smooth="yes"/>
      <point x="198" y="118.667"/>
      <point x="199.333" y="125"/>
      <point x="200.333" y="131" type="curve"/>
      <point x="211" y="178.333"/>
      <point x="236.334" y="228.333"/>
      <point x="296.666" y="241" type="curve"/>
      <point x="300" y="245.333"/>
      <point x="300.666" y="251"/>
      <point x="298.666" y="255" type="curve"/>
      <point x="260" y="263.667"/>
      <point x="244.667" y="288"/>
      <point x="242.334" y="322.667" type="curve" smooth="yes"/>
      <point x="241.001" y="337.333"/>
      <point x="242.001" y="354.667"/>
      <point x="246.001" y="374.333" type="curve" smooth="yes"/>
      <point x="280.333" y="547" type="line" smooth="yes"/>
      <point x="286.333" y="575"/>
      <point x="288.333" y="598"/>
      <point x="287.333" y="618" type="curve" smooth="yes"/>
      <point x="286.666" y="639.334"/>
      <point x="282.666" y="656"/>
      <point x="276" y="668.667" type="curve" smooth="yes"/>
      <point x="260" y="697.334"/>
      <point x="217" y="709.333"/>
      <point x="162.334" y="710" type="curve"/>
      <point x="159.334" y="704.667"/>
      <point x="157.667" y="698"/>
      <point x="158.667" y="692.667" type="curve"/>
      <point x="172.334" y="690.667"/>
      <point x="190" y="684"/>
      <point x="201.666" y="653.667" type="curve" smooth="yes"/>
      <point x="206" y="643"/>
      <point x="208.333" y="629.667"/>
      <point x="208.333" y="613.334" type="curve" smooth="yes"/>
      <point x="208.333" y="598"/>
      <point x="206.333" y="579.667"/>
      <point x="201.666" y="558.667" type="curve" smooth="yes"/>
      <point x="169.667" y="399.667" type="line" smooth="yes"/>
      <point x="163.334" y="369.667"/>
      <point x="161.667" y="344.667"/>
      <point x="164.667" y="324" type="curve"/>
      <point x="168.334" y="288"/>
      <point x="184" y="265"/>
      <point x="219.333" y="249" type="curve"/>
      <point x="219" y="247.667" type="line"/>
      <point x="163.667" y="228"/>
      <point x="133" y="201"/>
      <point x="116.334" y="117" type="curve" smooth="yes"/>
      <point x="115" y="110.333"/>
      <point x="113.667" y="103.667"/>
      <point x="112.667" y="96.667" type="curve"/>
    </contour>
  </outline>
</glyph>
<glyph name="exclamdown" format="2">
  <advance width="240"/>
  <unicode hex="00A1"/>
  <outline>
    <contour>
      <point x="79.666" y="-228.666" type="curve" smooth="yes"/>
      <point x="104.666" y="-228.666"/>
      <point x="142.333" y="-209.666"/>
      <point x="152.999" y="-155" type="curve" smooth="yes"/>
      <point x="158.333" y="-123.666"/>
      <point x="159.333" y="-100.666"/>
      <point x="159.666" y="-76.333" type="curve"/>
      <point x="159.999" y="-68.666"/>
      <point x="159.999" y="-60"/>
      <point x="159.999" y="-52" type="curve" smooth="yes"/>
      <point x="159.999" y="-45.333"/>
      <point x="159.999" y="-39"/>
      <point x="160.333" y="-32" type="curve"/>
      <point x="160.666" y="-12.333"/>
      <point x="161.333" y="11.667"/>
      <point x="163.666" y="39" type="curve" smooth="yes"/>
      <point x="167.999" y="95.334"/>
      <point x="174.666" y="156"/>
      <point x="179.333" y="191.334" type="curve" smooth="yes"/>
      <point x="181.333" y="206"/>
      <point x="182.666" y="217.667"/>
      <point x="182.666" y="224.667" type="curve" smooth="yes"/>
      <point x="182.666" y="226" type="line"/>
      <point x="182.333" y="232"/>
      <point x="180.999" y="237.667"/>
      <point x="172.333" y="238.667" type="curve" smooth="yes"/>
      <point x="169.333" y="239"/>
      <point x="165.999" y="238.667"/>
      <point x="162.999" y="237.334" type="curve"/>
      <point x="156.333" y="235.334"/>
      <point x="151.666" y="229.334"/>
      <point x="148.333" y="221.334" type="curve" smooth="yes"/>
      <point x="146" y="216"/>
      <point x="143.333" y="208"/>
      <point x="140.666" y="196.667" type="curve" smooth="yes"/>
      <point x="134.333" y="167"/>
      <point x="119.666" y="113.334"/>
      <point x="97.333" y="41.334" type="curve" smooth="yes"/>
      <point x="87" y="8.334"/>
      <point x="76.333" y="-21.333"/>
      <point x="67" y="-48.333" type="curve" smooth="yes"/>
      <point x="53.666" y="-84"/>
      <point x="41" y="-117.333"/>
      <point x="34" y="-155" type="curve" smooth="yes"/>
      <point x="32.333" y="-164"/>
      <point x="31.666" y="-171.666"/>
      <point x="32.333" y="-179.333" type="curve"/>
      <point x="33.666" y="-213"/>
      <point x="56" y="-228.666"/>
    </contour>
    <contour>
      <point x="254" y="388" type="curve"/>
      <point x="254.666" y="390.667"/>
      <point x="254.666" y="394"/>
      <point x="254.333" y="397" type="curve"/>
      <point x="252.666" y="424"/>
      <point x="232.666" y="444"/>
      <point x="204.666" y="445.667" type="curve"/>
      <point x="201.333" y="446"/>
      <point x="197.999" y="446"/>
      <point x="194.666" y="445.334" type="curve"/>
      <point x="164.666" y="442.667"/>
      <point x="138" y="417.334"/>
      <point x="134.666" y="387.334" type="curve"/>
      <point x="134" y="383.334"/>
      <point x="134" y="380"/>
      <point x="134.333" y="377" type="curve"/>
      <point x="136" y="350.334"/>
      <point x="156.666" y="330.334"/>
      <point x="183.999" y="328.667" type="curve"/>
      <point x="187.333" y="328.334"/>
      <point x="190.666" y="328.334"/>
      <point x="193.999" y="329" type="curve"/>
      <point x="224" y="331.667"/>
      <point x="251.333" y="357"/>
    </contour>
  </outline>
</glyph>
<glyph name="cent" format="2">
  <advance width="472"/>
  <unicode hex="00A2"/>
  <outline>
    <contour>
      <point x="340" y="584" type="line"/>
      <point x="325" y="510.666" type="line"/>
      <point x="282.333" y="505.666"/>
      <point x="229" y="481.333"/>
      <point x="190" y="442.666" type="curve" smooth="yes"/>
      <point x="148.667" y="400.333"/>
      <point x="117" y="341.666"/>
      <point x="105.334" y="272" type="curve" smooth="yes"/>
      <point x="102" y="254"/>
      <point x="100.667" y="236.666"/>
      <point x="100.667" y="218.666" type="curve"/>
      <point x="100.334" y="183"/>
      <point x="108.667" y="141"/>
      <point x="130.667" y="110.333" type="curve" smooth="yes"/>
      <point x="153.667" y="79.667"/>
      <point x="188.334" y="62"/>
      <point x="235" y="61" type="curve"/>
      <point x="220.334" y="-12" type="line"/>
      <point x="253.667" y="-12" type="line"/>
      <point x="269" y="64" type="line"/>
      <point x="325.333" y="75"/>
      <point x="381.666" y="118.666"/>
      <point x="422.333" y="172.666" type="curve"/>
      <point x="421.333" y="183.333"/>
      <point x="415.333" y="194.333"/>
      <point x="406" y="194.333" type="curve"/>
      <point x="372.666" y="161.333"/>
      <point x="342" y="137.333"/>
      <point x="311" y="129.333" type="curve"/>
      <point x="301.333" y="127.333"/>
      <point x="291.333" y="126"/>
      <point x="281.667" y="126.333" type="curve"/>
      <point x="351" y="474.333" type="line"/>
      <point x="363.333" y="470.333"/>
      <point x="375.333" y="461"/>
      <point x="376.333" y="440.333" type="curve"/>
      <point x="377" y="432.333"/>
      <point x="375.666" y="422.666"/>
      <point x="373" y="415.333" type="curve" smooth="yes"/>
      <point x="370.666" y="409"/>
      <point x="370" y="398.666"/>
      <point x="372" y="392" type="curve"/>
      <point x="374.666" y="377.333"/>
      <point x="386.333" y="364.333"/>
      <point x="403.666" y="364.333" type="curve" smooth="yes"/>
      <point x="431.999" y="364.333"/>
      <point x="457.333" y="386"/>
      <point x="459.666" y="413" type="curve" smooth="yes"/>
      <point x="462.666" y="452"/>
      <point x="449.333" y="505.333"/>
      <point x="359" y="511" type="curve"/>
      <point x="373.333" y="584" type="line"/>
    </contour>
    <contour>
      <point x="249.333" y="132" type="line"/>
      <point x="240" y="135.666"/>
      <point x="231" y="141.333"/>
      <point x="223.667" y="151.333" type="curve"/>
      <point x="207.334" y="172"/>
      <point x="197.667" y="197.333"/>
      <point x="198.667" y="252" type="curve" smooth="yes"/>
      <point x="199" y="267"/>
      <point x="200.334" y="281.666"/>
      <point x="202.334" y="295.666" type="curve" smooth="yes"/>
      <point x="217" y="401.333"/>
      <point x="263.667" y="464.333"/>
      <point x="318" y="475.333" type="curve"/>
    </contour>
  </outline>
</glyph>
<glyph name="sterling" format="2">
  <advance width="472"/>
  <unicode hex="00A3"/>
  <outline>
    <contour>
      <point x="130.667" y="292" type="curve"/>
      <point x="190.334" y="292" type="line"/>
      <point x="186.334" y="272" type="line" smooth="yes"/>
      <point x="169" y="188.667"/>
      <point x="146" y="121.333"/>
      <point x="102" y="81.667" type="curve"/>
      <point x="94.667" y="74.667"/>
      <point x="89.334" y="70.667"/>
      <point x="82.667" y="66" type="curve"/>
      <point x="53.667" y="52"/>
      <point x="28.334" y="31"/>
      <point x="23.667" y="7" type="curve"/>
      <point x="21" y="-4.333"/>
      <point x="30.667" y="-15.667"/>
      <point x="42.667" y="-17.333" type="curve"/>
      <point x="44" y="-17.667"/>
      <point x="45" y="-18"/>
      <point x="46.334" y="-18" type="curve" smooth="yes"/>
      <point x="63.667" y="-18"/>
      <point x="89.667" y="-6.333"/>
      <point x="95" y="20.667" type="curve" smooth="yes"/>
      <point x="97.334" y="31.667"/>
      <point x="107.334" y="47"/>
      <point x="140" y="47" type="curve" smooth="yes"/>
      <point x="165.334" y="47"/>
      <point x="187.334" y="32.333"/>
      <point x="212" y="17" type="curve" smooth="yes"/>
      <point x="234.334" y="3.333"/>
      <point x="258" y="-9.667"/>
      <point x="289" y="-11.667" type="curve"/>
      <point x="293" y="-12.333"/>
      <point x="297.334" y="-12.333"/>
      <point x="302" y="-12" type="curve"/>
      <point x="370.334" y="-10"/>
      <point x="421.334" y="31.333"/>
      <point x="448.334" y="80.333" type="curve"/>
      <point x="431.334" y="94" type="line"/>
      <point x="400" y="60.333"/>
      <point x="353.667" y="44"/>
      <point x="325.667" y="44" type="curve" smooth="yes"/>
      <point x="302.334" y="44"/>
      <point x="289.667" y="51.667"/>
      <point x="276.334" y="61.667" type="curve"/>
      <point x="257.667" y="74.667"/>
      <point x="235.667" y="88.667"/>
      <point x="180" y="90" type="curve"/>
      <point x="176" y="90.333"/>
      <point x="171.334" y="90.333"/>
      <point x="166" y="89.667" type="curve"/>
      <point x="168" y="91.667"/>
      <point x="170.334" y="92.667"/>
      <point x="172.334" y="94" type="curve" smooth="yes"/>
      <point x="213" y="122.333"/>
      <point x="253.334" y="175"/>
      <point x="276.667" y="283" type="curve" smooth="yes"/>
      <point x="277.334" y="286"/>
      <point x="278.667" y="288.667"/>
      <point x="279" y="292" type="curve"/>
      <point x="357.334" y="292" type="line" smooth="yes"/>
      <point x="374.334" y="292"/>
      <point x="394" y="294"/>
      <point x="405.667" y="298.667" type="curve"/>
      <point x="411.667" y="330.667" type="line"/>
      <point x="406" y="332.667"/>
      <point x="397.334" y="334.334"/>
      <point x="385.334" y="334.334" type="curve" smooth="yes"/>
      <point x="287.667" y="334.334" type="line"/>
      <point x="300.334" y="396.667" type="line" smooth="yes"/>
      <point x="317.334" y="480.667"/>
      <point x="360.667" y="546.667"/>
      <point x="405" y="546.667" type="curve" smooth="yes"/>
      <point x="425.667" y="546.667"/>
      <point x="431" y="530.667"/>
      <point x="442" y="517.667" type="curve"/>
      <point x="450.667" y="506.334"/>
      <point x="460.334" y="497"/>
      <point x="474.667" y="497" type="curve" smooth="yes"/>
      <point x="500.667" y="497"/>
      <point x="522.667" y="514"/>
      <point x="527.667" y="541.334" type="curve"/>
      <point x="535.334" y="577.333"/>
      <point x="484" y="587.333"/>
      <point x="460.334" y="588" type="curve"/>
      <point x="459" y="588"/>
      <point x="458" y="588"/>
      <point x="457.334" y="588" type="curve"/>
      <point x="408.334" y="588"/>
      <point x="360.667" y="571.333"/>
      <point x="319.334" y="538" type="curve"/>
      <point x="318" y="537.334"/>
      <point x="317" y="536.334"/>
      <point x="315.667" y="535.334" type="curve"/>
      <point x="255.334" y="485.334"/>
      <point x="218.667" y="433"/>
      <point x="201.334" y="347.667" type="curve"/>
      <point x="199" y="334.334" type="line"/>
      <point x="160" y="334.334" type="line" smooth="yes"/>
      <point x="144" y="334.334"/>
      <point x="134.334" y="331"/>
      <point x="129" y="327.667" type="curve"/>
      <point x="125.334" y="309" type="line" smooth="yes"/>
      <point x="124" y="302"/>
      <point x="124" y="296.667"/>
    </contour>
  </outline>
</glyph>
<glyph name="currency" format="2">
  <advance width="446"/>
  <unicode hex="00A4"/>
  <outline>
    <contour>
      <point x="241.667" y="123.333" type="curve" smooth="yes"/>
      <point x="281.333" y="123.333"/>
      <point x="318" y="134.666"/>
      <point x="353.333" y="156.999" type="curve"/>
      <point x="389.667" y="103" type="line"/>
      <point x="439.333" y="147.666" type="line"/>
      <point x="425.667" y="161.999"/>
      <point x="411" y="177.333"/>
      <point x="397" y="191.666" type="curve"/>
      <point x="427.667" y="224.666"/>
      <point x="446.667" y="260.333"/>
      <point x="454" y="299" type="curve" smooth="yes"/>
      <point x="456.333" y="310.667"/>
      <point x="457.333" y="322"/>
      <point x="457" y="333.333" type="curve"/>
      <point x="457" y="360"/>
      <point x="450" y="384.333"/>
      <point x="436.333" y="406.667" type="curve"/>
      <point x="499" y="451" type="line"/>
      <point x="463.667" y="498.667" type="line"/>
      <point x="446.667" y="482"/>
      <point x="425" y="460"/>
      <point x="406" y="441.667" type="curve"/>
      <point x="381.333" y="461"/>
      <point x="352.667" y="473"/>
      <point x="317.667" y="475" type="curve"/>
      <point x="315" y="475"/>
      <point x="311.667" y="475"/>
      <point x="309" y="475" type="curve" smooth="yes"/>
      <point x="270.667" y="475"/>
      <point x="234.334" y="464"/>
      <point x="199" y="443.334" type="curve"/>
      <point x="163.334" y="495" type="line"/>
      <point x="112.667" y="450" type="line"/>
      <point x="126.667" y="436.334"/>
      <point x="141.334" y="422.334"/>
      <point x="155.334" y="409" type="curve"/>
      <point x="123.334" y="376.667"/>
      <point x="102.667" y="340"/>
      <point x="94.667" y="299" type="curve" smooth="yes"/>
      <point x="92.334" y="287.333"/>
      <point x="91.334" y="276"/>
      <point x="91.667" y="266" type="curve"/>
      <point x="91.667" y="238.666"/>
      <point x="99.334" y="213.333"/>
      <point x="113.667" y="189.666" type="curve"/>
      <point x="53.334" y="146.666" type="line"/>
      <point x="91" y="100.333" type="line"/>
      <point x="106.667" y="117"/>
      <point x="127.334" y="137.666"/>
      <point x="144.334" y="155.666" type="curve"/>
      <point x="170.667" y="134.333"/>
      <point x="203" y="123.333"/>
    </contour>
    <contour>
      <point x="160.667" y="300" type="curve" smooth="yes"/>
      <point x="174.334" y="370.333"/>
      <point x="234.667" y="428.667"/>
      <point x="301" y="428.667" type="curve" smooth="yes"/>
      <point x="353.667" y="428.667"/>
      <point x="392" y="385.333"/>
      <point x="391" y="324.667" type="curve"/>
      <point x="391" y="316.333"/>
      <point x="390" y="307.667"/>
      <point x="388.667" y="299" type="curve"/>
      <point x="375" y="229"/>
      <point x="318" y="169.666"/>
      <point x="251" y="169.666" type="curve" smooth="yes"/>
      <point x="191.334" y="169.666"/>
      <point x="156.334" y="214.333"/>
      <point x="157.667" y="273" type="curve"/>
      <point x="157.667" y="282.333"/>
      <point x="158.667" y="290.666"/>
    </contour>
  </outline>
</glyph>
<glyph name="yen" format="2">
  <advance width="472"/>
  <unicode hex="00A5"/>
  <outline>
    <contour>
      <point x="455.667" y="169.667" type="line"/>
      <point x="319" y="169.667" type="line"/>
      <point x="332.667" y="234.333" type="line"/>
      <point x="468.334" y="234.333" type="line"/>
      <point x="476.667" y="275" type="line"/>
      <point x="349.001" y="275" type="line"/>
      <point x="359.667" y="296.667"/>
      <point x="370.001" y="314.333"/>
      <point x="385.001" y="337" type="curve" smooth="yes"/>
      <point x="488.334" y="496" type="line"/>
      <point x="491.334" y="500.333"/>
      <point x="493.667" y="504.333"/>
      <point x="496.667" y="508.666" type="curve" smooth="yes"/>
      <point x="515.334" y="536"/>
      <point x="536.667" y="552.333"/>
      <point x="565.667" y="554" type="curve"/>
      <point x="570.334" y="554" type="line"/>
      <point x="575.334" y="554.333"/>
      <point x="578.334" y="555.333"/>
      <point x="581.334" y="556.667" type="curve"/>
      <point x="582.667" y="558"/>
      <point x="584.001" y="560.667"/>
      <point x="584.667" y="563.333" type="curve" smooth="yes"/>
      <point x="586.334" y="570.333"/>
      <point x="587.667" y="577.333"/>
      <point x="587.334" y="582.667" type="curve"/>
      <point x="586.001" y="584" type="line"/>
      <point x="563.667" y="582.333"/>
      <point x="525.001" y="581.333"/>
      <point x="511.667" y="581.333" type="curve" smooth="yes"/>
      <point x="496.001" y="581.333"/>
      <point x="446.001" y="583"/>
      <point x="428.334" y="584" type="curve"/>
      <point x="427.667" y="582.667"/>
      <point x="426.334" y="581.333"/>
      <point x="425.667" y="579.333" type="curve"/>
      <point x="424.334" y="573.667"/>
      <point x="422.667" y="568.333"/>
      <point x="422.001" y="562.667" type="curve"/>
      <point x="421.667" y="560.667"/>
      <point x="422.001" y="558"/>
      <point x="422.334" y="556" type="curve"/>
      <point x="425.667" y="555"/>
      <point x="429.667" y="554.333"/>
      <point x="433.001" y="554" type="curve"/>
      <point x="443.001" y="554" type="line"/>
      <point x="461.334" y="553"/>
      <point x="468.001" y="548.666"/>
      <point x="465.667" y="538.666" type="curve"/>
      <point x="465.667" y="536"/>
      <point x="464.001" y="532.333"/>
      <point x="461.667" y="528.333" type="curve"/>
      <point x="459.667" y="523.666"/>
      <point x="456.334" y="518.333"/>
      <point x="453.001" y="512.333" type="curve"/>
      <point x="356.334" y="358.667" type="line" smooth="yes"/>
      <point x="344.667" y="341"/>
      <point x="334.334" y="325"/>
      <point x="324" y="311.333" type="curve"/>
      <point x="320.667" y="317.667"/>
      <point x="318" y="326.333"/>
      <point x="315" y="336.333" type="curve"/>
      <point x="268" y="512.333" type="line"/>
      <point x="267.334" y="513.666"/>
      <point x="267.334" y="515"/>
      <point x="266.667" y="516.333" type="curve"/>
      <point x="264.667" y="525.666"/>
      <point x="263" y="533"/>
      <point x="264.334" y="539.666" type="curve"/>
      <point x="266" y="546.666"/>
      <point x="272.334" y="551.333"/>
      <point x="287" y="552" type="curve"/>
      <point x="292.334" y="553"/>
      <point x="299.667" y="553.666"/>
      <point x="308.334" y="554" type="curve"/>
      <point x="313.334" y="555.333"/>
      <point x="316.334" y="562.333"/>
      <point x="317.334" y="568" type="curve" smooth="yes"/>
      <point x="319.334" y="579.333" type="line"/>
      <point x="319.334" y="581.333"/>
      <point x="318.667" y="582.667"/>
      <point x="318" y="584" type="curve"/>
      <point x="299" y="583"/>
      <point x="264.667" y="582"/>
      <point x="237.334" y="581.333" type="curve"/>
      <point x="227.334" y="581.333"/>
      <point x="218" y="581.333"/>
      <point x="213.334" y="581.333" type="curve" smooth="yes"/>
      <point x="193" y="581.333"/>
      <point x="134" y="582.333"/>
      <point x="119.334" y="584" type="curve"/>
      <point x="118" y="582.667"/>
      <point x="117.334" y="581.333"/>
      <point x="116" y="579.333" type="curve"/>
      <point x="115" y="573.667"/>
      <point x="114" y="568.333"/>
      <point x="113.334" y="562.667" type="curve"/>
      <point x="113.334" y="560"/>
      <point x="114" y="557.333"/>
      <point x="115.334" y="556" type="curve"/>
      <point x="118.334" y="554.667"/>
      <point x="121" y="554.333"/>
      <point x="123" y="553.333" type="curve"/>
      <point x="123.667" y="553.333" type="line"/>
      <point x="126.667" y="553"/>
      <point x="130" y="552.666"/>
      <point x="132.334" y="552" type="curve"/>
      <point x="155.334" y="549.666"/>
      <point x="165" y="534.666"/>
      <point x="173.334" y="509" type="curve"/>
      <point x="176.667" y="500"/>
      <point x="179.334" y="490.333"/>
      <point x="182.334" y="480" type="curve" smooth="yes"/>
      <point x="227.334" y="326.667" type="line"/>
      <point x="232.667" y="306.333"/>
      <point x="238" y="290.333"/>
      <point x="241.334" y="275" type="curve"/>
      <point x="120.334" y="275" type="line"/>
      <point x="112" y="234.333" type="line"/>
      <point x="238" y="234.333" type="line"/>
      <point x="224.334" y="169.667" type="line"/>
      <point x="99" y="169.667" type="line"/>
      <point x="90.667" y="129.667" type="line"/>
      <point x="216.667" y="129.667" type="line"/>
      <point x="212.334" y="107.334" type="line" smooth="yes"/>
      <point x="210" y="95.667"/>
      <point x="207.667" y="85.334"/>
      <point x="205" y="76" type="curve"/>
      <point x="198.334" y="47"/>
      <point x="182.667" y="32.334"/>
      <point x="146.334" y="30.667" type="curve" smooth="yes"/>
      <point x="137.334" y="30.334"/>
      <point x="128.667" y="30"/>
      <point x="118.667" y="29.667" type="curve"/>
      <point x="115.334" y="29.667"/>
      <point x="111.334" y="28.667"/>
      <point x="108.334" y="28" type="curve"/>
      <point x="106.334" y="26.667"/>
      <point x="105" y="24"/>
      <point x="103.667" y="20.667" type="curve"/>
      <point x="102.667" y="15"/>
      <point x="101.667" y="9"/>
      <point x="100.667" y="3.334" type="curve"/>
      <point x="100.667" y="1.334"/>
      <point x="101.667" y="0"/>
      <point x="102" y="-1.333" type="curve"/>
      <point x="117.334" y="-1"/>
      <point x="197.334" y="0.667"/>
      <point x="242" y="0.667" type="curve" smooth="yes"/>
      <point x="287" y="0.667"/>
      <point x="358.001" y="-1"/>
      <point x="373.334" y="-1.333" type="curve"/>
      <point x="375.334" y="0" type="line"/>
      <point x="377.667" y="5.334"/>
      <point x="379.334" y="13.667"/>
      <point x="380.334" y="20.667" type="curve"/>
      <point x="381.334" y="24"/>
      <point x="380.334" y="26.667"/>
      <point x="379.334" y="28" type="curve"/>
      <point x="376.334" y="28.667"/>
      <point x="373.001" y="29.667"/>
      <point x="369.667" y="29.667" type="curve"/>
      <point x="359.667" y="30"/>
      <point x="350.667" y="30.334"/>
      <point x="341.667" y="30.667" type="curve" smooth="yes"/>
      <point x="307.667" y="32.334"/>
      <point x="296.334" y="45"/>
      <point x="301.334" y="76" type="curve" smooth="yes"/>
      <point x="303" y="85.334"/>
      <point x="305" y="95.667"/>
      <point x="307.334" y="107.334" type="curve"/>
      <point x="308.334" y="114.667"/>
      <point x="310" y="122.334"/>
      <point x="311.334" y="129.667" type="curve"/>
      <point x="447.334" y="129.667" type="line"/>
    </contour>
  </outline>
</glyph>
